<mxfile host="app.diagrams.net" modified="2024-06-21T16:15:12.124Z" agent="Mozilla/5.0 (Windows NT 10.0; Win64; x64) AppleWebKit/537.36 (KHTML, like Gecko) Chrome/126.0.0.0 Safari/537.36" etag="G_sDTncrOELhwUO1pJDq" version="24.6.0" type="google" pages="2">
  <diagram id="stEW4TsrhTlDXpW65niK" name="DataMapping">
    <mxGraphModel dx="2474" dy="830" grid="0" gridSize="10" guides="1" tooltips="1" connect="1" arrows="1" fold="1" page="0" pageScale="1" pageWidth="827" pageHeight="1169" math="0" shadow="0">
      <root>
        <mxCell id="0" />
        <mxCell id="1" parent="0" />
        <mxCell id="YKZeA6OB_1HaBt14HI22-212" value="User" style="shape=table;startSize=30;container=1;collapsible=1;childLayout=tableLayout;fixedRows=1;rowLines=0;fontStyle=1;align=center;resizeLast=1;html=1;fillColor=#d5e8d4;strokeColor=#82b366;" parent="1" vertex="1">
          <mxGeometry x="188" y="519" width="180" height="180" as="geometry" />
        </mxCell>
        <mxCell id="YKZeA6OB_1HaBt14HI22-213" value="" style="shape=tableRow;horizontal=0;startSize=0;swimlaneHead=0;swimlaneBody=0;fillColor=none;collapsible=0;dropTarget=0;points=[[0,0.5],[1,0.5]];portConstraint=eastwest;top=0;left=0;right=0;bottom=1;" parent="YKZeA6OB_1HaBt14HI22-212" vertex="1">
          <mxGeometry y="30" width="180" height="30" as="geometry" />
        </mxCell>
        <mxCell id="YKZeA6OB_1HaBt14HI22-214" value="PK" style="shape=partialRectangle;connectable=0;fillColor=none;top=0;left=0;bottom=0;right=0;fontStyle=1;overflow=hidden;whiteSpace=wrap;html=1;" parent="YKZeA6OB_1HaBt14HI22-213" vertex="1">
          <mxGeometry width="30" height="30" as="geometry">
            <mxRectangle width="30" height="30" as="alternateBounds" />
          </mxGeometry>
        </mxCell>
        <mxCell id="YKZeA6OB_1HaBt14HI22-215" value="UserId" style="shape=partialRectangle;connectable=0;fillColor=none;top=0;left=0;bottom=0;right=0;align=left;spacingLeft=6;fontStyle=5;overflow=hidden;whiteSpace=wrap;html=1;" parent="YKZeA6OB_1HaBt14HI22-213" vertex="1">
          <mxGeometry x="30" width="150" height="30" as="geometry">
            <mxRectangle width="150" height="30" as="alternateBounds" />
          </mxGeometry>
        </mxCell>
        <mxCell id="YKZeA6OB_1HaBt14HI22-216" value="" style="shape=tableRow;horizontal=0;startSize=0;swimlaneHead=0;swimlaneBody=0;fillColor=none;collapsible=0;dropTarget=0;points=[[0,0.5],[1,0.5]];portConstraint=eastwest;top=0;left=0;right=0;bottom=0;" parent="YKZeA6OB_1HaBt14HI22-212" vertex="1">
          <mxGeometry y="60" width="180" height="30" as="geometry" />
        </mxCell>
        <mxCell id="YKZeA6OB_1HaBt14HI22-217" value="" style="shape=partialRectangle;connectable=0;fillColor=none;top=0;left=0;bottom=0;right=0;editable=1;overflow=hidden;whiteSpace=wrap;html=1;" parent="YKZeA6OB_1HaBt14HI22-216" vertex="1">
          <mxGeometry width="30" height="30" as="geometry">
            <mxRectangle width="30" height="30" as="alternateBounds" />
          </mxGeometry>
        </mxCell>
        <mxCell id="YKZeA6OB_1HaBt14HI22-218" value="FirstName" style="shape=partialRectangle;connectable=0;fillColor=none;top=0;left=0;bottom=0;right=0;align=left;spacingLeft=6;overflow=hidden;whiteSpace=wrap;html=1;" parent="YKZeA6OB_1HaBt14HI22-216" vertex="1">
          <mxGeometry x="30" width="150" height="30" as="geometry">
            <mxRectangle width="150" height="30" as="alternateBounds" />
          </mxGeometry>
        </mxCell>
        <mxCell id="YKZeA6OB_1HaBt14HI22-219" value="" style="shape=tableRow;horizontal=0;startSize=0;swimlaneHead=0;swimlaneBody=0;fillColor=none;collapsible=0;dropTarget=0;points=[[0,0.5],[1,0.5]];portConstraint=eastwest;top=0;left=0;right=0;bottom=0;" parent="YKZeA6OB_1HaBt14HI22-212" vertex="1">
          <mxGeometry y="90" width="180" height="30" as="geometry" />
        </mxCell>
        <mxCell id="YKZeA6OB_1HaBt14HI22-220" value="" style="shape=partialRectangle;connectable=0;fillColor=none;top=0;left=0;bottom=0;right=0;editable=1;overflow=hidden;whiteSpace=wrap;html=1;" parent="YKZeA6OB_1HaBt14HI22-219" vertex="1">
          <mxGeometry width="30" height="30" as="geometry">
            <mxRectangle width="30" height="30" as="alternateBounds" />
          </mxGeometry>
        </mxCell>
        <mxCell id="YKZeA6OB_1HaBt14HI22-221" value="LastName" style="shape=partialRectangle;connectable=0;fillColor=none;top=0;left=0;bottom=0;right=0;align=left;spacingLeft=6;overflow=hidden;whiteSpace=wrap;html=1;" parent="YKZeA6OB_1HaBt14HI22-219" vertex="1">
          <mxGeometry x="30" width="150" height="30" as="geometry">
            <mxRectangle width="150" height="30" as="alternateBounds" />
          </mxGeometry>
        </mxCell>
        <mxCell id="YKZeA6OB_1HaBt14HI22-222" value="" style="shape=tableRow;horizontal=0;startSize=0;swimlaneHead=0;swimlaneBody=0;fillColor=none;collapsible=0;dropTarget=0;points=[[0,0.5],[1,0.5]];portConstraint=eastwest;top=0;left=0;right=0;bottom=0;" parent="YKZeA6OB_1HaBt14HI22-212" vertex="1">
          <mxGeometry y="120" width="180" height="30" as="geometry" />
        </mxCell>
        <mxCell id="YKZeA6OB_1HaBt14HI22-223" value="" style="shape=partialRectangle;connectable=0;fillColor=none;top=0;left=0;bottom=0;right=0;editable=1;overflow=hidden;whiteSpace=wrap;html=1;" parent="YKZeA6OB_1HaBt14HI22-222" vertex="1">
          <mxGeometry width="30" height="30" as="geometry">
            <mxRectangle width="30" height="30" as="alternateBounds" />
          </mxGeometry>
        </mxCell>
        <mxCell id="YKZeA6OB_1HaBt14HI22-224" value="Email" style="shape=partialRectangle;connectable=0;fillColor=none;top=0;left=0;bottom=0;right=0;align=left;spacingLeft=6;overflow=hidden;whiteSpace=wrap;html=1;" parent="YKZeA6OB_1HaBt14HI22-222" vertex="1">
          <mxGeometry x="30" width="150" height="30" as="geometry">
            <mxRectangle width="150" height="30" as="alternateBounds" />
          </mxGeometry>
        </mxCell>
        <mxCell id="YKZeA6OB_1HaBt14HI22-228" style="shape=tableRow;horizontal=0;startSize=0;swimlaneHead=0;swimlaneBody=0;fillColor=none;collapsible=0;dropTarget=0;points=[[0,0.5],[1,0.5]];portConstraint=eastwest;top=0;left=0;right=0;bottom=0;" parent="YKZeA6OB_1HaBt14HI22-212" vertex="1">
          <mxGeometry y="150" width="180" height="30" as="geometry" />
        </mxCell>
        <mxCell id="YKZeA6OB_1HaBt14HI22-229" style="shape=partialRectangle;connectable=0;fillColor=none;top=0;left=0;bottom=0;right=0;editable=1;overflow=hidden;whiteSpace=wrap;html=1;" parent="YKZeA6OB_1HaBt14HI22-228" vertex="1">
          <mxGeometry width="30" height="30" as="geometry">
            <mxRectangle width="30" height="30" as="alternateBounds" />
          </mxGeometry>
        </mxCell>
        <mxCell id="YKZeA6OB_1HaBt14HI22-230" value="Role" style="shape=partialRectangle;connectable=0;fillColor=none;top=0;left=0;bottom=0;right=0;align=left;spacingLeft=6;overflow=hidden;whiteSpace=wrap;html=1;" parent="YKZeA6OB_1HaBt14HI22-228" vertex="1">
          <mxGeometry x="30" width="150" height="30" as="geometry">
            <mxRectangle width="150" height="30" as="alternateBounds" />
          </mxGeometry>
        </mxCell>
        <mxCell id="YKZeA6OB_1HaBt14HI22-231" value="Student" style="shape=table;startSize=30;container=1;collapsible=1;childLayout=tableLayout;fixedRows=1;rowLines=0;fontStyle=1;align=center;resizeLast=1;html=1;fillColor=#d5e8d4;strokeColor=#82b366;" parent="1" vertex="1">
          <mxGeometry x="449" y="938" width="163.75" height="90" as="geometry" />
        </mxCell>
        <mxCell id="YKZeA6OB_1HaBt14HI22-232" value="" style="shape=tableRow;horizontal=0;startSize=0;swimlaneHead=0;swimlaneBody=0;fillColor=none;collapsible=0;dropTarget=0;points=[[0,0.5],[1,0.5]];portConstraint=eastwest;top=0;left=0;right=0;bottom=1;" parent="YKZeA6OB_1HaBt14HI22-231" vertex="1">
          <mxGeometry y="30" width="163.75" height="30" as="geometry" />
        </mxCell>
        <mxCell id="YKZeA6OB_1HaBt14HI22-233" value="&lt;p class=&quot;MsoNormal&quot;&gt;PK, FK&lt;/p&gt;" style="shape=partialRectangle;connectable=0;fillColor=none;top=0;left=0;bottom=0;right=0;fontStyle=1;overflow=hidden;whiteSpace=wrap;html=1;" parent="YKZeA6OB_1HaBt14HI22-232" vertex="1">
          <mxGeometry width="57.75" height="30" as="geometry">
            <mxRectangle width="57.75" height="30" as="alternateBounds" />
          </mxGeometry>
        </mxCell>
        <mxCell id="YKZeA6OB_1HaBt14HI22-234" value="StudentId" style="shape=partialRectangle;connectable=0;fillColor=none;top=0;left=0;bottom=0;right=0;align=left;spacingLeft=6;fontStyle=5;overflow=hidden;whiteSpace=wrap;html=1;" parent="YKZeA6OB_1HaBt14HI22-232" vertex="1">
          <mxGeometry x="57.75" width="106" height="30" as="geometry">
            <mxRectangle width="106" height="30" as="alternateBounds" />
          </mxGeometry>
        </mxCell>
        <mxCell id="YKZeA6OB_1HaBt14HI22-235" value="" style="shape=tableRow;horizontal=0;startSize=0;swimlaneHead=0;swimlaneBody=0;fillColor=none;collapsible=0;dropTarget=0;points=[[0,0.5],[1,0.5]];portConstraint=eastwest;top=0;left=0;right=0;bottom=0;" parent="YKZeA6OB_1HaBt14HI22-231" vertex="1">
          <mxGeometry y="60" width="163.75" height="30" as="geometry" />
        </mxCell>
        <mxCell id="YKZeA6OB_1HaBt14HI22-236" value="&lt;b&gt;FK&lt;/b&gt;" style="shape=partialRectangle;connectable=0;fillColor=none;top=0;left=0;bottom=0;right=0;editable=1;overflow=hidden;whiteSpace=wrap;html=1;" parent="YKZeA6OB_1HaBt14HI22-235" vertex="1">
          <mxGeometry width="57.75" height="30" as="geometry">
            <mxRectangle width="57.75" height="30" as="alternateBounds" />
          </mxGeometry>
        </mxCell>
        <mxCell id="YKZeA6OB_1HaBt14HI22-237" value="IntakeId" style="shape=partialRectangle;connectable=0;fillColor=none;top=0;left=0;bottom=0;right=0;align=left;spacingLeft=6;overflow=hidden;whiteSpace=wrap;html=1;" parent="YKZeA6OB_1HaBt14HI22-235" vertex="1">
          <mxGeometry x="57.75" width="106" height="30" as="geometry">
            <mxRectangle width="106" height="30" as="alternateBounds" />
          </mxGeometry>
        </mxCell>
        <mxCell id="YKZeA6OB_1HaBt14HI22-238" value="" style="edgeStyle=orthogonalEdgeStyle;rounded=0;orthogonalLoop=1;jettySize=auto;html=1;fontSize=12;startSize=8;endSize=8;endArrow=ERmany;endFill=0;startArrow=ERone;startFill=0;" parent="1" source="YKZeA6OB_1HaBt14HI22-239" target="YKZeA6OB_1HaBt14HI22-247" edge="1">
          <mxGeometry relative="1" as="geometry" />
        </mxCell>
        <mxCell id="YKZeA6OB_1HaBt14HI22-239" value="Departement" style="shape=table;startSize=30;container=1;collapsible=1;childLayout=tableLayout;fixedRows=1;rowLines=0;fontStyle=1;align=center;resizeLast=1;html=1;fillColor=#d5e8d4;strokeColor=#82b366;" parent="1" vertex="1">
          <mxGeometry x="-413" y="979" width="180" height="90" as="geometry" />
        </mxCell>
        <mxCell id="YKZeA6OB_1HaBt14HI22-240" value="" style="shape=tableRow;horizontal=0;startSize=0;swimlaneHead=0;swimlaneBody=0;fillColor=none;collapsible=0;dropTarget=0;points=[[0,0.5],[1,0.5]];portConstraint=eastwest;top=0;left=0;right=0;bottom=1;" parent="YKZeA6OB_1HaBt14HI22-239" vertex="1">
          <mxGeometry y="30" width="180" height="30" as="geometry" />
        </mxCell>
        <mxCell id="YKZeA6OB_1HaBt14HI22-241" value="PK" style="shape=partialRectangle;connectable=0;fillColor=none;top=0;left=0;bottom=0;right=0;fontStyle=1;overflow=hidden;whiteSpace=wrap;html=1;" parent="YKZeA6OB_1HaBt14HI22-240" vertex="1">
          <mxGeometry width="30" height="30" as="geometry">
            <mxRectangle width="30" height="30" as="alternateBounds" />
          </mxGeometry>
        </mxCell>
        <mxCell id="YKZeA6OB_1HaBt14HI22-242" value="DepartementId" style="shape=partialRectangle;connectable=0;fillColor=none;top=0;left=0;bottom=0;right=0;align=left;spacingLeft=6;fontStyle=5;overflow=hidden;whiteSpace=wrap;html=1;" parent="YKZeA6OB_1HaBt14HI22-240" vertex="1">
          <mxGeometry x="30" width="150" height="30" as="geometry">
            <mxRectangle width="150" height="30" as="alternateBounds" />
          </mxGeometry>
        </mxCell>
        <mxCell id="YKZeA6OB_1HaBt14HI22-243" value="" style="shape=tableRow;horizontal=0;startSize=0;swimlaneHead=0;swimlaneBody=0;fillColor=none;collapsible=0;dropTarget=0;points=[[0,0.5],[1,0.5]];portConstraint=eastwest;top=0;left=0;right=0;bottom=0;" parent="YKZeA6OB_1HaBt14HI22-239" vertex="1">
          <mxGeometry y="60" width="180" height="30" as="geometry" />
        </mxCell>
        <mxCell id="YKZeA6OB_1HaBt14HI22-244" value="" style="shape=partialRectangle;connectable=0;fillColor=none;top=0;left=0;bottom=0;right=0;editable=1;overflow=hidden;whiteSpace=wrap;html=1;" parent="YKZeA6OB_1HaBt14HI22-243" vertex="1">
          <mxGeometry width="30" height="30" as="geometry">
            <mxRectangle width="30" height="30" as="alternateBounds" />
          </mxGeometry>
        </mxCell>
        <mxCell id="YKZeA6OB_1HaBt14HI22-245" value="DepartementName" style="shape=partialRectangle;connectable=0;fillColor=none;top=0;left=0;bottom=0;right=0;align=left;spacingLeft=6;overflow=hidden;whiteSpace=wrap;html=1;" parent="YKZeA6OB_1HaBt14HI22-243" vertex="1">
          <mxGeometry x="30" width="150" height="30" as="geometry">
            <mxRectangle width="150" height="30" as="alternateBounds" />
          </mxGeometry>
        </mxCell>
        <mxCell id="YKZeA6OB_1HaBt14HI22-246" value="" style="edgeStyle=orthogonalEdgeStyle;rounded=0;orthogonalLoop=1;jettySize=auto;html=1;strokeColor=default;align=center;verticalAlign=middle;fontFamily=Helvetica;fontSize=12;fontColor=default;labelBackgroundColor=default;startSize=8;endArrow=ERmany;endFill=0;endSize=8;startArrow=ERone;startFill=0;" parent="1" source="YKZeA6OB_1HaBt14HI22-247" target="YKZeA6OB_1HaBt14HI22-258" edge="1">
          <mxGeometry relative="1" as="geometry" />
        </mxCell>
        <mxCell id="YKZeA6OB_1HaBt14HI22-247" value="Bracnh" style="shape=table;startSize=30;container=1;collapsible=1;childLayout=tableLayout;fixedRows=1;rowLines=0;fontStyle=1;align=center;resizeLast=1;html=1;fillColor=#d5e8d4;strokeColor=#82b366;" parent="1" vertex="1">
          <mxGeometry x="-412" y="1231" width="180" height="120" as="geometry" />
        </mxCell>
        <mxCell id="YKZeA6OB_1HaBt14HI22-248" value="" style="shape=tableRow;horizontal=0;startSize=0;swimlaneHead=0;swimlaneBody=0;fillColor=none;collapsible=0;dropTarget=0;points=[[0,0.5],[1,0.5]];portConstraint=eastwest;top=0;left=0;right=0;bottom=1;" parent="YKZeA6OB_1HaBt14HI22-247" vertex="1">
          <mxGeometry y="30" width="180" height="30" as="geometry" />
        </mxCell>
        <mxCell id="YKZeA6OB_1HaBt14HI22-249" value="PK" style="shape=partialRectangle;connectable=0;fillColor=none;top=0;left=0;bottom=0;right=0;fontStyle=1;overflow=hidden;whiteSpace=wrap;html=1;" parent="YKZeA6OB_1HaBt14HI22-248" vertex="1">
          <mxGeometry width="30" height="30" as="geometry">
            <mxRectangle width="30" height="30" as="alternateBounds" />
          </mxGeometry>
        </mxCell>
        <mxCell id="YKZeA6OB_1HaBt14HI22-250" value="BranchId" style="shape=partialRectangle;connectable=0;fillColor=none;top=0;left=0;bottom=0;right=0;align=left;spacingLeft=6;fontStyle=5;overflow=hidden;whiteSpace=wrap;html=1;" parent="YKZeA6OB_1HaBt14HI22-248" vertex="1">
          <mxGeometry x="30" width="150" height="30" as="geometry">
            <mxRectangle width="150" height="30" as="alternateBounds" />
          </mxGeometry>
        </mxCell>
        <mxCell id="YKZeA6OB_1HaBt14HI22-251" value="" style="shape=tableRow;horizontal=0;startSize=0;swimlaneHead=0;swimlaneBody=0;fillColor=none;collapsible=0;dropTarget=0;points=[[0,0.5],[1,0.5]];portConstraint=eastwest;top=0;left=0;right=0;bottom=0;" parent="YKZeA6OB_1HaBt14HI22-247" vertex="1">
          <mxGeometry y="60" width="180" height="30" as="geometry" />
        </mxCell>
        <mxCell id="YKZeA6OB_1HaBt14HI22-252" value="" style="shape=partialRectangle;connectable=0;fillColor=none;top=0;left=0;bottom=0;right=0;editable=1;overflow=hidden;whiteSpace=wrap;html=1;" parent="YKZeA6OB_1HaBt14HI22-251" vertex="1">
          <mxGeometry width="30" height="30" as="geometry">
            <mxRectangle width="30" height="30" as="alternateBounds" />
          </mxGeometry>
        </mxCell>
        <mxCell id="YKZeA6OB_1HaBt14HI22-253" value="BranchName" style="shape=partialRectangle;connectable=0;fillColor=none;top=0;left=0;bottom=0;right=0;align=left;spacingLeft=6;overflow=hidden;whiteSpace=wrap;html=1;" parent="YKZeA6OB_1HaBt14HI22-251" vertex="1">
          <mxGeometry x="30" width="150" height="30" as="geometry">
            <mxRectangle width="150" height="30" as="alternateBounds" />
          </mxGeometry>
        </mxCell>
        <mxCell id="YKZeA6OB_1HaBt14HI22-254" style="shape=tableRow;horizontal=0;startSize=0;swimlaneHead=0;swimlaneBody=0;fillColor=none;collapsible=0;dropTarget=0;points=[[0,0.5],[1,0.5]];portConstraint=eastwest;top=0;left=0;right=0;bottom=0;" parent="YKZeA6OB_1HaBt14HI22-247" vertex="1">
          <mxGeometry y="90" width="180" height="30" as="geometry" />
        </mxCell>
        <mxCell id="YKZeA6OB_1HaBt14HI22-255" value="&lt;b&gt;FK&lt;/b&gt;" style="shape=partialRectangle;connectable=0;fillColor=none;top=0;left=0;bottom=0;right=0;editable=1;overflow=hidden;whiteSpace=wrap;html=1;" parent="YKZeA6OB_1HaBt14HI22-254" vertex="1">
          <mxGeometry width="30" height="30" as="geometry">
            <mxRectangle width="30" height="30" as="alternateBounds" />
          </mxGeometry>
        </mxCell>
        <mxCell id="YKZeA6OB_1HaBt14HI22-256" value="DepartementId" style="shape=partialRectangle;connectable=0;fillColor=none;top=0;left=0;bottom=0;right=0;align=left;spacingLeft=6;overflow=hidden;whiteSpace=wrap;html=1;" parent="YKZeA6OB_1HaBt14HI22-254" vertex="1">
          <mxGeometry x="30" width="150" height="30" as="geometry">
            <mxRectangle width="150" height="30" as="alternateBounds" />
          </mxGeometry>
        </mxCell>
        <mxCell id="YKZeA6OB_1HaBt14HI22-257" value="" style="edgeStyle=orthogonalEdgeStyle;rounded=0;orthogonalLoop=1;jettySize=auto;html=1;strokeColor=default;align=center;verticalAlign=middle;fontFamily=Helvetica;fontSize=12;fontColor=default;labelBackgroundColor=default;startArrow=ERone;startFill=0;startSize=8;endArrow=ERmany;endFill=0;endSize=8;" parent="1" source="YKZeA6OB_1HaBt14HI22-258" target="YKZeA6OB_1HaBt14HI22-268" edge="1">
          <mxGeometry relative="1" as="geometry" />
        </mxCell>
        <mxCell id="YKZeA6OB_1HaBt14HI22-258" value="Track" style="shape=table;startSize=30;container=1;collapsible=1;childLayout=tableLayout;fixedRows=1;rowLines=0;fontStyle=1;align=center;resizeLast=1;html=1;fillColor=#d5e8d4;strokeColor=#82b366;" parent="1" vertex="1">
          <mxGeometry x="-112" y="1231" width="180" height="120" as="geometry" />
        </mxCell>
        <mxCell id="YKZeA6OB_1HaBt14HI22-259" value="" style="shape=tableRow;horizontal=0;startSize=0;swimlaneHead=0;swimlaneBody=0;fillColor=none;collapsible=0;dropTarget=0;points=[[0,0.5],[1,0.5]];portConstraint=eastwest;top=0;left=0;right=0;bottom=1;" parent="YKZeA6OB_1HaBt14HI22-258" vertex="1">
          <mxGeometry y="30" width="180" height="30" as="geometry" />
        </mxCell>
        <mxCell id="YKZeA6OB_1HaBt14HI22-260" value="PK" style="shape=partialRectangle;connectable=0;fillColor=none;top=0;left=0;bottom=0;right=0;fontStyle=1;overflow=hidden;whiteSpace=wrap;html=1;" parent="YKZeA6OB_1HaBt14HI22-259" vertex="1">
          <mxGeometry width="30" height="30" as="geometry">
            <mxRectangle width="30" height="30" as="alternateBounds" />
          </mxGeometry>
        </mxCell>
        <mxCell id="YKZeA6OB_1HaBt14HI22-261" value="TrackId" style="shape=partialRectangle;connectable=0;fillColor=none;top=0;left=0;bottom=0;right=0;align=left;spacingLeft=6;fontStyle=5;overflow=hidden;whiteSpace=wrap;html=1;" parent="YKZeA6OB_1HaBt14HI22-259" vertex="1">
          <mxGeometry x="30" width="150" height="30" as="geometry">
            <mxRectangle width="150" height="30" as="alternateBounds" />
          </mxGeometry>
        </mxCell>
        <mxCell id="YKZeA6OB_1HaBt14HI22-262" value="" style="shape=tableRow;horizontal=0;startSize=0;swimlaneHead=0;swimlaneBody=0;fillColor=none;collapsible=0;dropTarget=0;points=[[0,0.5],[1,0.5]];portConstraint=eastwest;top=0;left=0;right=0;bottom=0;" parent="YKZeA6OB_1HaBt14HI22-258" vertex="1">
          <mxGeometry y="60" width="180" height="30" as="geometry" />
        </mxCell>
        <mxCell id="YKZeA6OB_1HaBt14HI22-263" value="" style="shape=partialRectangle;connectable=0;fillColor=none;top=0;left=0;bottom=0;right=0;editable=1;overflow=hidden;whiteSpace=wrap;html=1;" parent="YKZeA6OB_1HaBt14HI22-262" vertex="1">
          <mxGeometry width="30" height="30" as="geometry">
            <mxRectangle width="30" height="30" as="alternateBounds" />
          </mxGeometry>
        </mxCell>
        <mxCell id="YKZeA6OB_1HaBt14HI22-264" value="TrackName" style="shape=partialRectangle;connectable=0;fillColor=none;top=0;left=0;bottom=0;right=0;align=left;spacingLeft=6;overflow=hidden;whiteSpace=wrap;html=1;" parent="YKZeA6OB_1HaBt14HI22-262" vertex="1">
          <mxGeometry x="30" width="150" height="30" as="geometry">
            <mxRectangle width="150" height="30" as="alternateBounds" />
          </mxGeometry>
        </mxCell>
        <mxCell id="YKZeA6OB_1HaBt14HI22-265" style="shape=tableRow;horizontal=0;startSize=0;swimlaneHead=0;swimlaneBody=0;fillColor=none;collapsible=0;dropTarget=0;points=[[0,0.5],[1,0.5]];portConstraint=eastwest;top=0;left=0;right=0;bottom=0;" parent="YKZeA6OB_1HaBt14HI22-258" vertex="1">
          <mxGeometry y="90" width="180" height="30" as="geometry" />
        </mxCell>
        <mxCell id="YKZeA6OB_1HaBt14HI22-266" value="&lt;b&gt;FK&lt;/b&gt;" style="shape=partialRectangle;connectable=0;fillColor=none;top=0;left=0;bottom=0;right=0;editable=1;overflow=hidden;whiteSpace=wrap;html=1;" parent="YKZeA6OB_1HaBt14HI22-265" vertex="1">
          <mxGeometry width="30" height="30" as="geometry">
            <mxRectangle width="30" height="30" as="alternateBounds" />
          </mxGeometry>
        </mxCell>
        <mxCell id="YKZeA6OB_1HaBt14HI22-267" value="BranchId" style="shape=partialRectangle;connectable=0;fillColor=none;top=0;left=0;bottom=0;right=0;align=left;spacingLeft=6;overflow=hidden;whiteSpace=wrap;html=1;" parent="YKZeA6OB_1HaBt14HI22-265" vertex="1">
          <mxGeometry x="30" width="150" height="30" as="geometry">
            <mxRectangle width="150" height="30" as="alternateBounds" />
          </mxGeometry>
        </mxCell>
        <mxCell id="YKZeA6OB_1HaBt14HI22-268" value="IntackeId" style="shape=table;startSize=30;container=1;collapsible=1;childLayout=tableLayout;fixedRows=1;rowLines=0;fontStyle=1;align=center;resizeLast=1;html=1;fillColor=#d5e8d4;strokeColor=#82b366;" parent="1" vertex="1">
          <mxGeometry x="188" y="1202" width="180" height="180" as="geometry" />
        </mxCell>
        <mxCell id="YKZeA6OB_1HaBt14HI22-269" value="" style="shape=tableRow;horizontal=0;startSize=0;swimlaneHead=0;swimlaneBody=0;fillColor=none;collapsible=0;dropTarget=0;points=[[0,0.5],[1,0.5]];portConstraint=eastwest;top=0;left=0;right=0;bottom=1;" parent="YKZeA6OB_1HaBt14HI22-268" vertex="1">
          <mxGeometry y="30" width="180" height="30" as="geometry" />
        </mxCell>
        <mxCell id="YKZeA6OB_1HaBt14HI22-270" value="PK" style="shape=partialRectangle;connectable=0;fillColor=none;top=0;left=0;bottom=0;right=0;fontStyle=1;overflow=hidden;whiteSpace=wrap;html=1;" parent="YKZeA6OB_1HaBt14HI22-269" vertex="1">
          <mxGeometry width="30" height="30" as="geometry">
            <mxRectangle width="30" height="30" as="alternateBounds" />
          </mxGeometry>
        </mxCell>
        <mxCell id="YKZeA6OB_1HaBt14HI22-271" value="IntakeId" style="shape=partialRectangle;connectable=0;fillColor=none;top=0;left=0;bottom=0;right=0;align=left;spacingLeft=6;fontStyle=5;overflow=hidden;whiteSpace=wrap;html=1;" parent="YKZeA6OB_1HaBt14HI22-269" vertex="1">
          <mxGeometry x="30" width="150" height="30" as="geometry">
            <mxRectangle width="150" height="30" as="alternateBounds" />
          </mxGeometry>
        </mxCell>
        <mxCell id="YKZeA6OB_1HaBt14HI22-272" value="" style="shape=tableRow;horizontal=0;startSize=0;swimlaneHead=0;swimlaneBody=0;fillColor=none;collapsible=0;dropTarget=0;points=[[0,0.5],[1,0.5]];portConstraint=eastwest;top=0;left=0;right=0;bottom=0;" parent="YKZeA6OB_1HaBt14HI22-268" vertex="1">
          <mxGeometry y="60" width="180" height="30" as="geometry" />
        </mxCell>
        <mxCell id="YKZeA6OB_1HaBt14HI22-273" value="" style="shape=partialRectangle;connectable=0;fillColor=none;top=0;left=0;bottom=0;right=0;editable=1;overflow=hidden;whiteSpace=wrap;html=1;" parent="YKZeA6OB_1HaBt14HI22-272" vertex="1">
          <mxGeometry width="30" height="30" as="geometry">
            <mxRectangle width="30" height="30" as="alternateBounds" />
          </mxGeometry>
        </mxCell>
        <mxCell id="YKZeA6OB_1HaBt14HI22-274" value="IntakeName" style="shape=partialRectangle;connectable=0;fillColor=none;top=0;left=0;bottom=0;right=0;align=left;spacingLeft=6;overflow=hidden;whiteSpace=wrap;html=1;" parent="YKZeA6OB_1HaBt14HI22-272" vertex="1">
          <mxGeometry x="30" width="150" height="30" as="geometry">
            <mxRectangle width="150" height="30" as="alternateBounds" />
          </mxGeometry>
        </mxCell>
        <mxCell id="YKZeA6OB_1HaBt14HI22-275" style="shape=tableRow;horizontal=0;startSize=0;swimlaneHead=0;swimlaneBody=0;fillColor=none;collapsible=0;dropTarget=0;points=[[0,0.5],[1,0.5]];portConstraint=eastwest;top=0;left=0;right=0;bottom=0;" parent="YKZeA6OB_1HaBt14HI22-268" vertex="1">
          <mxGeometry y="90" width="180" height="30" as="geometry" />
        </mxCell>
        <mxCell id="YKZeA6OB_1HaBt14HI22-276" value="" style="shape=partialRectangle;connectable=0;fillColor=none;top=0;left=0;bottom=0;right=0;editable=1;overflow=hidden;whiteSpace=wrap;html=1;" parent="YKZeA6OB_1HaBt14HI22-275" vertex="1">
          <mxGeometry width="30" height="30" as="geometry">
            <mxRectangle width="30" height="30" as="alternateBounds" />
          </mxGeometry>
        </mxCell>
        <mxCell id="YKZeA6OB_1HaBt14HI22-277" value="StartDate" style="shape=partialRectangle;connectable=0;fillColor=none;top=0;left=0;bottom=0;right=0;align=left;spacingLeft=6;overflow=hidden;whiteSpace=wrap;html=1;" parent="YKZeA6OB_1HaBt14HI22-275" vertex="1">
          <mxGeometry x="30" width="150" height="30" as="geometry">
            <mxRectangle width="150" height="30" as="alternateBounds" />
          </mxGeometry>
        </mxCell>
        <mxCell id="YKZeA6OB_1HaBt14HI22-278" style="shape=tableRow;horizontal=0;startSize=0;swimlaneHead=0;swimlaneBody=0;fillColor=none;collapsible=0;dropTarget=0;points=[[0,0.5],[1,0.5]];portConstraint=eastwest;top=0;left=0;right=0;bottom=0;" parent="YKZeA6OB_1HaBt14HI22-268" vertex="1">
          <mxGeometry y="120" width="180" height="30" as="geometry" />
        </mxCell>
        <mxCell id="YKZeA6OB_1HaBt14HI22-279" value="" style="shape=partialRectangle;connectable=0;fillColor=none;top=0;left=0;bottom=0;right=0;editable=1;overflow=hidden;whiteSpace=wrap;html=1;" parent="YKZeA6OB_1HaBt14HI22-278" vertex="1">
          <mxGeometry width="30" height="30" as="geometry">
            <mxRectangle width="30" height="30" as="alternateBounds" />
          </mxGeometry>
        </mxCell>
        <mxCell id="YKZeA6OB_1HaBt14HI22-280" value="EndDate" style="shape=partialRectangle;connectable=0;fillColor=none;top=0;left=0;bottom=0;right=0;align=left;spacingLeft=6;overflow=hidden;whiteSpace=wrap;html=1;" parent="YKZeA6OB_1HaBt14HI22-278" vertex="1">
          <mxGeometry x="30" width="150" height="30" as="geometry">
            <mxRectangle width="150" height="30" as="alternateBounds" />
          </mxGeometry>
        </mxCell>
        <mxCell id="YKZeA6OB_1HaBt14HI22-281" style="shape=tableRow;horizontal=0;startSize=0;swimlaneHead=0;swimlaneBody=0;fillColor=none;collapsible=0;dropTarget=0;points=[[0,0.5],[1,0.5]];portConstraint=eastwest;top=0;left=0;right=0;bottom=0;" parent="YKZeA6OB_1HaBt14HI22-268" vertex="1">
          <mxGeometry y="150" width="180" height="30" as="geometry" />
        </mxCell>
        <mxCell id="YKZeA6OB_1HaBt14HI22-282" value="&lt;b&gt;FK&lt;/b&gt;" style="shape=partialRectangle;connectable=0;fillColor=none;top=0;left=0;bottom=0;right=0;editable=1;overflow=hidden;whiteSpace=wrap;html=1;" parent="YKZeA6OB_1HaBt14HI22-281" vertex="1">
          <mxGeometry width="30" height="30" as="geometry">
            <mxRectangle width="30" height="30" as="alternateBounds" />
          </mxGeometry>
        </mxCell>
        <mxCell id="YKZeA6OB_1HaBt14HI22-283" value="TrackID" style="shape=partialRectangle;connectable=0;fillColor=none;top=0;left=0;bottom=0;right=0;align=left;spacingLeft=6;overflow=hidden;whiteSpace=wrap;html=1;" parent="YKZeA6OB_1HaBt14HI22-281" vertex="1">
          <mxGeometry x="30" width="150" height="30" as="geometry">
            <mxRectangle width="150" height="30" as="alternateBounds" />
          </mxGeometry>
        </mxCell>
        <mxCell id="YKZeA6OB_1HaBt14HI22-284" style="edgeStyle=orthogonalEdgeStyle;rounded=0;orthogonalLoop=1;jettySize=auto;html=1;entryX=0;entryY=0.5;entryDx=0;entryDy=0;strokeColor=default;align=center;verticalAlign=middle;fontFamily=Helvetica;fontSize=12;fontColor=default;labelBackgroundColor=default;startArrow=ERone;startFill=0;startSize=8;endArrow=ERmany;endFill=0;endSize=8;" parent="1" source="YKZeA6OB_1HaBt14HI22-269" target="YKZeA6OB_1HaBt14HI22-235" edge="1">
          <mxGeometry relative="1" as="geometry" />
        </mxCell>
        <mxCell id="YKZeA6OB_1HaBt14HI22-285" style="edgeStyle=orthogonalEdgeStyle;rounded=0;orthogonalLoop=1;jettySize=auto;html=1;entryX=0;entryY=0.5;entryDx=0;entryDy=0;strokeColor=default;align=center;verticalAlign=middle;fontFamily=Helvetica;fontSize=12;fontColor=default;labelBackgroundColor=default;startArrow=ERone;startFill=0;startSize=8;endArrow=ERmany;endFill=0;endSize=8;" parent="1" source="YKZeA6OB_1HaBt14HI22-213" target="YKZeA6OB_1HaBt14HI22-232" edge="1">
          <mxGeometry relative="1" as="geometry">
            <Array as="points">
              <mxPoint x="423" y="564" />
              <mxPoint x="423" y="983" />
            </Array>
          </mxGeometry>
        </mxCell>
        <mxCell id="YKZeA6OB_1HaBt14HI22-286" value="" style="edgeStyle=orthogonalEdgeStyle;rounded=0;orthogonalLoop=1;jettySize=auto;html=1;strokeColor=default;align=center;verticalAlign=middle;fontFamily=Helvetica;fontSize=12;fontColor=default;labelBackgroundColor=default;startArrow=ERone;startFill=0;startSize=8;endArrow=ERmany;endFill=0;endSize=8;entryX=0;entryY=0.5;entryDx=0;entryDy=0;" parent="1" source="YKZeA6OB_1HaBt14HI22-287" target="YKZeA6OB_1HaBt14HI22-325" edge="1">
          <mxGeometry relative="1" as="geometry" />
        </mxCell>
        <mxCell id="YKZeA6OB_1HaBt14HI22-287" value="Course" style="shape=table;startSize=30;container=1;collapsible=1;childLayout=tableLayout;fixedRows=1;rowLines=0;fontStyle=1;align=center;resizeLast=1;html=1;fillColor=#d5e8d4;strokeColor=#82b366;" parent="1" vertex="1">
          <mxGeometry x="717" y="504" width="180" height="180" as="geometry" />
        </mxCell>
        <mxCell id="YKZeA6OB_1HaBt14HI22-288" value="" style="shape=tableRow;horizontal=0;startSize=0;swimlaneHead=0;swimlaneBody=0;fillColor=none;collapsible=0;dropTarget=0;points=[[0,0.5],[1,0.5]];portConstraint=eastwest;top=0;left=0;right=0;bottom=1;" parent="YKZeA6OB_1HaBt14HI22-287" vertex="1">
          <mxGeometry y="30" width="180" height="30" as="geometry" />
        </mxCell>
        <mxCell id="YKZeA6OB_1HaBt14HI22-289" value="PK" style="shape=partialRectangle;connectable=0;fillColor=none;top=0;left=0;bottom=0;right=0;fontStyle=1;overflow=hidden;whiteSpace=wrap;html=1;" parent="YKZeA6OB_1HaBt14HI22-288" vertex="1">
          <mxGeometry width="30" height="30" as="geometry">
            <mxRectangle width="30" height="30" as="alternateBounds" />
          </mxGeometry>
        </mxCell>
        <mxCell id="YKZeA6OB_1HaBt14HI22-290" value="CourseId" style="shape=partialRectangle;connectable=0;fillColor=none;top=0;left=0;bottom=0;right=0;align=left;spacingLeft=6;fontStyle=5;overflow=hidden;whiteSpace=wrap;html=1;" parent="YKZeA6OB_1HaBt14HI22-288" vertex="1">
          <mxGeometry x="30" width="150" height="30" as="geometry">
            <mxRectangle width="150" height="30" as="alternateBounds" />
          </mxGeometry>
        </mxCell>
        <mxCell id="YKZeA6OB_1HaBt14HI22-291" value="" style="shape=tableRow;horizontal=0;startSize=0;swimlaneHead=0;swimlaneBody=0;fillColor=none;collapsible=0;dropTarget=0;points=[[0,0.5],[1,0.5]];portConstraint=eastwest;top=0;left=0;right=0;bottom=0;" parent="YKZeA6OB_1HaBt14HI22-287" vertex="1">
          <mxGeometry y="60" width="180" height="30" as="geometry" />
        </mxCell>
        <mxCell id="YKZeA6OB_1HaBt14HI22-292" value="" style="shape=partialRectangle;connectable=0;fillColor=none;top=0;left=0;bottom=0;right=0;editable=1;overflow=hidden;whiteSpace=wrap;html=1;" parent="YKZeA6OB_1HaBt14HI22-291" vertex="1">
          <mxGeometry width="30" height="30" as="geometry">
            <mxRectangle width="30" height="30" as="alternateBounds" />
          </mxGeometry>
        </mxCell>
        <mxCell id="YKZeA6OB_1HaBt14HI22-293" value="CourseName" style="shape=partialRectangle;connectable=0;fillColor=none;top=0;left=0;bottom=0;right=0;align=left;spacingLeft=6;overflow=hidden;whiteSpace=wrap;html=1;" parent="YKZeA6OB_1HaBt14HI22-291" vertex="1">
          <mxGeometry x="30" width="150" height="30" as="geometry">
            <mxRectangle width="150" height="30" as="alternateBounds" />
          </mxGeometry>
        </mxCell>
        <mxCell id="YKZeA6OB_1HaBt14HI22-294" value="" style="shape=tableRow;horizontal=0;startSize=0;swimlaneHead=0;swimlaneBody=0;fillColor=none;collapsible=0;dropTarget=0;points=[[0,0.5],[1,0.5]];portConstraint=eastwest;top=0;left=0;right=0;bottom=0;" parent="YKZeA6OB_1HaBt14HI22-287" vertex="1">
          <mxGeometry y="90" width="180" height="30" as="geometry" />
        </mxCell>
        <mxCell id="YKZeA6OB_1HaBt14HI22-295" value="" style="shape=partialRectangle;connectable=0;fillColor=none;top=0;left=0;bottom=0;right=0;editable=1;overflow=hidden;whiteSpace=wrap;html=1;" parent="YKZeA6OB_1HaBt14HI22-294" vertex="1">
          <mxGeometry width="30" height="30" as="geometry">
            <mxRectangle width="30" height="30" as="alternateBounds" />
          </mxGeometry>
        </mxCell>
        <mxCell id="YKZeA6OB_1HaBt14HI22-296" value="CourseDescription" style="shape=partialRectangle;connectable=0;fillColor=none;top=0;left=0;bottom=0;right=0;align=left;spacingLeft=6;overflow=hidden;whiteSpace=wrap;html=1;" parent="YKZeA6OB_1HaBt14HI22-294" vertex="1">
          <mxGeometry x="30" width="150" height="30" as="geometry">
            <mxRectangle width="150" height="30" as="alternateBounds" />
          </mxGeometry>
        </mxCell>
        <mxCell id="YKZeA6OB_1HaBt14HI22-297" value="" style="shape=tableRow;horizontal=0;startSize=0;swimlaneHead=0;swimlaneBody=0;fillColor=none;collapsible=0;dropTarget=0;points=[[0,0.5],[1,0.5]];portConstraint=eastwest;top=0;left=0;right=0;bottom=0;" parent="YKZeA6OB_1HaBt14HI22-287" vertex="1">
          <mxGeometry y="120" width="180" height="30" as="geometry" />
        </mxCell>
        <mxCell id="YKZeA6OB_1HaBt14HI22-298" value="" style="shape=partialRectangle;connectable=0;fillColor=none;top=0;left=0;bottom=0;right=0;editable=1;overflow=hidden;whiteSpace=wrap;html=1;" parent="YKZeA6OB_1HaBt14HI22-297" vertex="1">
          <mxGeometry width="30" height="30" as="geometry">
            <mxRectangle width="30" height="30" as="alternateBounds" />
          </mxGeometry>
        </mxCell>
        <mxCell id="YKZeA6OB_1HaBt14HI22-299" value="CourseMaxDegree" style="shape=partialRectangle;connectable=0;fillColor=none;top=0;left=0;bottom=0;right=0;align=left;spacingLeft=6;overflow=hidden;whiteSpace=wrap;html=1;" parent="YKZeA6OB_1HaBt14HI22-297" vertex="1">
          <mxGeometry x="30" width="150" height="30" as="geometry">
            <mxRectangle width="150" height="30" as="alternateBounds" />
          </mxGeometry>
        </mxCell>
        <mxCell id="YKZeA6OB_1HaBt14HI22-300" style="shape=tableRow;horizontal=0;startSize=0;swimlaneHead=0;swimlaneBody=0;fillColor=none;collapsible=0;dropTarget=0;points=[[0,0.5],[1,0.5]];portConstraint=eastwest;top=0;left=0;right=0;bottom=0;" parent="YKZeA6OB_1HaBt14HI22-287" vertex="1">
          <mxGeometry y="150" width="180" height="30" as="geometry" />
        </mxCell>
        <mxCell id="YKZeA6OB_1HaBt14HI22-301" style="shape=partialRectangle;connectable=0;fillColor=none;top=0;left=0;bottom=0;right=0;editable=1;overflow=hidden;whiteSpace=wrap;html=1;" parent="YKZeA6OB_1HaBt14HI22-300" vertex="1">
          <mxGeometry width="30" height="30" as="geometry">
            <mxRectangle width="30" height="30" as="alternateBounds" />
          </mxGeometry>
        </mxCell>
        <mxCell id="YKZeA6OB_1HaBt14HI22-302" value="CourseMin&lt;span style=&quot;background-color: initial;&quot;&gt;Degree&lt;/span&gt;" style="shape=partialRectangle;connectable=0;fillColor=none;top=0;left=0;bottom=0;right=0;align=left;spacingLeft=6;overflow=hidden;whiteSpace=wrap;html=1;" parent="YKZeA6OB_1HaBt14HI22-300" vertex="1">
          <mxGeometry x="30" width="150" height="30" as="geometry">
            <mxRectangle width="150" height="30" as="alternateBounds" />
          </mxGeometry>
        </mxCell>
        <mxCell id="YKZeA6OB_1HaBt14HI22-306" value="Question" style="shape=table;startSize=30;container=1;collapsible=1;childLayout=tableLayout;fixedRows=1;rowLines=0;fontStyle=1;align=center;resizeLast=1;html=1;fillColor=#d5e8d4;strokeColor=#82b366;" parent="1" vertex="1">
          <mxGeometry x="1024" y="295" width="180" height="240" as="geometry" />
        </mxCell>
        <mxCell id="YKZeA6OB_1HaBt14HI22-307" value="" style="shape=tableRow;horizontal=0;startSize=0;swimlaneHead=0;swimlaneBody=0;fillColor=none;collapsible=0;dropTarget=0;points=[[0,0.5],[1,0.5]];portConstraint=eastwest;top=0;left=0;right=0;bottom=1;" parent="YKZeA6OB_1HaBt14HI22-306" vertex="1">
          <mxGeometry y="30" width="180" height="30" as="geometry" />
        </mxCell>
        <mxCell id="YKZeA6OB_1HaBt14HI22-308" value="PK" style="shape=partialRectangle;connectable=0;fillColor=none;top=0;left=0;bottom=0;right=0;fontStyle=1;overflow=hidden;whiteSpace=wrap;html=1;" parent="YKZeA6OB_1HaBt14HI22-307" vertex="1">
          <mxGeometry width="30" height="30" as="geometry">
            <mxRectangle width="30" height="30" as="alternateBounds" />
          </mxGeometry>
        </mxCell>
        <mxCell id="YKZeA6OB_1HaBt14HI22-309" value="QuestionId" style="shape=partialRectangle;connectable=0;fillColor=none;top=0;left=0;bottom=0;right=0;align=left;spacingLeft=6;fontStyle=5;overflow=hidden;whiteSpace=wrap;html=1;" parent="YKZeA6OB_1HaBt14HI22-307" vertex="1">
          <mxGeometry x="30" width="150" height="30" as="geometry">
            <mxRectangle width="150" height="30" as="alternateBounds" />
          </mxGeometry>
        </mxCell>
        <mxCell id="YKZeA6OB_1HaBt14HI22-310" value="" style="shape=tableRow;horizontal=0;startSize=0;swimlaneHead=0;swimlaneBody=0;fillColor=none;collapsible=0;dropTarget=0;points=[[0,0.5],[1,0.5]];portConstraint=eastwest;top=0;left=0;right=0;bottom=0;" parent="YKZeA6OB_1HaBt14HI22-306" vertex="1">
          <mxGeometry y="60" width="180" height="30" as="geometry" />
        </mxCell>
        <mxCell id="YKZeA6OB_1HaBt14HI22-311" value="" style="shape=partialRectangle;connectable=0;fillColor=none;top=0;left=0;bottom=0;right=0;editable=1;overflow=hidden;whiteSpace=wrap;html=1;" parent="YKZeA6OB_1HaBt14HI22-310" vertex="1">
          <mxGeometry width="30" height="30" as="geometry">
            <mxRectangle width="30" height="30" as="alternateBounds" />
          </mxGeometry>
        </mxCell>
        <mxCell id="YKZeA6OB_1HaBt14HI22-312" value="QuestionName" style="shape=partialRectangle;connectable=0;fillColor=none;top=0;left=0;bottom=0;right=0;align=left;spacingLeft=6;overflow=hidden;whiteSpace=wrap;html=1;" parent="YKZeA6OB_1HaBt14HI22-310" vertex="1">
          <mxGeometry x="30" width="150" height="30" as="geometry">
            <mxRectangle width="150" height="30" as="alternateBounds" />
          </mxGeometry>
        </mxCell>
        <mxCell id="YKZeA6OB_1HaBt14HI22-313" value="" style="shape=tableRow;horizontal=0;startSize=0;swimlaneHead=0;swimlaneBody=0;fillColor=none;collapsible=0;dropTarget=0;points=[[0,0.5],[1,0.5]];portConstraint=eastwest;top=0;left=0;right=0;bottom=0;" parent="YKZeA6OB_1HaBt14HI22-306" vertex="1">
          <mxGeometry y="90" width="180" height="30" as="geometry" />
        </mxCell>
        <mxCell id="YKZeA6OB_1HaBt14HI22-314" value="" style="shape=partialRectangle;connectable=0;fillColor=none;top=0;left=0;bottom=0;right=0;editable=1;overflow=hidden;whiteSpace=wrap;html=1;" parent="YKZeA6OB_1HaBt14HI22-313" vertex="1">
          <mxGeometry width="30" height="30" as="geometry">
            <mxRectangle width="30" height="30" as="alternateBounds" />
          </mxGeometry>
        </mxCell>
        <mxCell id="YKZeA6OB_1HaBt14HI22-315" value="QuestionDetails" style="shape=partialRectangle;connectable=0;fillColor=none;top=0;left=0;bottom=0;right=0;align=left;spacingLeft=6;overflow=hidden;whiteSpace=wrap;html=1;" parent="YKZeA6OB_1HaBt14HI22-313" vertex="1">
          <mxGeometry x="30" width="150" height="30" as="geometry">
            <mxRectangle width="150" height="30" as="alternateBounds" />
          </mxGeometry>
        </mxCell>
        <mxCell id="YKZeA6OB_1HaBt14HI22-316" value="" style="shape=tableRow;horizontal=0;startSize=0;swimlaneHead=0;swimlaneBody=0;fillColor=none;collapsible=0;dropTarget=0;points=[[0,0.5],[1,0.5]];portConstraint=eastwest;top=0;left=0;right=0;bottom=0;" parent="YKZeA6OB_1HaBt14HI22-306" vertex="1">
          <mxGeometry y="120" width="180" height="30" as="geometry" />
        </mxCell>
        <mxCell id="YKZeA6OB_1HaBt14HI22-317" value="" style="shape=partialRectangle;connectable=0;fillColor=none;top=0;left=0;bottom=0;right=0;editable=1;overflow=hidden;whiteSpace=wrap;html=1;" parent="YKZeA6OB_1HaBt14HI22-316" vertex="1">
          <mxGeometry width="30" height="30" as="geometry">
            <mxRectangle width="30" height="30" as="alternateBounds" />
          </mxGeometry>
        </mxCell>
        <mxCell id="YKZeA6OB_1HaBt14HI22-318" value="QuestionType" style="shape=partialRectangle;connectable=0;fillColor=none;top=0;left=0;bottom=0;right=0;align=left;spacingLeft=6;overflow=hidden;whiteSpace=wrap;html=1;" parent="YKZeA6OB_1HaBt14HI22-316" vertex="1">
          <mxGeometry x="30" width="150" height="30" as="geometry">
            <mxRectangle width="150" height="30" as="alternateBounds" />
          </mxGeometry>
        </mxCell>
        <mxCell id="YKZeA6OB_1HaBt14HI22-319" value="" style="shape=tableRow;horizontal=0;startSize=0;swimlaneHead=0;swimlaneBody=0;fillColor=none;collapsible=0;dropTarget=0;points=[[0,0.5],[1,0.5]];portConstraint=eastwest;top=0;left=0;right=0;bottom=0;" parent="YKZeA6OB_1HaBt14HI22-306" vertex="1">
          <mxGeometry y="150" width="180" height="30" as="geometry" />
        </mxCell>
        <mxCell id="YKZeA6OB_1HaBt14HI22-320" value="" style="shape=partialRectangle;connectable=0;fillColor=none;top=0;left=0;bottom=0;right=0;editable=1;overflow=hidden;whiteSpace=wrap;html=1;" parent="YKZeA6OB_1HaBt14HI22-319" vertex="1">
          <mxGeometry width="30" height="30" as="geometry">
            <mxRectangle width="30" height="30" as="alternateBounds" />
          </mxGeometry>
        </mxCell>
        <mxCell id="YKZeA6OB_1HaBt14HI22-321" value="QuestionCorrectAnswer" style="shape=partialRectangle;connectable=0;fillColor=none;top=0;left=0;bottom=0;right=0;align=left;spacingLeft=6;overflow=hidden;whiteSpace=wrap;html=1;" parent="YKZeA6OB_1HaBt14HI22-319" vertex="1">
          <mxGeometry x="30" width="150" height="30" as="geometry">
            <mxRectangle width="150" height="30" as="alternateBounds" />
          </mxGeometry>
        </mxCell>
        <mxCell id="YKZeA6OB_1HaBt14HI22-322" style="shape=tableRow;horizontal=0;startSize=0;swimlaneHead=0;swimlaneBody=0;fillColor=none;collapsible=0;dropTarget=0;points=[[0,0.5],[1,0.5]];portConstraint=eastwest;top=0;left=0;right=0;bottom=0;" parent="YKZeA6OB_1HaBt14HI22-306" vertex="1">
          <mxGeometry y="180" width="180" height="30" as="geometry" />
        </mxCell>
        <mxCell id="YKZeA6OB_1HaBt14HI22-323" style="shape=partialRectangle;connectable=0;fillColor=none;top=0;left=0;bottom=0;right=0;editable=1;overflow=hidden;whiteSpace=wrap;html=1;" parent="YKZeA6OB_1HaBt14HI22-322" vertex="1">
          <mxGeometry width="30" height="30" as="geometry">
            <mxRectangle width="30" height="30" as="alternateBounds" />
          </mxGeometry>
        </mxCell>
        <mxCell id="YKZeA6OB_1HaBt14HI22-324" value="CourseMin&lt;span style=&quot;background-color: initial;&quot;&gt;Degree&lt;/span&gt;" style="shape=partialRectangle;connectable=0;fillColor=none;top=0;left=0;bottom=0;right=0;align=left;spacingLeft=6;overflow=hidden;whiteSpace=wrap;html=1;" parent="YKZeA6OB_1HaBt14HI22-322" vertex="1">
          <mxGeometry x="30" width="150" height="30" as="geometry">
            <mxRectangle width="150" height="30" as="alternateBounds" />
          </mxGeometry>
        </mxCell>
        <mxCell id="YKZeA6OB_1HaBt14HI22-325" style="shape=tableRow;horizontal=0;startSize=0;swimlaneHead=0;swimlaneBody=0;fillColor=none;collapsible=0;dropTarget=0;points=[[0,0.5],[1,0.5]];portConstraint=eastwest;top=0;left=0;right=0;bottom=0;" parent="YKZeA6OB_1HaBt14HI22-306" vertex="1">
          <mxGeometry y="210" width="180" height="30" as="geometry" />
        </mxCell>
        <mxCell id="YKZeA6OB_1HaBt14HI22-326" value="&lt;b&gt;FK&lt;/b&gt;" style="shape=partialRectangle;connectable=0;fillColor=none;top=0;left=0;bottom=0;right=0;editable=1;overflow=hidden;whiteSpace=wrap;html=1;" parent="YKZeA6OB_1HaBt14HI22-325" vertex="1">
          <mxGeometry width="30" height="30" as="geometry">
            <mxRectangle width="30" height="30" as="alternateBounds" />
          </mxGeometry>
        </mxCell>
        <mxCell id="YKZeA6OB_1HaBt14HI22-327" value="CourseId" style="shape=partialRectangle;connectable=0;fillColor=none;top=0;left=0;bottom=0;right=0;align=left;spacingLeft=6;overflow=hidden;whiteSpace=wrap;html=1;" parent="YKZeA6OB_1HaBt14HI22-325" vertex="1">
          <mxGeometry x="30" width="150" height="30" as="geometry">
            <mxRectangle width="150" height="30" as="alternateBounds" />
          </mxGeometry>
        </mxCell>
        <mxCell id="YKZeA6OB_1HaBt14HI22-335" style="edgeStyle=orthogonalEdgeStyle;rounded=0;orthogonalLoop=1;jettySize=auto;html=1;strokeColor=default;align=center;verticalAlign=middle;fontFamily=Helvetica;fontSize=12;fontColor=default;labelBackgroundColor=default;startArrow=ERone;startFill=0;startSize=8;endArrow=ERmany;endFill=0;endSize=8;entryX=0;entryY=0.5;entryDx=0;entryDy=0;" parent="1" source="YKZeA6OB_1HaBt14HI22-213" target="YKZeA6OB_1HaBt14HI22-339" edge="1">
          <mxGeometry relative="1" as="geometry">
            <Array as="points">
              <mxPoint x="423" y="564" />
              <mxPoint x="423" y="830" />
            </Array>
            <mxPoint x="449" y="861.0476190476188" as="targetPoint" />
          </mxGeometry>
        </mxCell>
        <mxCell id="YKZeA6OB_1HaBt14HI22-337" style="edgeStyle=orthogonalEdgeStyle;rounded=0;orthogonalLoop=1;jettySize=auto;html=1;entryX=1;entryY=0.5;entryDx=0;entryDy=0;strokeColor=default;align=center;verticalAlign=middle;fontFamily=Helvetica;fontSize=12;fontColor=default;labelBackgroundColor=default;startArrow=ERone;startFill=0;startSize=8;endArrow=ERmany;endFill=0;endSize=8;curved=0;" parent="1" source="YKZeA6OB_1HaBt14HI22-288" target="YKZeA6OB_1HaBt14HI22-345" edge="1">
          <mxGeometry relative="1" as="geometry">
            <mxPoint x="882" y="865" as="targetPoint" />
            <Array as="points">
              <mxPoint x="914" y="549" />
              <mxPoint x="914" y="889" />
              <mxPoint x="897" y="889" />
            </Array>
          </mxGeometry>
        </mxCell>
        <mxCell id="YKZeA6OB_1HaBt14HI22-338" value="CourseInstructor" style="shape=table;startSize=30;container=1;collapsible=1;childLayout=tableLayout;fixedRows=1;rowLines=0;fontStyle=1;align=center;resizeLast=1;html=1;fillColor=#d5e8d4;strokeColor=#82b366;" parent="1" vertex="1">
          <mxGeometry x="689.3199999999999" y="785" width="207.68421052631606" height="150" as="geometry" />
        </mxCell>
        <mxCell id="YKZeA6OB_1HaBt14HI22-339" value="" style="shape=tableRow;horizontal=0;startSize=0;swimlaneHead=0;swimlaneBody=0;fillColor=none;collapsible=0;dropTarget=0;points=[[0,0.5],[1,0.5]];portConstraint=eastwest;top=0;left=0;right=0;bottom=1;" parent="YKZeA6OB_1HaBt14HI22-338" vertex="1">
          <mxGeometry y="30" width="207.68421052631606" height="30" as="geometry" />
        </mxCell>
        <mxCell id="YKZeA6OB_1HaBt14HI22-340" value="&lt;p class=&quot;MsoNormal&quot;&gt;PK&lt;/p&gt;" style="shape=partialRectangle;connectable=0;fillColor=none;top=0;left=0;bottom=0;right=0;fontStyle=1;overflow=hidden;whiteSpace=wrap;html=1;" parent="YKZeA6OB_1HaBt14HI22-339" vertex="1">
          <mxGeometry width="57.75" height="30" as="geometry">
            <mxRectangle width="57.75" height="30" as="alternateBounds" />
          </mxGeometry>
        </mxCell>
        <mxCell id="YKZeA6OB_1HaBt14HI22-341" value="CourseInstructorId" style="shape=partialRectangle;connectable=0;fillColor=none;top=0;left=0;bottom=0;right=0;align=left;spacingLeft=6;fontStyle=5;overflow=hidden;whiteSpace=wrap;html=1;" parent="YKZeA6OB_1HaBt14HI22-339" vertex="1">
          <mxGeometry x="57.75" width="149.93421052631606" height="30" as="geometry">
            <mxRectangle width="149.93421052631606" height="30" as="alternateBounds" />
          </mxGeometry>
        </mxCell>
        <mxCell id="YKZeA6OB_1HaBt14HI22-342" value="" style="shape=tableRow;horizontal=0;startSize=0;swimlaneHead=0;swimlaneBody=0;fillColor=none;collapsible=0;dropTarget=0;points=[[0,0.5],[1,0.5]];portConstraint=eastwest;top=0;left=0;right=0;bottom=0;" parent="YKZeA6OB_1HaBt14HI22-338" vertex="1">
          <mxGeometry y="60" width="207.68421052631606" height="30" as="geometry" />
        </mxCell>
        <mxCell id="YKZeA6OB_1HaBt14HI22-343" value="&lt;b&gt;FK&lt;/b&gt;" style="shape=partialRectangle;connectable=0;fillColor=none;top=0;left=0;bottom=0;right=0;editable=1;overflow=hidden;whiteSpace=wrap;html=1;" parent="YKZeA6OB_1HaBt14HI22-342" vertex="1">
          <mxGeometry width="57.75" height="30" as="geometry">
            <mxRectangle width="57.75" height="30" as="alternateBounds" />
          </mxGeometry>
        </mxCell>
        <mxCell id="YKZeA6OB_1HaBt14HI22-344" value="UserId" style="shape=partialRectangle;connectable=0;fillColor=none;top=0;left=0;bottom=0;right=0;align=left;spacingLeft=6;overflow=hidden;whiteSpace=wrap;html=1;" parent="YKZeA6OB_1HaBt14HI22-342" vertex="1">
          <mxGeometry x="57.75" width="149.93421052631606" height="30" as="geometry">
            <mxRectangle width="149.93421052631606" height="30" as="alternateBounds" />
          </mxGeometry>
        </mxCell>
        <mxCell id="YKZeA6OB_1HaBt14HI22-345" value="" style="shape=tableRow;horizontal=0;startSize=0;swimlaneHead=0;swimlaneBody=0;fillColor=none;collapsible=0;dropTarget=0;points=[[0,0.5],[1,0.5]];portConstraint=eastwest;top=0;left=0;right=0;bottom=0;" parent="YKZeA6OB_1HaBt14HI22-338" vertex="1">
          <mxGeometry y="90" width="207.68421052631606" height="30" as="geometry" />
        </mxCell>
        <mxCell id="YKZeA6OB_1HaBt14HI22-346" value="&lt;b&gt;FK&lt;/b&gt;" style="shape=partialRectangle;connectable=0;fillColor=none;top=0;left=0;bottom=0;right=0;editable=1;overflow=hidden;whiteSpace=wrap;html=1;" parent="YKZeA6OB_1HaBt14HI22-345" vertex="1">
          <mxGeometry width="57.75" height="30" as="geometry">
            <mxRectangle width="57.75" height="30" as="alternateBounds" />
          </mxGeometry>
        </mxCell>
        <mxCell id="YKZeA6OB_1HaBt14HI22-347" value="CourseId" style="shape=partialRectangle;connectable=0;fillColor=none;top=0;left=0;bottom=0;right=0;align=left;spacingLeft=6;overflow=hidden;whiteSpace=wrap;html=1;" parent="YKZeA6OB_1HaBt14HI22-345" vertex="1">
          <mxGeometry x="57.75" width="149.93421052631606" height="30" as="geometry">
            <mxRectangle width="149.93421052631606" height="30" as="alternateBounds" />
          </mxGeometry>
        </mxCell>
        <mxCell id="YKZeA6OB_1HaBt14HI22-348" value="" style="shape=tableRow;horizontal=0;startSize=0;swimlaneHead=0;swimlaneBody=0;fillColor=none;collapsible=0;dropTarget=0;points=[[0,0.5],[1,0.5]];portConstraint=eastwest;top=0;left=0;right=0;bottom=0;" parent="YKZeA6OB_1HaBt14HI22-338" vertex="1">
          <mxGeometry y="120" width="207.68421052631606" height="30" as="geometry" />
        </mxCell>
        <mxCell id="YKZeA6OB_1HaBt14HI22-349" value="" style="shape=partialRectangle;connectable=0;fillColor=none;top=0;left=0;bottom=0;right=0;editable=1;overflow=hidden;whiteSpace=wrap;html=1;" parent="YKZeA6OB_1HaBt14HI22-348" vertex="1">
          <mxGeometry width="57.75" height="30" as="geometry">
            <mxRectangle width="57.75" height="30" as="alternateBounds" />
          </mxGeometry>
        </mxCell>
        <mxCell id="YKZeA6OB_1HaBt14HI22-350" value="year" style="shape=partialRectangle;connectable=0;fillColor=none;top=0;left=0;bottom=0;right=0;align=left;spacingLeft=6;overflow=hidden;whiteSpace=wrap;html=1;" parent="YKZeA6OB_1HaBt14HI22-348" vertex="1">
          <mxGeometry x="57.75" width="149.93421052631606" height="30" as="geometry">
            <mxRectangle width="149.93421052631606" height="30" as="alternateBounds" />
          </mxGeometry>
        </mxCell>
        <mxCell id="YKZeA6OB_1HaBt14HI22-351" value="Exam" style="shape=table;startSize=30;container=1;collapsible=1;childLayout=tableLayout;fixedRows=1;rowLines=0;fontStyle=1;align=center;resizeLast=1;html=1;fillColor=#d5e8d4;strokeColor=#82b366;" parent="1" vertex="1">
          <mxGeometry x="1029" y="889" width="180" height="210" as="geometry" />
        </mxCell>
        <mxCell id="YKZeA6OB_1HaBt14HI22-352" value="" style="shape=tableRow;horizontal=0;startSize=0;swimlaneHead=0;swimlaneBody=0;fillColor=none;collapsible=0;dropTarget=0;points=[[0,0.5],[1,0.5]];portConstraint=eastwest;top=0;left=0;right=0;bottom=1;" parent="YKZeA6OB_1HaBt14HI22-351" vertex="1">
          <mxGeometry y="30" width="180" height="30" as="geometry" />
        </mxCell>
        <mxCell id="YKZeA6OB_1HaBt14HI22-353" value="PK" style="shape=partialRectangle;connectable=0;fillColor=none;top=0;left=0;bottom=0;right=0;fontStyle=1;overflow=hidden;whiteSpace=wrap;html=1;" parent="YKZeA6OB_1HaBt14HI22-352" vertex="1">
          <mxGeometry width="30" height="30" as="geometry">
            <mxRectangle width="30" height="30" as="alternateBounds" />
          </mxGeometry>
        </mxCell>
        <mxCell id="YKZeA6OB_1HaBt14HI22-354" value="ExamId" style="shape=partialRectangle;connectable=0;fillColor=none;top=0;left=0;bottom=0;right=0;align=left;spacingLeft=6;fontStyle=5;overflow=hidden;whiteSpace=wrap;html=1;" parent="YKZeA6OB_1HaBt14HI22-352" vertex="1">
          <mxGeometry x="30" width="150" height="30" as="geometry">
            <mxRectangle width="150" height="30" as="alternateBounds" />
          </mxGeometry>
        </mxCell>
        <mxCell id="YKZeA6OB_1HaBt14HI22-355" value="" style="shape=tableRow;horizontal=0;startSize=0;swimlaneHead=0;swimlaneBody=0;fillColor=none;collapsible=0;dropTarget=0;points=[[0,0.5],[1,0.5]];portConstraint=eastwest;top=0;left=0;right=0;bottom=0;" parent="YKZeA6OB_1HaBt14HI22-351" vertex="1">
          <mxGeometry y="60" width="180" height="30" as="geometry" />
        </mxCell>
        <mxCell id="YKZeA6OB_1HaBt14HI22-356" value="" style="shape=partialRectangle;connectable=0;fillColor=none;top=0;left=0;bottom=0;right=0;editable=1;overflow=hidden;whiteSpace=wrap;html=1;" parent="YKZeA6OB_1HaBt14HI22-355" vertex="1">
          <mxGeometry width="30" height="30" as="geometry">
            <mxRectangle width="30" height="30" as="alternateBounds" />
          </mxGeometry>
        </mxCell>
        <mxCell id="YKZeA6OB_1HaBt14HI22-357" value="ExamType" style="shape=partialRectangle;connectable=0;fillColor=none;top=0;left=0;bottom=0;right=0;align=left;spacingLeft=6;overflow=hidden;whiteSpace=wrap;html=1;" parent="YKZeA6OB_1HaBt14HI22-355" vertex="1">
          <mxGeometry x="30" width="150" height="30" as="geometry">
            <mxRectangle width="150" height="30" as="alternateBounds" />
          </mxGeometry>
        </mxCell>
        <mxCell id="YKZeA6OB_1HaBt14HI22-358" value="" style="shape=tableRow;horizontal=0;startSize=0;swimlaneHead=0;swimlaneBody=0;fillColor=none;collapsible=0;dropTarget=0;points=[[0,0.5],[1,0.5]];portConstraint=eastwest;top=0;left=0;right=0;bottom=0;" parent="YKZeA6OB_1HaBt14HI22-351" vertex="1">
          <mxGeometry y="90" width="180" height="30" as="geometry" />
        </mxCell>
        <mxCell id="YKZeA6OB_1HaBt14HI22-359" value="&lt;span style=&quot;white-space: pre;&quot;&gt;&#x9;&lt;/span&gt;" style="shape=partialRectangle;connectable=0;fillColor=none;top=0;left=0;bottom=0;right=0;editable=1;overflow=hidden;whiteSpace=wrap;html=1;" parent="YKZeA6OB_1HaBt14HI22-358" vertex="1">
          <mxGeometry width="30" height="30" as="geometry">
            <mxRectangle width="30" height="30" as="alternateBounds" />
          </mxGeometry>
        </mxCell>
        <mxCell id="YKZeA6OB_1HaBt14HI22-360" value="StartTime" style="shape=partialRectangle;connectable=0;fillColor=none;top=0;left=0;bottom=0;right=0;align=left;spacingLeft=6;overflow=hidden;whiteSpace=wrap;html=1;" parent="YKZeA6OB_1HaBt14HI22-358" vertex="1">
          <mxGeometry x="30" width="150" height="30" as="geometry">
            <mxRectangle width="150" height="30" as="alternateBounds" />
          </mxGeometry>
        </mxCell>
        <mxCell id="YKZeA6OB_1HaBt14HI22-361" value="" style="shape=tableRow;horizontal=0;startSize=0;swimlaneHead=0;swimlaneBody=0;fillColor=none;collapsible=0;dropTarget=0;points=[[0,0.5],[1,0.5]];portConstraint=eastwest;top=0;left=0;right=0;bottom=0;" parent="YKZeA6OB_1HaBt14HI22-351" vertex="1">
          <mxGeometry y="120" width="180" height="30" as="geometry" />
        </mxCell>
        <mxCell id="YKZeA6OB_1HaBt14HI22-362" value="" style="shape=partialRectangle;connectable=0;fillColor=none;top=0;left=0;bottom=0;right=0;editable=1;overflow=hidden;whiteSpace=wrap;html=1;" parent="YKZeA6OB_1HaBt14HI22-361" vertex="1">
          <mxGeometry width="30" height="30" as="geometry">
            <mxRectangle width="30" height="30" as="alternateBounds" />
          </mxGeometry>
        </mxCell>
        <mxCell id="YKZeA6OB_1HaBt14HI22-363" value="EndTime" style="shape=partialRectangle;connectable=0;fillColor=none;top=0;left=0;bottom=0;right=0;align=left;spacingLeft=6;overflow=hidden;whiteSpace=wrap;html=1;" parent="YKZeA6OB_1HaBt14HI22-361" vertex="1">
          <mxGeometry x="30" width="150" height="30" as="geometry">
            <mxRectangle width="150" height="30" as="alternateBounds" />
          </mxGeometry>
        </mxCell>
        <mxCell id="YKZeA6OB_1HaBt14HI22-367" style="shape=tableRow;horizontal=0;startSize=0;swimlaneHead=0;swimlaneBody=0;fillColor=none;collapsible=0;dropTarget=0;points=[[0,0.5],[1,0.5]];portConstraint=eastwest;top=0;left=0;right=0;bottom=0;" parent="YKZeA6OB_1HaBt14HI22-351" vertex="1">
          <mxGeometry y="150" width="180" height="30" as="geometry" />
        </mxCell>
        <mxCell id="YKZeA6OB_1HaBt14HI22-368" value="&lt;b&gt;FK&lt;/b&gt;" style="shape=partialRectangle;connectable=0;fillColor=none;top=0;left=0;bottom=0;right=0;editable=1;overflow=hidden;whiteSpace=wrap;html=1;" parent="YKZeA6OB_1HaBt14HI22-367" vertex="1">
          <mxGeometry width="30" height="30" as="geometry">
            <mxRectangle width="30" height="30" as="alternateBounds" />
          </mxGeometry>
        </mxCell>
        <mxCell id="YKZeA6OB_1HaBt14HI22-369" value="IntakeId" style="shape=partialRectangle;connectable=0;fillColor=none;top=0;left=0;bottom=0;right=0;align=left;spacingLeft=6;overflow=hidden;whiteSpace=wrap;html=1;" parent="YKZeA6OB_1HaBt14HI22-367" vertex="1">
          <mxGeometry x="30" width="150" height="30" as="geometry">
            <mxRectangle width="150" height="30" as="alternateBounds" />
          </mxGeometry>
        </mxCell>
        <mxCell id="YKZeA6OB_1HaBt14HI22-370" style="shape=tableRow;horizontal=0;startSize=0;swimlaneHead=0;swimlaneBody=0;fillColor=none;collapsible=0;dropTarget=0;points=[[0,0.5],[1,0.5]];portConstraint=eastwest;top=0;left=0;right=0;bottom=0;" parent="YKZeA6OB_1HaBt14HI22-351" vertex="1">
          <mxGeometry y="180" width="180" height="30" as="geometry" />
        </mxCell>
        <mxCell id="YKZeA6OB_1HaBt14HI22-371" value="&lt;b&gt;FK&lt;/b&gt;" style="shape=partialRectangle;connectable=0;fillColor=none;top=0;left=0;bottom=0;right=0;editable=1;overflow=hidden;whiteSpace=wrap;html=1;" parent="YKZeA6OB_1HaBt14HI22-370" vertex="1">
          <mxGeometry width="30" height="30" as="geometry">
            <mxRectangle width="30" height="30" as="alternateBounds" />
          </mxGeometry>
        </mxCell>
        <mxCell id="YKZeA6OB_1HaBt14HI22-372" value="CourseInstructorId" style="shape=partialRectangle;connectable=0;fillColor=none;top=0;left=0;bottom=0;right=0;align=left;spacingLeft=6;overflow=hidden;whiteSpace=wrap;html=1;" parent="YKZeA6OB_1HaBt14HI22-370" vertex="1">
          <mxGeometry x="30" width="150" height="30" as="geometry">
            <mxRectangle width="150" height="30" as="alternateBounds" />
          </mxGeometry>
        </mxCell>
        <mxCell id="YKZeA6OB_1HaBt14HI22-373" style="edgeStyle=orthogonalEdgeStyle;rounded=0;orthogonalLoop=1;jettySize=auto;html=1;entryX=0;entryY=0.5;entryDx=0;entryDy=0;strokeColor=default;align=center;verticalAlign=middle;fontFamily=Helvetica;fontSize=12;fontColor=default;labelBackgroundColor=default;startArrow=ERone;startFill=0;startSize=8;endArrow=ERmany;endFill=0;endSize=8;" parent="1" source="YKZeA6OB_1HaBt14HI22-339" target="YKZeA6OB_1HaBt14HI22-370" edge="1">
          <mxGeometry relative="1" as="geometry" />
        </mxCell>
        <mxCell id="YKZeA6OB_1HaBt14HI22-374" style="edgeStyle=orthogonalEdgeStyle;rounded=0;orthogonalLoop=1;jettySize=auto;html=1;entryX=0;entryY=0.5;entryDx=0;entryDy=0;strokeColor=default;align=center;verticalAlign=middle;fontFamily=Helvetica;fontSize=12;fontColor=default;labelBackgroundColor=default;startArrow=ERone;startFill=0;startSize=8;endArrow=ERmany;endFill=0;endSize=8;" parent="1" source="YKZeA6OB_1HaBt14HI22-269" target="YKZeA6OB_1HaBt14HI22-367" edge="1">
          <mxGeometry relative="1" as="geometry" />
        </mxCell>
        <mxCell id="YKZeA6OB_1HaBt14HI22-375" value="ExamQuestion" style="shape=table;startSize=30;container=1;collapsible=1;childLayout=tableLayout;fixedRows=1;rowLines=0;fontStyle=1;align=center;resizeLast=1;html=1;fillColor=#d5e8d4;strokeColor=#82b366;" parent="1" vertex="1">
          <mxGeometry x="1383" y="676" width="180" height="150" as="geometry" />
        </mxCell>
        <mxCell id="YKZeA6OB_1HaBt14HI22-376" value="" style="shape=tableRow;horizontal=0;startSize=0;swimlaneHead=0;swimlaneBody=0;fillColor=none;collapsible=0;dropTarget=0;points=[[0,0.5],[1,0.5]];portConstraint=eastwest;top=0;left=0;right=0;bottom=1;" parent="YKZeA6OB_1HaBt14HI22-375" vertex="1">
          <mxGeometry y="30" width="180" height="30" as="geometry" />
        </mxCell>
        <mxCell id="YKZeA6OB_1HaBt14HI22-377" value="PK" style="shape=partialRectangle;connectable=0;fillColor=none;top=0;left=0;bottom=0;right=0;fontStyle=1;overflow=hidden;whiteSpace=wrap;html=1;" parent="YKZeA6OB_1HaBt14HI22-376" vertex="1">
          <mxGeometry width="30" height="30" as="geometry">
            <mxRectangle width="30" height="30" as="alternateBounds" />
          </mxGeometry>
        </mxCell>
        <mxCell id="YKZeA6OB_1HaBt14HI22-378" value="ExamQuestionId" style="shape=partialRectangle;connectable=0;fillColor=none;top=0;left=0;bottom=0;right=0;align=left;spacingLeft=6;fontStyle=5;overflow=hidden;whiteSpace=wrap;html=1;" parent="YKZeA6OB_1HaBt14HI22-376" vertex="1">
          <mxGeometry x="30" width="150" height="30" as="geometry">
            <mxRectangle width="150" height="30" as="alternateBounds" />
          </mxGeometry>
        </mxCell>
        <mxCell id="YKZeA6OB_1HaBt14HI22-379" value="" style="shape=tableRow;horizontal=0;startSize=0;swimlaneHead=0;swimlaneBody=0;fillColor=none;collapsible=0;dropTarget=0;points=[[0,0.5],[1,0.5]];portConstraint=eastwest;top=0;left=0;right=0;bottom=0;" parent="YKZeA6OB_1HaBt14HI22-375" vertex="1">
          <mxGeometry y="60" width="180" height="30" as="geometry" />
        </mxCell>
        <mxCell id="YKZeA6OB_1HaBt14HI22-380" value="" style="shape=partialRectangle;connectable=0;fillColor=none;top=0;left=0;bottom=0;right=0;editable=1;overflow=hidden;whiteSpace=wrap;html=1;" parent="YKZeA6OB_1HaBt14HI22-379" vertex="1">
          <mxGeometry width="30" height="30" as="geometry">
            <mxRectangle width="30" height="30" as="alternateBounds" />
          </mxGeometry>
        </mxCell>
        <mxCell id="YKZeA6OB_1HaBt14HI22-381" value="QuestionDegree" style="shape=partialRectangle;connectable=0;fillColor=none;top=0;left=0;bottom=0;right=0;align=left;spacingLeft=6;overflow=hidden;whiteSpace=wrap;html=1;" parent="YKZeA6OB_1HaBt14HI22-379" vertex="1">
          <mxGeometry x="30" width="150" height="30" as="geometry">
            <mxRectangle width="150" height="30" as="alternateBounds" />
          </mxGeometry>
        </mxCell>
        <mxCell id="YKZeA6OB_1HaBt14HI22-382" value="" style="shape=tableRow;horizontal=0;startSize=0;swimlaneHead=0;swimlaneBody=0;fillColor=none;collapsible=0;dropTarget=0;points=[[0,0.5],[1,0.5]];portConstraint=eastwest;top=0;left=0;right=0;bottom=0;" parent="YKZeA6OB_1HaBt14HI22-375" vertex="1">
          <mxGeometry y="90" width="180" height="30" as="geometry" />
        </mxCell>
        <mxCell id="YKZeA6OB_1HaBt14HI22-383" value="&lt;b&gt;FK&lt;/b&gt;" style="shape=partialRectangle;connectable=0;fillColor=none;top=0;left=0;bottom=0;right=0;editable=1;overflow=hidden;whiteSpace=wrap;html=1;" parent="YKZeA6OB_1HaBt14HI22-382" vertex="1">
          <mxGeometry width="30" height="30" as="geometry">
            <mxRectangle width="30" height="30" as="alternateBounds" />
          </mxGeometry>
        </mxCell>
        <mxCell id="YKZeA6OB_1HaBt14HI22-384" value="QuestionId" style="shape=partialRectangle;connectable=0;fillColor=none;top=0;left=0;bottom=0;right=0;align=left;spacingLeft=6;overflow=hidden;whiteSpace=wrap;html=1;" parent="YKZeA6OB_1HaBt14HI22-382" vertex="1">
          <mxGeometry x="30" width="150" height="30" as="geometry">
            <mxRectangle width="150" height="30" as="alternateBounds" />
          </mxGeometry>
        </mxCell>
        <mxCell id="YKZeA6OB_1HaBt14HI22-385" value="" style="shape=tableRow;horizontal=0;startSize=0;swimlaneHead=0;swimlaneBody=0;fillColor=none;collapsible=0;dropTarget=0;points=[[0,0.5],[1,0.5]];portConstraint=eastwest;top=0;left=0;right=0;bottom=0;" parent="YKZeA6OB_1HaBt14HI22-375" vertex="1">
          <mxGeometry y="120" width="180" height="30" as="geometry" />
        </mxCell>
        <mxCell id="YKZeA6OB_1HaBt14HI22-386" value="&lt;b&gt;FK&lt;/b&gt;" style="shape=partialRectangle;connectable=0;fillColor=none;top=0;left=0;bottom=0;right=0;editable=1;overflow=hidden;whiteSpace=wrap;html=1;" parent="YKZeA6OB_1HaBt14HI22-385" vertex="1">
          <mxGeometry width="30" height="30" as="geometry">
            <mxRectangle width="30" height="30" as="alternateBounds" />
          </mxGeometry>
        </mxCell>
        <mxCell id="YKZeA6OB_1HaBt14HI22-387" value="ExamId" style="shape=partialRectangle;connectable=0;fillColor=none;top=0;left=0;bottom=0;right=0;align=left;spacingLeft=6;overflow=hidden;whiteSpace=wrap;html=1;" parent="YKZeA6OB_1HaBt14HI22-385" vertex="1">
          <mxGeometry x="30" width="150" height="30" as="geometry">
            <mxRectangle width="150" height="30" as="alternateBounds" />
          </mxGeometry>
        </mxCell>
        <mxCell id="YKZeA6OB_1HaBt14HI22-388" style="edgeStyle=orthogonalEdgeStyle;rounded=0;orthogonalLoop=1;jettySize=auto;html=1;entryX=0;entryY=0.5;entryDx=0;entryDy=0;strokeColor=default;align=center;verticalAlign=middle;fontFamily=Helvetica;fontSize=12;fontColor=default;labelBackgroundColor=default;startArrow=ERone;startFill=0;startSize=8;endArrow=ERmany;endFill=0;endSize=8;" parent="1" source="YKZeA6OB_1HaBt14HI22-352" target="YKZeA6OB_1HaBt14HI22-385" edge="1">
          <mxGeometry relative="1" as="geometry" />
        </mxCell>
        <mxCell id="YKZeA6OB_1HaBt14HI22-389" style="edgeStyle=orthogonalEdgeStyle;rounded=0;orthogonalLoop=1;jettySize=auto;html=1;entryX=0;entryY=0.5;entryDx=0;entryDy=0;strokeColor=default;align=center;verticalAlign=middle;fontFamily=Helvetica;fontSize=12;fontColor=default;labelBackgroundColor=default;startArrow=ERone;startFill=0;startSize=8;endArrow=ERmany;endFill=0;endSize=8;" parent="1" source="YKZeA6OB_1HaBt14HI22-307" target="YKZeA6OB_1HaBt14HI22-382" edge="1">
          <mxGeometry relative="1" as="geometry" />
        </mxCell>
        <mxCell id="YKZeA6OB_1HaBt14HI22-390" value="StudentAssignedExam" style="shape=table;startSize=30;container=1;collapsible=1;childLayout=tableLayout;fixedRows=1;rowLines=0;fontStyle=1;align=center;resizeLast=1;html=1;fillColor=#d5e8d4;strokeColor=#82b366;" parent="1" vertex="1">
          <mxGeometry x="1378" y="1048" width="225.99999999999977" height="180" as="geometry" />
        </mxCell>
        <mxCell id="YKZeA6OB_1HaBt14HI22-391" value="" style="shape=tableRow;horizontal=0;startSize=0;swimlaneHead=0;swimlaneBody=0;fillColor=none;collapsible=0;dropTarget=0;points=[[0,0.5],[1,0.5]];portConstraint=eastwest;top=0;left=0;right=0;bottom=1;" parent="YKZeA6OB_1HaBt14HI22-390" vertex="1">
          <mxGeometry y="30" width="225.99999999999977" height="30" as="geometry" />
        </mxCell>
        <mxCell id="YKZeA6OB_1HaBt14HI22-392" value="PK" style="shape=partialRectangle;connectable=0;fillColor=none;top=0;left=0;bottom=0;right=0;fontStyle=1;overflow=hidden;whiteSpace=wrap;html=1;" parent="YKZeA6OB_1HaBt14HI22-391" vertex="1">
          <mxGeometry width="30" height="30" as="geometry">
            <mxRectangle width="30" height="30" as="alternateBounds" />
          </mxGeometry>
        </mxCell>
        <mxCell id="YKZeA6OB_1HaBt14HI22-393" value="&lt;span style=&quot;text-align: center; text-wrap: nowrap;&quot;&gt;StudentAssigned&lt;/span&gt;ExamId" style="shape=partialRectangle;connectable=0;fillColor=none;top=0;left=0;bottom=0;right=0;align=left;spacingLeft=6;fontStyle=5;overflow=hidden;whiteSpace=wrap;html=1;" parent="YKZeA6OB_1HaBt14HI22-391" vertex="1">
          <mxGeometry x="30" width="195.99999999999977" height="30" as="geometry">
            <mxRectangle width="195.99999999999977" height="30" as="alternateBounds" />
          </mxGeometry>
        </mxCell>
        <mxCell id="YKZeA6OB_1HaBt14HI22-394" value="" style="shape=tableRow;horizontal=0;startSize=0;swimlaneHead=0;swimlaneBody=0;fillColor=none;collapsible=0;dropTarget=0;points=[[0,0.5],[1,0.5]];portConstraint=eastwest;top=0;left=0;right=0;bottom=0;" parent="YKZeA6OB_1HaBt14HI22-390" vertex="1">
          <mxGeometry y="60" width="225.99999999999977" height="30" as="geometry" />
        </mxCell>
        <mxCell id="YKZeA6OB_1HaBt14HI22-395" value="" style="shape=partialRectangle;connectable=0;fillColor=none;top=0;left=0;bottom=0;right=0;editable=1;overflow=hidden;whiteSpace=wrap;html=1;" parent="YKZeA6OB_1HaBt14HI22-394" vertex="1">
          <mxGeometry width="30" height="30" as="geometry">
            <mxRectangle width="30" height="30" as="alternateBounds" />
          </mxGeometry>
        </mxCell>
        <mxCell id="YKZeA6OB_1HaBt14HI22-396" value="StartTime" style="shape=partialRectangle;connectable=0;fillColor=none;top=0;left=0;bottom=0;right=0;align=left;spacingLeft=6;overflow=hidden;whiteSpace=wrap;html=1;" parent="YKZeA6OB_1HaBt14HI22-394" vertex="1">
          <mxGeometry x="30" width="195.99999999999977" height="30" as="geometry">
            <mxRectangle width="195.99999999999977" height="30" as="alternateBounds" />
          </mxGeometry>
        </mxCell>
        <mxCell id="YKZeA6OB_1HaBt14HI22-397" value="" style="shape=tableRow;horizontal=0;startSize=0;swimlaneHead=0;swimlaneBody=0;fillColor=none;collapsible=0;dropTarget=0;points=[[0,0.5],[1,0.5]];portConstraint=eastwest;top=0;left=0;right=0;bottom=0;" parent="YKZeA6OB_1HaBt14HI22-390" vertex="1">
          <mxGeometry y="90" width="225.99999999999977" height="30" as="geometry" />
        </mxCell>
        <mxCell id="YKZeA6OB_1HaBt14HI22-398" value="" style="shape=partialRectangle;connectable=0;fillColor=none;top=0;left=0;bottom=0;right=0;editable=1;overflow=hidden;whiteSpace=wrap;html=1;" parent="YKZeA6OB_1HaBt14HI22-397" vertex="1">
          <mxGeometry width="30" height="30" as="geometry">
            <mxRectangle width="30" height="30" as="alternateBounds" />
          </mxGeometry>
        </mxCell>
        <mxCell id="YKZeA6OB_1HaBt14HI22-399" value="EndTime" style="shape=partialRectangle;connectable=0;fillColor=none;top=0;left=0;bottom=0;right=0;align=left;spacingLeft=6;overflow=hidden;whiteSpace=wrap;html=1;" parent="YKZeA6OB_1HaBt14HI22-397" vertex="1">
          <mxGeometry x="30" width="195.99999999999977" height="30" as="geometry">
            <mxRectangle width="195.99999999999977" height="30" as="alternateBounds" />
          </mxGeometry>
        </mxCell>
        <mxCell id="YKZeA6OB_1HaBt14HI22-400" value="" style="shape=tableRow;horizontal=0;startSize=0;swimlaneHead=0;swimlaneBody=0;fillColor=none;collapsible=0;dropTarget=0;points=[[0,0.5],[1,0.5]];portConstraint=eastwest;top=0;left=0;right=0;bottom=0;" parent="YKZeA6OB_1HaBt14HI22-390" vertex="1">
          <mxGeometry y="120" width="225.99999999999977" height="30" as="geometry" />
        </mxCell>
        <mxCell id="YKZeA6OB_1HaBt14HI22-401" value="&lt;b&gt;FK&lt;/b&gt;" style="shape=partialRectangle;connectable=0;fillColor=none;top=0;left=0;bottom=0;right=0;editable=1;overflow=hidden;whiteSpace=wrap;html=1;" parent="YKZeA6OB_1HaBt14HI22-400" vertex="1">
          <mxGeometry width="30" height="30" as="geometry">
            <mxRectangle width="30" height="30" as="alternateBounds" />
          </mxGeometry>
        </mxCell>
        <mxCell id="YKZeA6OB_1HaBt14HI22-402" value="ExamId" style="shape=partialRectangle;connectable=0;fillColor=none;top=0;left=0;bottom=0;right=0;align=left;spacingLeft=6;overflow=hidden;whiteSpace=wrap;html=1;" parent="YKZeA6OB_1HaBt14HI22-400" vertex="1">
          <mxGeometry x="30" width="195.99999999999977" height="30" as="geometry">
            <mxRectangle width="195.99999999999977" height="30" as="alternateBounds" />
          </mxGeometry>
        </mxCell>
        <mxCell id="YKZeA6OB_1HaBt14HI22-403" value="" style="shape=tableRow;horizontal=0;startSize=0;swimlaneHead=0;swimlaneBody=0;fillColor=none;collapsible=0;dropTarget=0;points=[[0,0.5],[1,0.5]];portConstraint=eastwest;top=0;left=0;right=0;bottom=0;" parent="YKZeA6OB_1HaBt14HI22-390" vertex="1">
          <mxGeometry y="150" width="225.99999999999977" height="30" as="geometry" />
        </mxCell>
        <mxCell id="YKZeA6OB_1HaBt14HI22-404" value="&lt;b&gt;FK&lt;/b&gt;" style="shape=partialRectangle;connectable=0;fillColor=none;top=0;left=0;bottom=0;right=0;editable=1;overflow=hidden;whiteSpace=wrap;html=1;" parent="YKZeA6OB_1HaBt14HI22-403" vertex="1">
          <mxGeometry width="30" height="30" as="geometry">
            <mxRectangle width="30" height="30" as="alternateBounds" />
          </mxGeometry>
        </mxCell>
        <mxCell id="YKZeA6OB_1HaBt14HI22-405" value="StudentId" style="shape=partialRectangle;connectable=0;fillColor=none;top=0;left=0;bottom=0;right=0;align=left;spacingLeft=6;overflow=hidden;whiteSpace=wrap;html=1;" parent="YKZeA6OB_1HaBt14HI22-403" vertex="1">
          <mxGeometry x="30" width="195.99999999999977" height="30" as="geometry">
            <mxRectangle width="195.99999999999977" height="30" as="alternateBounds" />
          </mxGeometry>
        </mxCell>
        <mxCell id="YKZeA6OB_1HaBt14HI22-406" style="edgeStyle=orthogonalEdgeStyle;rounded=0;orthogonalLoop=1;jettySize=auto;html=1;entryX=0;entryY=0.5;entryDx=0;entryDy=0;strokeColor=default;align=center;verticalAlign=middle;fontFamily=Helvetica;fontSize=12;fontColor=default;labelBackgroundColor=default;startArrow=ERone;startFill=0;startSize=8;endArrow=ERmany;endFill=0;endSize=8;" parent="1" source="YKZeA6OB_1HaBt14HI22-352" target="YKZeA6OB_1HaBt14HI22-400" edge="1">
          <mxGeometry relative="1" as="geometry">
            <Array as="points">
              <mxPoint x="1250" y="934" />
              <mxPoint x="1250" y="1183" />
            </Array>
          </mxGeometry>
        </mxCell>
        <mxCell id="YKZeA6OB_1HaBt14HI22-407" style="edgeStyle=orthogonalEdgeStyle;rounded=0;orthogonalLoop=1;jettySize=auto;html=1;entryX=0;entryY=0.5;entryDx=0;entryDy=0;strokeColor=default;align=center;verticalAlign=middle;fontFamily=Helvetica;fontSize=12;fontColor=default;labelBackgroundColor=default;startArrow=ERone;startFill=0;startSize=8;endArrow=ERmany;endFill=0;endSize=8;" parent="1" source="YKZeA6OB_1HaBt14HI22-232" target="YKZeA6OB_1HaBt14HI22-403" edge="1">
          <mxGeometry relative="1" as="geometry">
            <Array as="points">
              <mxPoint x="734" y="983" />
              <mxPoint x="734" y="1213" />
            </Array>
          </mxGeometry>
        </mxCell>
        <mxCell id="YKZeA6OB_1HaBt14HI22-408" value="StudentAnswer" style="shape=table;startSize=30;container=1;collapsible=1;childLayout=tableLayout;fixedRows=1;rowLines=0;fontStyle=1;align=center;resizeLast=1;html=1;fillColor=#d5e8d4;strokeColor=#82b366;" parent="1" vertex="1">
          <mxGeometry x="1694" y="898" width="212.66666666666674" height="150" as="geometry" />
        </mxCell>
        <mxCell id="YKZeA6OB_1HaBt14HI22-409" value="" style="shape=tableRow;horizontal=0;startSize=0;swimlaneHead=0;swimlaneBody=0;fillColor=none;collapsible=0;dropTarget=0;points=[[0,0.5],[1,0.5]];portConstraint=eastwest;top=0;left=0;right=0;bottom=1;" parent="YKZeA6OB_1HaBt14HI22-408" vertex="1">
          <mxGeometry y="30" width="212.66666666666674" height="30" as="geometry" />
        </mxCell>
        <mxCell id="YKZeA6OB_1HaBt14HI22-410" value="PK" style="shape=partialRectangle;connectable=0;fillColor=none;top=0;left=0;bottom=0;right=0;fontStyle=1;overflow=hidden;whiteSpace=wrap;html=1;" parent="YKZeA6OB_1HaBt14HI22-409" vertex="1">
          <mxGeometry width="30" height="30" as="geometry">
            <mxRectangle width="30" height="30" as="alternateBounds" />
          </mxGeometry>
        </mxCell>
        <mxCell id="YKZeA6OB_1HaBt14HI22-411" value="StudentAnswerId" style="shape=partialRectangle;connectable=0;fillColor=none;top=0;left=0;bottom=0;right=0;align=left;spacingLeft=6;fontStyle=5;overflow=hidden;whiteSpace=wrap;html=1;" parent="YKZeA6OB_1HaBt14HI22-409" vertex="1">
          <mxGeometry x="30" width="182.66666666666674" height="30" as="geometry">
            <mxRectangle width="182.66666666666674" height="30" as="alternateBounds" />
          </mxGeometry>
        </mxCell>
        <mxCell id="YKZeA6OB_1HaBt14HI22-412" value="" style="shape=tableRow;horizontal=0;startSize=0;swimlaneHead=0;swimlaneBody=0;fillColor=none;collapsible=0;dropTarget=0;points=[[0,0.5],[1,0.5]];portConstraint=eastwest;top=0;left=0;right=0;bottom=0;" parent="YKZeA6OB_1HaBt14HI22-408" vertex="1">
          <mxGeometry y="60" width="212.66666666666674" height="30" as="geometry" />
        </mxCell>
        <mxCell id="YKZeA6OB_1HaBt14HI22-413" value="" style="shape=partialRectangle;connectable=0;fillColor=none;top=0;left=0;bottom=0;right=0;editable=1;overflow=hidden;whiteSpace=wrap;html=1;" parent="YKZeA6OB_1HaBt14HI22-412" vertex="1">
          <mxGeometry width="30" height="30" as="geometry">
            <mxRectangle width="30" height="30" as="alternateBounds" />
          </mxGeometry>
        </mxCell>
        <mxCell id="YKZeA6OB_1HaBt14HI22-414" value="StudentAnswerContent" style="shape=partialRectangle;connectable=0;fillColor=none;top=0;left=0;bottom=0;right=0;align=left;spacingLeft=6;overflow=hidden;whiteSpace=wrap;html=1;" parent="YKZeA6OB_1HaBt14HI22-412" vertex="1">
          <mxGeometry x="30" width="182.66666666666674" height="30" as="geometry">
            <mxRectangle width="182.66666666666674" height="30" as="alternateBounds" />
          </mxGeometry>
        </mxCell>
        <mxCell id="YKZeA6OB_1HaBt14HI22-415" value="" style="shape=tableRow;horizontal=0;startSize=0;swimlaneHead=0;swimlaneBody=0;fillColor=none;collapsible=0;dropTarget=0;points=[[0,0.5],[1,0.5]];portConstraint=eastwest;top=0;left=0;right=0;bottom=0;" parent="YKZeA6OB_1HaBt14HI22-408" vertex="1">
          <mxGeometry y="90" width="212.66666666666674" height="30" as="geometry" />
        </mxCell>
        <mxCell id="YKZeA6OB_1HaBt14HI22-416" value="&lt;b&gt;FK&lt;/b&gt;" style="shape=partialRectangle;connectable=0;fillColor=none;top=0;left=0;bottom=0;right=0;editable=1;overflow=hidden;whiteSpace=wrap;html=1;" parent="YKZeA6OB_1HaBt14HI22-415" vertex="1">
          <mxGeometry width="30" height="30" as="geometry">
            <mxRectangle width="30" height="30" as="alternateBounds" />
          </mxGeometry>
        </mxCell>
        <mxCell id="YKZeA6OB_1HaBt14HI22-417" value="ExamQuestionId" style="shape=partialRectangle;connectable=0;fillColor=none;top=0;left=0;bottom=0;right=0;align=left;spacingLeft=6;overflow=hidden;whiteSpace=wrap;html=1;" parent="YKZeA6OB_1HaBt14HI22-415" vertex="1">
          <mxGeometry x="30" width="182.66666666666674" height="30" as="geometry">
            <mxRectangle width="182.66666666666674" height="30" as="alternateBounds" />
          </mxGeometry>
        </mxCell>
        <mxCell id="YKZeA6OB_1HaBt14HI22-418" value="" style="shape=tableRow;horizontal=0;startSize=0;swimlaneHead=0;swimlaneBody=0;fillColor=none;collapsible=0;dropTarget=0;points=[[0,0.5],[1,0.5]];portConstraint=eastwest;top=0;left=0;right=0;bottom=0;" parent="YKZeA6OB_1HaBt14HI22-408" vertex="1">
          <mxGeometry y="120" width="212.66666666666674" height="30" as="geometry" />
        </mxCell>
        <mxCell id="YKZeA6OB_1HaBt14HI22-419" value="&lt;b&gt;FK&lt;/b&gt;" style="shape=partialRectangle;connectable=0;fillColor=none;top=0;left=0;bottom=0;right=0;editable=1;overflow=hidden;whiteSpace=wrap;html=1;" parent="YKZeA6OB_1HaBt14HI22-418" vertex="1">
          <mxGeometry width="30" height="30" as="geometry">
            <mxRectangle width="30" height="30" as="alternateBounds" />
          </mxGeometry>
        </mxCell>
        <mxCell id="YKZeA6OB_1HaBt14HI22-420" value="&lt;span style=&quot;text-wrap: nowrap; text-align: center;&quot;&gt;StudentAssigned&lt;/span&gt;ExamId" style="shape=partialRectangle;connectable=0;fillColor=none;top=0;left=0;bottom=0;right=0;align=left;spacingLeft=6;overflow=hidden;whiteSpace=wrap;html=1;" parent="YKZeA6OB_1HaBt14HI22-418" vertex="1">
          <mxGeometry x="30" width="182.66666666666674" height="30" as="geometry">
            <mxRectangle width="182.66666666666674" height="30" as="alternateBounds" />
          </mxGeometry>
        </mxCell>
        <mxCell id="YKZeA6OB_1HaBt14HI22-421" style="edgeStyle=orthogonalEdgeStyle;rounded=0;orthogonalLoop=1;jettySize=auto;html=1;entryX=0;entryY=0.5;entryDx=0;entryDy=0;strokeColor=default;align=center;verticalAlign=middle;fontFamily=Helvetica;fontSize=12;fontColor=default;labelBackgroundColor=default;startArrow=ERone;startFill=0;startSize=8;endArrow=ERmany;endFill=0;endSize=8;" parent="1" source="YKZeA6OB_1HaBt14HI22-391" target="YKZeA6OB_1HaBt14HI22-418" edge="1">
          <mxGeometry relative="1" as="geometry" />
        </mxCell>
        <mxCell id="YKZeA6OB_1HaBt14HI22-422" style="edgeStyle=orthogonalEdgeStyle;rounded=0;orthogonalLoop=1;jettySize=auto;html=1;exitX=1;exitY=0.5;exitDx=0;exitDy=0;entryX=0;entryY=0.5;entryDx=0;entryDy=0;strokeColor=default;align=center;verticalAlign=middle;fontFamily=Helvetica;fontSize=12;fontColor=default;labelBackgroundColor=default;startArrow=ERone;startFill=0;startSize=8;endArrow=ERmany;endFill=0;endSize=8;" parent="1" source="YKZeA6OB_1HaBt14HI22-376" target="YKZeA6OB_1HaBt14HI22-415" edge="1">
          <mxGeometry relative="1" as="geometry" />
        </mxCell>
        <mxCell id="YKZeA6OB_1HaBt14HI22-448" value="UserAuth" style="shape=table;startSize=30;container=1;collapsible=1;childLayout=tableLayout;fixedRows=1;rowLines=0;fontStyle=1;align=center;resizeLast=1;html=1;fillColor=#d5e8d4;strokeColor=#82b366;" parent="1" vertex="1">
          <mxGeometry x="497" y="515" width="180" height="90" as="geometry" />
        </mxCell>
        <mxCell id="YKZeA6OB_1HaBt14HI22-449" value="" style="shape=tableRow;horizontal=0;startSize=0;swimlaneHead=0;swimlaneBody=0;fillColor=none;collapsible=0;dropTarget=0;points=[[0,0.5],[1,0.5]];portConstraint=eastwest;top=0;left=0;right=0;bottom=1;" parent="YKZeA6OB_1HaBt14HI22-448" vertex="1">
          <mxGeometry y="30" width="180" height="30" as="geometry" />
        </mxCell>
        <mxCell id="YKZeA6OB_1HaBt14HI22-450" value="PK" style="shape=partialRectangle;connectable=0;fillColor=none;top=0;left=0;bottom=0;right=0;fontStyle=1;overflow=hidden;whiteSpace=wrap;html=1;" parent="YKZeA6OB_1HaBt14HI22-449" vertex="1">
          <mxGeometry width="30" height="30" as="geometry">
            <mxRectangle width="30" height="30" as="alternateBounds" />
          </mxGeometry>
        </mxCell>
        <mxCell id="YKZeA6OB_1HaBt14HI22-451" value="UserId" style="shape=partialRectangle;connectable=0;fillColor=none;top=0;left=0;bottom=0;right=0;align=left;spacingLeft=6;fontStyle=5;overflow=hidden;whiteSpace=wrap;html=1;" parent="YKZeA6OB_1HaBt14HI22-449" vertex="1">
          <mxGeometry x="30" width="150" height="30" as="geometry">
            <mxRectangle width="150" height="30" as="alternateBounds" />
          </mxGeometry>
        </mxCell>
        <mxCell id="YKZeA6OB_1HaBt14HI22-461" style="shape=tableRow;horizontal=0;startSize=0;swimlaneHead=0;swimlaneBody=0;fillColor=none;collapsible=0;dropTarget=0;points=[[0,0.5],[1,0.5]];portConstraint=eastwest;top=0;left=0;right=0;bottom=0;" parent="YKZeA6OB_1HaBt14HI22-448" vertex="1">
          <mxGeometry y="60" width="180" height="30" as="geometry" />
        </mxCell>
        <mxCell id="YKZeA6OB_1HaBt14HI22-462" style="shape=partialRectangle;connectable=0;fillColor=none;top=0;left=0;bottom=0;right=0;editable=1;overflow=hidden;whiteSpace=wrap;html=1;" parent="YKZeA6OB_1HaBt14HI22-461" vertex="1">
          <mxGeometry width="30" height="30" as="geometry">
            <mxRectangle width="30" height="30" as="alternateBounds" />
          </mxGeometry>
        </mxCell>
        <mxCell id="YKZeA6OB_1HaBt14HI22-463" value="Password(&lt;span style=&quot;font-size:11.0pt;line-height:107%;&lt;br/&gt;font-family:&amp;quot;Aptos&amp;quot;,sans-serif;mso-ascii-theme-font:minor-latin;mso-fareast-font-family:&lt;br/&gt;Aptos;mso-fareast-theme-font:minor-latin;mso-hansi-theme-font:minor-latin;&lt;br/&gt;mso-bidi-font-family:Arial;mso-bidi-theme-font:minor-bidi;mso-ansi-language:&lt;br/&gt;EN-US;mso-fareast-language:EN-US;mso-bidi-language:AR-SA&quot;&gt;Hashed)&lt;/span&gt;" style="shape=partialRectangle;connectable=0;fillColor=none;top=0;left=0;bottom=0;right=0;align=left;spacingLeft=6;overflow=hidden;whiteSpace=wrap;html=1;" parent="YKZeA6OB_1HaBt14HI22-461" vertex="1">
          <mxGeometry x="30" width="150" height="30" as="geometry">
            <mxRectangle width="150" height="30" as="alternateBounds" />
          </mxGeometry>
        </mxCell>
        <mxCell id="YKZeA6OB_1HaBt14HI22-471" value="" style="edgeStyle=orthogonalEdgeStyle;rounded=0;orthogonalLoop=1;jettySize=auto;html=1;strokeColor=default;align=center;verticalAlign=middle;fontFamily=Helvetica;fontSize=12;fontColor=default;labelBackgroundColor=default;startArrow=ERone;startFill=0;startSize=8;endArrow=ERmany;endFill=0;endSize=8;entryX=0;entryY=0.5;entryDx=0;entryDy=0;exitX=1;exitY=0.5;exitDx=0;exitDy=0;" parent="1" source="YKZeA6OB_1HaBt14HI22-213" target="YKZeA6OB_1HaBt14HI22-449" edge="1">
          <mxGeometry relative="1" as="geometry">
            <mxPoint x="503" y="530" as="sourcePoint" />
            <mxPoint x="628" y="650" as="targetPoint" />
          </mxGeometry>
        </mxCell>
        <mxCell id="YKZeA6OB_1HaBt14HI22-472" value="QuestionChoices" style="shape=table;startSize=30;container=1;collapsible=1;childLayout=tableLayout;fixedRows=1;rowLines=0;fontStyle=1;align=center;resizeLast=1;html=1;fillColor=#d5e8d4;strokeColor=#82b366;" parent="1" vertex="1">
          <mxGeometry x="1353" y="418" width="180" height="120" as="geometry" />
        </mxCell>
        <mxCell id="YKZeA6OB_1HaBt14HI22-473" value="" style="shape=tableRow;horizontal=0;startSize=0;swimlaneHead=0;swimlaneBody=0;fillColor=none;collapsible=0;dropTarget=0;points=[[0,0.5],[1,0.5]];portConstraint=eastwest;top=0;left=0;right=0;bottom=1;" parent="YKZeA6OB_1HaBt14HI22-472" vertex="1">
          <mxGeometry y="30" width="180" height="30" as="geometry" />
        </mxCell>
        <mxCell id="YKZeA6OB_1HaBt14HI22-474" value="PK" style="shape=partialRectangle;connectable=0;fillColor=none;top=0;left=0;bottom=0;right=0;fontStyle=1;overflow=hidden;whiteSpace=wrap;html=1;" parent="YKZeA6OB_1HaBt14HI22-473" vertex="1">
          <mxGeometry width="30" height="30" as="geometry">
            <mxRectangle width="30" height="30" as="alternateBounds" />
          </mxGeometry>
        </mxCell>
        <mxCell id="YKZeA6OB_1HaBt14HI22-475" value="QuestionChoiceId" style="shape=partialRectangle;connectable=0;fillColor=none;top=0;left=0;bottom=0;right=0;align=left;spacingLeft=6;fontStyle=5;overflow=hidden;whiteSpace=wrap;html=1;" parent="YKZeA6OB_1HaBt14HI22-473" vertex="1">
          <mxGeometry x="30" width="150" height="30" as="geometry">
            <mxRectangle width="150" height="30" as="alternateBounds" />
          </mxGeometry>
        </mxCell>
        <mxCell id="YKZeA6OB_1HaBt14HI22-479" value="" style="shape=tableRow;horizontal=0;startSize=0;swimlaneHead=0;swimlaneBody=0;fillColor=none;collapsible=0;dropTarget=0;points=[[0,0.5],[1,0.5]];portConstraint=eastwest;top=0;left=0;right=0;bottom=0;" parent="YKZeA6OB_1HaBt14HI22-472" vertex="1">
          <mxGeometry y="60" width="180" height="30" as="geometry" />
        </mxCell>
        <mxCell id="YKZeA6OB_1HaBt14HI22-480" value="&lt;b&gt;FK&lt;/b&gt;" style="shape=partialRectangle;connectable=0;fillColor=none;top=0;left=0;bottom=0;right=0;editable=1;overflow=hidden;whiteSpace=wrap;html=1;" parent="YKZeA6OB_1HaBt14HI22-479" vertex="1">
          <mxGeometry width="30" height="30" as="geometry">
            <mxRectangle width="30" height="30" as="alternateBounds" />
          </mxGeometry>
        </mxCell>
        <mxCell id="YKZeA6OB_1HaBt14HI22-481" value="QuestionId" style="shape=partialRectangle;connectable=0;fillColor=none;top=0;left=0;bottom=0;right=0;align=left;spacingLeft=6;overflow=hidden;whiteSpace=wrap;html=1;" parent="YKZeA6OB_1HaBt14HI22-479" vertex="1">
          <mxGeometry x="30" width="150" height="30" as="geometry">
            <mxRectangle width="150" height="30" as="alternateBounds" />
          </mxGeometry>
        </mxCell>
        <mxCell id="YKZeA6OB_1HaBt14HI22-482" value="" style="shape=tableRow;horizontal=0;startSize=0;swimlaneHead=0;swimlaneBody=0;fillColor=none;collapsible=0;dropTarget=0;points=[[0,0.5],[1,0.5]];portConstraint=eastwest;top=0;left=0;right=0;bottom=0;" parent="YKZeA6OB_1HaBt14HI22-472" vertex="1">
          <mxGeometry y="90" width="180" height="30" as="geometry" />
        </mxCell>
        <mxCell id="YKZeA6OB_1HaBt14HI22-483" value="&lt;b&gt;FK&lt;/b&gt;" style="shape=partialRectangle;connectable=0;fillColor=none;top=0;left=0;bottom=0;right=0;editable=1;overflow=hidden;whiteSpace=wrap;html=1;" parent="YKZeA6OB_1HaBt14HI22-482" vertex="1">
          <mxGeometry width="30" height="30" as="geometry">
            <mxRectangle width="30" height="30" as="alternateBounds" />
          </mxGeometry>
        </mxCell>
        <mxCell id="YKZeA6OB_1HaBt14HI22-484" value="Choice" style="shape=partialRectangle;connectable=0;fillColor=none;top=0;left=0;bottom=0;right=0;align=left;spacingLeft=6;overflow=hidden;whiteSpace=wrap;html=1;" parent="YKZeA6OB_1HaBt14HI22-482" vertex="1">
          <mxGeometry x="30" width="150" height="30" as="geometry">
            <mxRectangle width="150" height="30" as="alternateBounds" />
          </mxGeometry>
        </mxCell>
        <mxCell id="YKZeA6OB_1HaBt14HI22-485" style="edgeStyle=orthogonalEdgeStyle;rounded=0;orthogonalLoop=1;jettySize=auto;html=1;entryX=0;entryY=0.5;entryDx=0;entryDy=0;strokeColor=default;align=center;verticalAlign=middle;fontFamily=Helvetica;fontSize=12;fontColor=default;labelBackgroundColor=default;startArrow=ERone;startFill=0;startSize=8;endArrow=ERmany;endFill=0;endSize=8;exitX=1;exitY=0.5;exitDx=0;exitDy=0;" parent="1" source="YKZeA6OB_1HaBt14HI22-307" target="YKZeA6OB_1HaBt14HI22-479" edge="1">
          <mxGeometry relative="1" as="geometry">
            <mxPoint x="1212" y="559" as="sourcePoint" />
            <mxPoint x="1363" y="790" as="targetPoint" />
          </mxGeometry>
        </mxCell>
      </root>
    </mxGraphModel>
  </diagram>
  <diagram id="L_9EjrnoRiqUyRTx9JOJ" name="ER Diagram">
    <mxGraphModel dx="3293" dy="1438" grid="0" gridSize="10" guides="1" tooltips="1" connect="1" arrows="1" fold="1" page="0" pageScale="1" pageWidth="827" pageHeight="1169" math="0" shadow="0">
      <root>
        <mxCell id="0" />
        <mxCell id="1" parent="0" />
        <mxCell id="q3ETB64ECVbd5WmJ5TXc-1" style="edgeStyle=none;rounded=0;orthogonalLoop=1;jettySize=auto;html=1;exitX=1;exitY=0;exitDx=0;exitDy=0;entryX=0;entryY=0.5;entryDx=0;entryDy=0;endArrow=none;endFill=0;labelBackgroundColor=none;fontColor=default;" parent="1" source="q3ETB64ECVbd5WmJ5TXc-2" target="q3ETB64ECVbd5WmJ5TXc-95" edge="1">
          <mxGeometry relative="1" as="geometry" />
        </mxCell>
        <mxCell id="q3ETB64ECVbd5WmJ5TXc-2" value="Student" style="whiteSpace=wrap;html=1;align=center;labelBackgroundColor=none;" parent="1" vertex="1">
          <mxGeometry x="-603" y="224" width="100" height="40" as="geometry" />
        </mxCell>
        <mxCell id="q3ETB64ECVbd5WmJ5TXc-3" style="edgeStyle=none;rounded=0;orthogonalLoop=1;jettySize=auto;html=1;exitX=1;exitY=1;exitDx=0;exitDy=0;entryX=0;entryY=0;entryDx=0;entryDy=0;endArrow=none;endFill=0;labelBackgroundColor=none;fontColor=default;" parent="1" source="q3ETB64ECVbd5WmJ5TXc-7" target="q3ETB64ECVbd5WmJ5TXc-139" edge="1">
          <mxGeometry relative="1" as="geometry" />
        </mxCell>
        <mxCell id="q3ETB64ECVbd5WmJ5TXc-4" style="edgeStyle=none;rounded=0;orthogonalLoop=1;jettySize=auto;html=1;exitX=1;exitY=0.75;exitDx=0;exitDy=0;entryX=0;entryY=0.5;entryDx=0;entryDy=0;endArrow=none;endFill=0;labelBackgroundColor=none;fontColor=default;" parent="1" source="q3ETB64ECVbd5WmJ5TXc-7" target="q3ETB64ECVbd5WmJ5TXc-112" edge="1">
          <mxGeometry relative="1" as="geometry" />
        </mxCell>
        <mxCell id="q3ETB64ECVbd5WmJ5TXc-5" style="edgeStyle=none;rounded=0;orthogonalLoop=1;jettySize=auto;html=1;exitX=1;exitY=0.5;exitDx=0;exitDy=0;entryX=0;entryY=0.5;entryDx=0;entryDy=0;endArrow=none;endFill=0;labelBackgroundColor=none;fontColor=default;" parent="1" source="q3ETB64ECVbd5WmJ5TXc-7" target="q3ETB64ECVbd5WmJ5TXc-113" edge="1">
          <mxGeometry relative="1" as="geometry" />
        </mxCell>
        <mxCell id="q3ETB64ECVbd5WmJ5TXc-6" style="edgeStyle=none;rounded=0;orthogonalLoop=1;jettySize=auto;html=1;exitX=0;exitY=0;exitDx=0;exitDy=0;entryX=1;entryY=1;entryDx=0;entryDy=0;endArrow=none;endFill=0;labelBackgroundColor=none;fontColor=default;" parent="1" source="q3ETB64ECVbd5WmJ5TXc-7" target="q3ETB64ECVbd5WmJ5TXc-126" edge="1">
          <mxGeometry relative="1" as="geometry" />
        </mxCell>
        <mxCell id="q3ETB64ECVbd5WmJ5TXc-7" value="Instructor" style="whiteSpace=wrap;html=1;align=center;labelBackgroundColor=none;" parent="1" vertex="1">
          <mxGeometry x="620" y="160" width="100" height="40" as="geometry" />
        </mxCell>
        <mxCell id="q3ETB64ECVbd5WmJ5TXc-8" value="Department" style="whiteSpace=wrap;html=1;align=center;labelBackgroundColor=none;" parent="1" vertex="1">
          <mxGeometry x="170" y="160" width="100" height="40" as="geometry" />
        </mxCell>
        <mxCell id="q3ETB64ECVbd5WmJ5TXc-9" style="edgeStyle=none;rounded=0;orthogonalLoop=1;jettySize=auto;html=1;exitX=1;exitY=0;exitDx=0;exitDy=0;entryX=0.311;entryY=1.06;entryDx=0;entryDy=0;endArrow=none;endFill=0;entryPerimeter=0;labelBackgroundColor=none;fontColor=default;" parent="1" source="q3ETB64ECVbd5WmJ5TXc-10" target="q3ETB64ECVbd5WmJ5TXc-100" edge="1">
          <mxGeometry relative="1" as="geometry" />
        </mxCell>
        <mxCell id="q3ETB64ECVbd5WmJ5TXc-10" value="Branch" style="whiteSpace=wrap;html=1;align=center;labelBackgroundColor=none;" parent="1" vertex="1">
          <mxGeometry x="25" y="40" width="120" height="40" as="geometry" />
        </mxCell>
        <mxCell id="q3ETB64ECVbd5WmJ5TXc-11" style="edgeStyle=none;rounded=0;orthogonalLoop=1;jettySize=auto;html=1;exitX=1;exitY=0;exitDx=0;exitDy=0;entryX=0;entryY=0.5;entryDx=0;entryDy=0;endArrow=none;endFill=0;labelBackgroundColor=none;fontColor=default;" parent="1" source="q3ETB64ECVbd5WmJ5TXc-14" target="q3ETB64ECVbd5WmJ5TXc-138" edge="1">
          <mxGeometry relative="1" as="geometry" />
        </mxCell>
        <mxCell id="q3ETB64ECVbd5WmJ5TXc-12" style="edgeStyle=none;rounded=0;orthogonalLoop=1;jettySize=auto;html=1;exitX=1;exitY=0.5;exitDx=0;exitDy=0;entryX=0;entryY=0.5;entryDx=0;entryDy=0;endArrow=none;endFill=0;labelBackgroundColor=none;fontColor=default;" parent="1" source="q3ETB64ECVbd5WmJ5TXc-14" target="q3ETB64ECVbd5WmJ5TXc-111" edge="1">
          <mxGeometry relative="1" as="geometry" />
        </mxCell>
        <mxCell id="q3ETB64ECVbd5WmJ5TXc-13" style="edgeStyle=none;rounded=0;orthogonalLoop=1;jettySize=auto;html=1;exitX=1;exitY=1;exitDx=0;exitDy=0;entryX=0;entryY=0.5;entryDx=0;entryDy=0;endArrow=none;endFill=0;labelBackgroundColor=none;fontColor=default;" parent="1" source="q3ETB64ECVbd5WmJ5TXc-14" target="q3ETB64ECVbd5WmJ5TXc-110" edge="1">
          <mxGeometry relative="1" as="geometry" />
        </mxCell>
        <mxCell id="q3ETB64ECVbd5WmJ5TXc-14" value="Course" style="whiteSpace=wrap;html=1;align=center;labelBackgroundColor=none;" parent="1" vertex="1">
          <mxGeometry x="620" y="390" width="100" height="40" as="geometry" />
        </mxCell>
        <mxCell id="q3ETB64ECVbd5WmJ5TXc-15" style="rounded=0;orthogonalLoop=1;jettySize=auto;html=1;exitX=0.25;exitY=1;exitDx=0;exitDy=0;entryX=0.5;entryY=0;entryDx=0;entryDy=0;endArrow=none;endFill=0;labelBackgroundColor=none;fontColor=default;" parent="1" source="q3ETB64ECVbd5WmJ5TXc-17" target="q3ETB64ECVbd5WmJ5TXc-147" edge="1">
          <mxGeometry relative="1" as="geometry" />
        </mxCell>
        <mxCell id="q3ETB64ECVbd5WmJ5TXc-16" style="edgeStyle=none;rounded=0;orthogonalLoop=1;jettySize=auto;html=1;exitX=0.75;exitY=1;exitDx=0;exitDy=0;entryX=0.5;entryY=0;entryDx=0;entryDy=0;endArrow=none;endFill=0;labelBackgroundColor=none;fontColor=default;" parent="1" source="q3ETB64ECVbd5WmJ5TXc-17" target="q3ETB64ECVbd5WmJ5TXc-148" edge="1">
          <mxGeometry relative="1" as="geometry" />
        </mxCell>
        <mxCell id="q3ETB64ECVbd5WmJ5TXc-17" value="Exam" style="whiteSpace=wrap;html=1;align=center;labelBackgroundColor=none;" parent="1" vertex="1">
          <mxGeometry x="170" y="620" width="100" height="40" as="geometry" />
        </mxCell>
        <mxCell id="q3ETB64ECVbd5WmJ5TXc-18" style="edgeStyle=none;rounded=0;orthogonalLoop=1;jettySize=auto;html=1;exitX=0;exitY=1;exitDx=0;exitDy=0;endArrow=none;endFill=0;labelBackgroundColor=none;fontColor=default;" parent="1" source="q3ETB64ECVbd5WmJ5TXc-20" target="q3ETB64ECVbd5WmJ5TXc-105" edge="1">
          <mxGeometry relative="1" as="geometry" />
        </mxCell>
        <mxCell id="q3ETB64ECVbd5WmJ5TXc-19" style="edgeStyle=none;rounded=0;orthogonalLoop=1;jettySize=auto;html=1;exitX=1;exitY=1;exitDx=0;exitDy=0;entryX=0;entryY=0;entryDx=0;entryDy=0;endArrow=none;endFill=0;labelBackgroundColor=none;fontColor=default;" parent="1" source="q3ETB64ECVbd5WmJ5TXc-20" target="q3ETB64ECVbd5WmJ5TXc-106" edge="1">
          <mxGeometry relative="1" as="geometry" />
        </mxCell>
        <mxCell id="q3ETB64ECVbd5WmJ5TXc-20" value="Question" style="whiteSpace=wrap;html=1;align=center;labelBackgroundColor=none;" parent="1" vertex="1">
          <mxGeometry x="-280" y="620" width="100" height="40" as="geometry" />
        </mxCell>
        <mxCell id="q3ETB64ECVbd5WmJ5TXc-23" style="edgeStyle=orthogonalEdgeStyle;rounded=0;orthogonalLoop=1;jettySize=auto;html=1;exitX=0.5;exitY=0;exitDx=0;exitDy=0;entryX=0.5;entryY=1;entryDx=0;entryDy=0;endArrow=none;endFill=0;labelBackgroundColor=none;fontColor=default;" parent="1" source="q3ETB64ECVbd5WmJ5TXc-24" target="q3ETB64ECVbd5WmJ5TXc-146" edge="1">
          <mxGeometry relative="1" as="geometry" />
        </mxCell>
        <mxCell id="q3ETB64ECVbd5WmJ5TXc-24" value="takes" style="shape=rhombus;perimeter=rhombusPerimeter;whiteSpace=wrap;html=1;align=center;labelBackgroundColor=none;" parent="1" vertex="1">
          <mxGeometry x="-14" y="330" width="80" height="65" as="geometry" />
        </mxCell>
        <mxCell id="q3ETB64ECVbd5WmJ5TXc-25" style="edgeStyle=none;rounded=0;orthogonalLoop=1;jettySize=auto;html=1;exitX=0.5;exitY=1;exitDx=0;exitDy=0;entryX=0.5;entryY=0;entryDx=0;entryDy=0;endArrow=none;endFill=0;labelBackgroundColor=none;fontColor=default;" parent="1" source="q3ETB64ECVbd5WmJ5TXc-26" target="q3ETB64ECVbd5WmJ5TXc-129" edge="1">
          <mxGeometry relative="1" as="geometry" />
        </mxCell>
        <mxCell id="q3ETB64ECVbd5WmJ5TXc-26" value="answers" style="shape=rhombus;perimeter=rhombusPerimeter;whiteSpace=wrap;html=1;align=center;labelBackgroundColor=none;" parent="1" vertex="1">
          <mxGeometry x="-213" y="413" width="80" height="60" as="geometry" />
        </mxCell>
        <mxCell id="q3ETB64ECVbd5WmJ5TXc-27" value="" style="shape=link;html=1;rounded=0;endArrow=ERmany;endFill=0;entryX=1;entryY=1;entryDx=0;entryDy=0;exitX=0;exitY=0.5;exitDx=0;exitDy=0;labelBackgroundColor=none;fontColor=default;" parent="1" source="q3ETB64ECVbd5WmJ5TXc-24" target="q3ETB64ECVbd5WmJ5TXc-2" edge="1">
          <mxGeometry relative="1" as="geometry">
            <mxPoint x="30" y="230" as="sourcePoint" />
            <mxPoint x="-110" y="230" as="targetPoint" />
          </mxGeometry>
        </mxCell>
        <mxCell id="q3ETB64ECVbd5WmJ5TXc-28" value="M" style="resizable=0;html=1;align=right;verticalAlign=bottom;labelBackgroundColor=none;" parent="q3ETB64ECVbd5WmJ5TXc-27" connectable="0" vertex="1">
          <mxGeometry x="1" relative="1" as="geometry">
            <mxPoint x="14" as="offset" />
          </mxGeometry>
        </mxCell>
        <mxCell id="q3ETB64ECVbd5WmJ5TXc-29" value="" style="endArrow=none;html=1;rounded=0;exitX=1;exitY=0.5;exitDx=0;exitDy=0;entryX=0;entryY=0;entryDx=0;entryDy=0;labelBackgroundColor=none;fontColor=default;" parent="1" source="q3ETB64ECVbd5WmJ5TXc-24" target="q3ETB64ECVbd5WmJ5TXc-14" edge="1">
          <mxGeometry relative="1" as="geometry">
            <mxPoint x="50" y="190" as="sourcePoint" />
            <mxPoint x="320" y="310" as="targetPoint" />
          </mxGeometry>
        </mxCell>
        <mxCell id="q3ETB64ECVbd5WmJ5TXc-30" value="M" style="resizable=0;html=1;align=right;verticalAlign=bottom;labelBackgroundColor=none;" parent="q3ETB64ECVbd5WmJ5TXc-29" connectable="0" vertex="1">
          <mxGeometry x="1" relative="1" as="geometry">
            <mxPoint x="-4" as="offset" />
          </mxGeometry>
        </mxCell>
        <mxCell id="q3ETB64ECVbd5WmJ5TXc-31" value="" style="shape=link;html=1;rounded=0;endArrow=ERmany;endFill=0;entryX=0.75;entryY=1;entryDx=0;entryDy=0;exitX=0.5;exitY=0;exitDx=0;exitDy=0;labelBackgroundColor=none;fontColor=default;" parent="1" source="q3ETB64ECVbd5WmJ5TXc-26" target="q3ETB64ECVbd5WmJ5TXc-2" edge="1">
          <mxGeometry relative="1" as="geometry">
            <mxPoint x="190" y="420" as="sourcePoint" />
            <mxPoint x="-170" y="210" as="targetPoint" />
          </mxGeometry>
        </mxCell>
        <mxCell id="q3ETB64ECVbd5WmJ5TXc-32" value="M" style="resizable=0;html=1;align=right;verticalAlign=bottom;labelBackgroundColor=none;" parent="q3ETB64ECVbd5WmJ5TXc-31" connectable="0" vertex="1">
          <mxGeometry x="1" relative="1" as="geometry">
            <mxPoint x="25" y="15" as="offset" />
          </mxGeometry>
        </mxCell>
        <mxCell id="q3ETB64ECVbd5WmJ5TXc-33" value="" style="shape=link;html=1;rounded=0;endArrow=ERmany;endFill=0;entryX=0.75;entryY=0;entryDx=0;entryDy=0;exitX=0;exitY=0.5;exitDx=0;exitDy=0;labelBackgroundColor=none;fontColor=default;" parent="1" source="q3ETB64ECVbd5WmJ5TXc-26" target="q3ETB64ECVbd5WmJ5TXc-20" edge="1">
          <mxGeometry relative="1" as="geometry">
            <mxPoint x="-30" y="420" as="sourcePoint" />
            <mxPoint x="-176" y="630" as="targetPoint" />
          </mxGeometry>
        </mxCell>
        <mxCell id="q3ETB64ECVbd5WmJ5TXc-34" value="M" style="resizable=0;html=1;align=right;verticalAlign=bottom;labelBackgroundColor=none;" parent="q3ETB64ECVbd5WmJ5TXc-33" connectable="0" vertex="1">
          <mxGeometry x="1" relative="1" as="geometry">
            <mxPoint x="26" y="-1" as="offset" />
          </mxGeometry>
        </mxCell>
        <mxCell id="q3ETB64ECVbd5WmJ5TXc-35" value="works" style="shape=rhombus;perimeter=rhombusPerimeter;whiteSpace=wrap;html=1;align=center;labelBackgroundColor=none;" parent="1" vertex="1">
          <mxGeometry x="400" y="150" width="80" height="60" as="geometry" />
        </mxCell>
        <mxCell id="q3ETB64ECVbd5WmJ5TXc-36" value="manages" style="shape=rhombus;perimeter=rhombusPerimeter;whiteSpace=wrap;html=1;align=center;labelBackgroundColor=none;" parent="1" vertex="1">
          <mxGeometry x="400" y="270" width="80" height="60" as="geometry" />
        </mxCell>
        <mxCell id="q3ETB64ECVbd5WmJ5TXc-37" value="" style="shape=link;html=1;rounded=0;endArrow=ERmany;endFill=0;entryX=0;entryY=0.5;entryDx=0;entryDy=0;labelBackgroundColor=none;fontColor=default;" parent="1" target="q3ETB64ECVbd5WmJ5TXc-7" edge="1">
          <mxGeometry relative="1" as="geometry">
            <mxPoint x="480" y="180" as="sourcePoint" />
            <mxPoint x="-170" y="190" as="targetPoint" />
          </mxGeometry>
        </mxCell>
        <mxCell id="q3ETB64ECVbd5WmJ5TXc-38" value="M" style="resizable=0;html=1;align=right;verticalAlign=bottom;labelBackgroundColor=none;" parent="q3ETB64ECVbd5WmJ5TXc-37" connectable="0" vertex="1">
          <mxGeometry x="1" relative="1" as="geometry">
            <mxPoint x="-2" as="offset" />
          </mxGeometry>
        </mxCell>
        <mxCell id="q3ETB64ECVbd5WmJ5TXc-39" value="" style="endArrow=none;html=1;rounded=0;entryX=1;entryY=0.5;entryDx=0;entryDy=0;exitX=0;exitY=0.5;exitDx=0;exitDy=0;labelBackgroundColor=none;fontColor=default;" parent="1" source="q3ETB64ECVbd5WmJ5TXc-35" target="q3ETB64ECVbd5WmJ5TXc-8" edge="1">
          <mxGeometry relative="1" as="geometry">
            <mxPoint x="50" y="190" as="sourcePoint" />
            <mxPoint x="180" y="190" as="targetPoint" />
          </mxGeometry>
        </mxCell>
        <mxCell id="q3ETB64ECVbd5WmJ5TXc-40" value="1" style="resizable=0;html=1;align=right;verticalAlign=bottom;labelBackgroundColor=none;" parent="q3ETB64ECVbd5WmJ5TXc-39" connectable="0" vertex="1">
          <mxGeometry x="1" relative="1" as="geometry">
            <mxPoint x="10" as="offset" />
          </mxGeometry>
        </mxCell>
        <mxCell id="q3ETB64ECVbd5WmJ5TXc-41" value="" style="endArrow=none;html=1;rounded=0;entryX=0;entryY=1;entryDx=0;entryDy=0;exitX=1;exitY=0.5;exitDx=0;exitDy=0;labelBackgroundColor=none;fontColor=default;" parent="1" source="q3ETB64ECVbd5WmJ5TXc-36" target="q3ETB64ECVbd5WmJ5TXc-7" edge="1">
          <mxGeometry relative="1" as="geometry">
            <mxPoint x="410" y="190" as="sourcePoint" />
            <mxPoint x="280" y="190" as="targetPoint" />
          </mxGeometry>
        </mxCell>
        <mxCell id="q3ETB64ECVbd5WmJ5TXc-42" value="1" style="resizable=0;html=1;align=right;verticalAlign=bottom;labelBackgroundColor=none;" parent="q3ETB64ECVbd5WmJ5TXc-41" connectable="0" vertex="1">
          <mxGeometry x="1" relative="1" as="geometry">
            <mxPoint x="-3" as="offset" />
          </mxGeometry>
        </mxCell>
        <mxCell id="q3ETB64ECVbd5WmJ5TXc-43" value="" style="shape=link;html=1;rounded=0;endArrow=ERmany;endFill=0;entryX=1;entryY=1;entryDx=0;entryDy=0;exitX=0;exitY=0.5;exitDx=0;exitDy=0;labelBackgroundColor=none;fontColor=default;" parent="1" source="q3ETB64ECVbd5WmJ5TXc-36" target="q3ETB64ECVbd5WmJ5TXc-8" edge="1">
          <mxGeometry relative="1" as="geometry">
            <mxPoint x="490" y="190" as="sourcePoint" />
            <mxPoint x="630" y="190" as="targetPoint" />
          </mxGeometry>
        </mxCell>
        <mxCell id="q3ETB64ECVbd5WmJ5TXc-44" value="1" style="resizable=0;html=1;align=right;verticalAlign=bottom;labelBackgroundColor=none;" parent="q3ETB64ECVbd5WmJ5TXc-43" connectable="0" vertex="1">
          <mxGeometry x="1" relative="1" as="geometry">
            <mxPoint x="10" as="offset" />
          </mxGeometry>
        </mxCell>
        <mxCell id="q3ETB64ECVbd5WmJ5TXc-45" value="teaches" style="shape=rhombus;perimeter=rhombusPerimeter;whiteSpace=wrap;html=1;align=center;labelBackgroundColor=none;" parent="1" vertex="1">
          <mxGeometry x="630" y="270" width="80" height="60" as="geometry" />
        </mxCell>
        <mxCell id="q3ETB64ECVbd5WmJ5TXc-46" value="" style="endArrow=none;html=1;rounded=0;entryX=0.5;entryY=1;entryDx=0;entryDy=0;exitX=0.5;exitY=0;exitDx=0;exitDy=0;labelBackgroundColor=none;fontColor=default;" parent="1" source="q3ETB64ECVbd5WmJ5TXc-45" target="q3ETB64ECVbd5WmJ5TXc-7" edge="1">
          <mxGeometry relative="1" as="geometry">
            <mxPoint x="490" y="260" as="sourcePoint" />
            <mxPoint x="630" y="210" as="targetPoint" />
          </mxGeometry>
        </mxCell>
        <mxCell id="q3ETB64ECVbd5WmJ5TXc-47" value="1" style="resizable=0;html=1;align=right;verticalAlign=bottom;labelBackgroundColor=none;" parent="q3ETB64ECVbd5WmJ5TXc-46" connectable="0" vertex="1">
          <mxGeometry x="1" relative="1" as="geometry">
            <mxPoint x="-3" y="17" as="offset" />
          </mxGeometry>
        </mxCell>
        <mxCell id="q3ETB64ECVbd5WmJ5TXc-48" value="" style="shape=link;html=1;rounded=0;endArrow=ERmany;endFill=0;entryX=0.5;entryY=0;entryDx=0;entryDy=0;labelBackgroundColor=none;fontColor=default;" parent="1" source="q3ETB64ECVbd5WmJ5TXc-45" target="q3ETB64ECVbd5WmJ5TXc-14" edge="1">
          <mxGeometry relative="1" as="geometry">
            <mxPoint x="490" y="190" as="sourcePoint" />
            <mxPoint x="630" y="190" as="targetPoint" />
          </mxGeometry>
        </mxCell>
        <mxCell id="q3ETB64ECVbd5WmJ5TXc-49" value="M" style="resizable=0;html=1;align=right;verticalAlign=bottom;labelBackgroundColor=none;" parent="q3ETB64ECVbd5WmJ5TXc-48" connectable="0" vertex="1">
          <mxGeometry x="1" relative="1" as="geometry">
            <mxPoint x="-5" as="offset" />
          </mxGeometry>
        </mxCell>
        <mxCell id="q3ETB64ECVbd5WmJ5TXc-50" value="generates" style="shape=rhombus;perimeter=rhombusPerimeter;whiteSpace=wrap;html=1;align=center;labelBackgroundColor=none;" parent="1" vertex="1">
          <mxGeometry x="180" y="500" width="80" height="60" as="geometry" />
        </mxCell>
        <mxCell id="q3ETB64ECVbd5WmJ5TXc-51" value="" style="endArrow=none;html=1;rounded=0;entryX=0.14;entryY=1.025;entryDx=0;entryDy=0;entryPerimeter=0;exitX=0.5;exitY=0;exitDx=0;exitDy=0;labelBackgroundColor=none;fontColor=default;" parent="1" source="q3ETB64ECVbd5WmJ5TXc-50" target="q3ETB64ECVbd5WmJ5TXc-7" edge="1">
          <mxGeometry relative="1" as="geometry">
            <mxPoint x="270" y="520" as="sourcePoint" />
            <mxPoint x="635" y="220" as="targetPoint" />
          </mxGeometry>
        </mxCell>
        <mxCell id="q3ETB64ECVbd5WmJ5TXc-52" value="1" style="resizable=0;html=1;align=right;verticalAlign=bottom;labelBackgroundColor=none;" parent="q3ETB64ECVbd5WmJ5TXc-51" connectable="0" vertex="1">
          <mxGeometry x="1" relative="1" as="geometry">
            <mxPoint x="1" y="19" as="offset" />
          </mxGeometry>
        </mxCell>
        <mxCell id="q3ETB64ECVbd5WmJ5TXc-53" value="" style="shape=link;html=1;rounded=0;endArrow=ERmany;endFill=0;entryX=0.5;entryY=0;entryDx=0;entryDy=0;exitX=0.5;exitY=1;exitDx=0;exitDy=0;labelBackgroundColor=none;fontColor=default;" parent="1" source="q3ETB64ECVbd5WmJ5TXc-50" target="q3ETB64ECVbd5WmJ5TXc-17" edge="1">
          <mxGeometry relative="1" as="geometry">
            <mxPoint x="490" y="190" as="sourcePoint" />
            <mxPoint x="630" y="190" as="targetPoint" />
          </mxGeometry>
        </mxCell>
        <mxCell id="q3ETB64ECVbd5WmJ5TXc-54" value="M" style="resizable=0;html=1;align=right;verticalAlign=bottom;labelBackgroundColor=none;" parent="q3ETB64ECVbd5WmJ5TXc-53" connectable="0" vertex="1">
          <mxGeometry x="1" relative="1" as="geometry">
            <mxPoint x="-4" y="1" as="offset" />
          </mxGeometry>
        </mxCell>
        <mxCell id="q3ETB64ECVbd5WmJ5TXc-60" value="has" style="shape=rhombus;perimeter=rhombusPerimeter;whiteSpace=wrap;html=1;align=center;labelBackgroundColor=none;" parent="1" vertex="1">
          <mxGeometry x="400" y="500" width="80" height="60" as="geometry" />
        </mxCell>
        <mxCell id="q3ETB64ECVbd5WmJ5TXc-61" value="" style="shape=link;html=1;rounded=0;endArrow=ERmany;endFill=0;exitX=0;exitY=0.5;exitDx=0;exitDy=0;entryX=1;entryY=0;entryDx=0;entryDy=0;labelBackgroundColor=none;fontColor=default;" parent="1" source="q3ETB64ECVbd5WmJ5TXc-60" target="q3ETB64ECVbd5WmJ5TXc-17" edge="1">
          <mxGeometry relative="1" as="geometry">
            <mxPoint x="680" y="570" as="sourcePoint" />
            <mxPoint x="680" y="630" as="targetPoint" />
          </mxGeometry>
        </mxCell>
        <mxCell id="q3ETB64ECVbd5WmJ5TXc-62" value="M" style="resizable=0;html=1;align=right;verticalAlign=bottom;labelBackgroundColor=none;" parent="q3ETB64ECVbd5WmJ5TXc-61" connectable="0" vertex="1">
          <mxGeometry x="1" relative="1" as="geometry">
            <mxPoint x="-5" as="offset" />
          </mxGeometry>
        </mxCell>
        <mxCell id="q3ETB64ECVbd5WmJ5TXc-63" value="" style="shape=link;html=1;rounded=0;endArrow=ERmany;endFill=0;entryX=0;entryY=1;entryDx=0;entryDy=0;exitX=1;exitY=0.5;exitDx=0;exitDy=0;labelBackgroundColor=none;fontColor=default;" parent="1" source="q3ETB64ECVbd5WmJ5TXc-60" target="q3ETB64ECVbd5WmJ5TXc-14" edge="1">
          <mxGeometry relative="1" as="geometry">
            <mxPoint x="-220" y="280" as="sourcePoint" />
            <mxPoint x="-220" y="210" as="targetPoint" />
          </mxGeometry>
        </mxCell>
        <mxCell id="q3ETB64ECVbd5WmJ5TXc-64" value="1" style="resizable=0;html=1;align=right;verticalAlign=bottom;labelBackgroundColor=none;" parent="q3ETB64ECVbd5WmJ5TXc-63" connectable="0" vertex="1">
          <mxGeometry x="1" relative="1" as="geometry">
            <mxPoint x="10" y="17" as="offset" />
          </mxGeometry>
        </mxCell>
        <mxCell id="q3ETB64ECVbd5WmJ5TXc-65" value="part of" style="shape=rhombus;perimeter=rhombusPerimeter;whiteSpace=wrap;html=1;align=center;labelBackgroundColor=none;" parent="1" vertex="1">
          <mxGeometry x="-40" y="610" width="80" height="60" as="geometry" />
        </mxCell>
        <mxCell id="q3ETB64ECVbd5WmJ5TXc-68" value="" style="shape=link;html=1;rounded=0;endArrow=ERmany;endFill=0;entryX=0;entryY=0.5;entryDx=0;entryDy=0;exitX=1;exitY=0.5;exitDx=0;exitDy=0;labelBackgroundColor=none;fontColor=default;" parent="1" source="q3ETB64ECVbd5WmJ5TXc-65" target="q3ETB64ECVbd5WmJ5TXc-17" edge="1">
          <mxGeometry relative="1" as="geometry">
            <mxPoint x="490" y="540" as="sourcePoint" />
            <mxPoint x="630" y="440" as="targetPoint" />
          </mxGeometry>
        </mxCell>
        <mxCell id="q3ETB64ECVbd5WmJ5TXc-69" value="M" style="resizable=0;html=1;align=right;verticalAlign=bottom;labelBackgroundColor=none;" parent="q3ETB64ECVbd5WmJ5TXc-68" connectable="0" vertex="1">
          <mxGeometry x="1" relative="1" as="geometry">
            <mxPoint x="-2" y="19" as="offset" />
          </mxGeometry>
        </mxCell>
        <mxCell id="q3ETB64ECVbd5WmJ5TXc-70" value="related to" style="shape=rhombus;perimeter=rhombusPerimeter;whiteSpace=wrap;html=1;align=center;labelBackgroundColor=none;" parent="1" vertex="1">
          <mxGeometry x="180" y="380" width="80" height="60" as="geometry" />
        </mxCell>
        <mxCell id="q3ETB64ECVbd5WmJ5TXc-71" value="" style="shape=link;html=1;rounded=0;endArrow=ERmany;endFill=0;exitX=0;exitY=0.5;exitDx=0;exitDy=0;entryX=1;entryY=0;entryDx=0;entryDy=0;labelBackgroundColor=none;fontColor=default;" parent="1" source="q3ETB64ECVbd5WmJ5TXc-70" target="q3ETB64ECVbd5WmJ5TXc-20" edge="1">
          <mxGeometry relative="1" as="geometry">
            <mxPoint x="-30" y="420" as="sourcePoint" />
            <mxPoint x="-160" y="610" as="targetPoint" />
          </mxGeometry>
        </mxCell>
        <mxCell id="q3ETB64ECVbd5WmJ5TXc-72" value="M" style="resizable=0;html=1;align=right;verticalAlign=bottom;labelBackgroundColor=none;" parent="q3ETB64ECVbd5WmJ5TXc-71" connectable="0" vertex="1">
          <mxGeometry x="1" relative="1" as="geometry">
            <mxPoint x="20" y="13" as="offset" />
          </mxGeometry>
        </mxCell>
        <mxCell id="q3ETB64ECVbd5WmJ5TXc-73" value="" style="shape=link;html=1;rounded=0;endArrow=ERmany;endFill=0;entryX=0;entryY=0.5;entryDx=0;entryDy=0;exitX=1;exitY=0.5;exitDx=0;exitDy=0;labelBackgroundColor=none;fontColor=default;" parent="1" source="q3ETB64ECVbd5WmJ5TXc-70" target="q3ETB64ECVbd5WmJ5TXc-14" edge="1">
          <mxGeometry relative="1" as="geometry">
            <mxPoint x="410" y="310" as="sourcePoint" />
            <mxPoint x="280" y="210" as="targetPoint" />
          </mxGeometry>
        </mxCell>
        <mxCell id="q3ETB64ECVbd5WmJ5TXc-74" value="1" style="resizable=0;html=1;align=right;verticalAlign=bottom;labelBackgroundColor=none;" parent="q3ETB64ECVbd5WmJ5TXc-73" connectable="0" vertex="1">
          <mxGeometry x="1" relative="1" as="geometry">
            <mxPoint x="-5" as="offset" />
          </mxGeometry>
        </mxCell>
        <mxCell id="q3ETB64ECVbd5WmJ5TXc-75" style="edgeStyle=none;rounded=0;orthogonalLoop=1;jettySize=auto;html=1;exitX=0;exitY=1;exitDx=0;exitDy=0;entryX=1;entryY=0;entryDx=0;entryDy=0;endArrow=none;endFill=0;labelBackgroundColor=none;fontColor=default;" parent="1" source="q3ETB64ECVbd5WmJ5TXc-76" target="q3ETB64ECVbd5WmJ5TXc-8" edge="1">
          <mxGeometry relative="1" as="geometry" />
        </mxCell>
        <mxCell id="q3ETB64ECVbd5WmJ5TXc-76" value="DepDescription" style="ellipse;whiteSpace=wrap;html=1;align=center;labelBackgroundColor=none;" parent="1" vertex="1">
          <mxGeometry x="280" y="110" width="90" height="40" as="geometry" />
        </mxCell>
        <mxCell id="q3ETB64ECVbd5WmJ5TXc-77" style="edgeStyle=none;rounded=0;orthogonalLoop=1;jettySize=auto;html=1;exitX=0.5;exitY=1;exitDx=0;exitDy=0;entryX=0.5;entryY=0;entryDx=0;entryDy=0;endArrow=none;endFill=0;labelBackgroundColor=none;fontColor=default;" parent="1" source="q3ETB64ECVbd5WmJ5TXc-78" target="q3ETB64ECVbd5WmJ5TXc-8" edge="1">
          <mxGeometry relative="1" as="geometry" />
        </mxCell>
        <mxCell id="q3ETB64ECVbd5WmJ5TXc-78" value="DepName" style="ellipse;whiteSpace=wrap;html=1;align=center;labelBackgroundColor=none;" parent="1" vertex="1">
          <mxGeometry x="186" y="85" width="90" height="40" as="geometry" />
        </mxCell>
        <mxCell id="q3ETB64ECVbd5WmJ5TXc-79" style="edgeStyle=none;rounded=0;orthogonalLoop=1;jettySize=auto;html=1;exitX=1;exitY=0.5;exitDx=0;exitDy=0;entryX=0;entryY=0.75;entryDx=0;entryDy=0;endArrow=none;endFill=0;labelBackgroundColor=none;fontColor=default;" parent="1" source="q3ETB64ECVbd5WmJ5TXc-80" target="q3ETB64ECVbd5WmJ5TXc-2" edge="1">
          <mxGeometry relative="1" as="geometry" />
        </mxCell>
        <mxCell id="q3ETB64ECVbd5WmJ5TXc-80" value="StFName" style="ellipse;whiteSpace=wrap;html=1;align=center;labelBackgroundColor=none;" parent="1" vertex="1">
          <mxGeometry x="-781" y="324" width="90" height="40" as="geometry" />
        </mxCell>
        <mxCell id="q3ETB64ECVbd5WmJ5TXc-82" value="StLName" style="ellipse;whiteSpace=wrap;html=1;align=center;labelBackgroundColor=none;" parent="1" vertex="1">
          <mxGeometry x="-806" y="292" width="90" height="40" as="geometry" />
        </mxCell>
        <mxCell id="q3ETB64ECVbd5WmJ5TXc-83" style="edgeStyle=none;rounded=0;orthogonalLoop=1;jettySize=auto;html=1;exitX=0.5;exitY=1;exitDx=0;exitDy=0;entryX=0.75;entryY=0;entryDx=0;entryDy=0;endArrow=none;endFill=0;labelBackgroundColor=none;fontColor=default;" parent="1" source="q3ETB64ECVbd5WmJ5TXc-86" target="q3ETB64ECVbd5WmJ5TXc-2" edge="1">
          <mxGeometry relative="1" as="geometry" />
        </mxCell>
        <mxCell id="q3ETB64ECVbd5WmJ5TXc-84" style="edgeStyle=none;rounded=0;orthogonalLoop=1;jettySize=auto;html=1;exitX=1;exitY=0;exitDx=0;exitDy=0;entryX=0;entryY=0.5;entryDx=0;entryDy=0;endArrow=none;endFill=0;labelBackgroundColor=none;fontColor=default;" parent="1" source="q3ETB64ECVbd5WmJ5TXc-86" target="q3ETB64ECVbd5WmJ5TXc-96" edge="1">
          <mxGeometry relative="1" as="geometry" />
        </mxCell>
        <mxCell id="q3ETB64ECVbd5WmJ5TXc-85" style="edgeStyle=none;rounded=0;orthogonalLoop=1;jettySize=auto;html=1;exitX=1;exitY=1;exitDx=0;exitDy=0;entryX=0;entryY=0.5;entryDx=0;entryDy=0;endArrow=none;endFill=0;labelBackgroundColor=none;fontColor=default;" parent="1" source="q3ETB64ECVbd5WmJ5TXc-86" target="q3ETB64ECVbd5WmJ5TXc-97" edge="1">
          <mxGeometry relative="1" as="geometry" />
        </mxCell>
        <mxCell id="q3ETB64ECVbd5WmJ5TXc-86" value="StAddress" style="ellipse;whiteSpace=wrap;html=1;align=center;labelBackgroundColor=none;" parent="1" vertex="1">
          <mxGeometry x="-603" y="64" width="90" height="40" as="geometry" />
        </mxCell>
        <mxCell id="q3ETB64ECVbd5WmJ5TXc-87" style="edgeStyle=none;rounded=0;orthogonalLoop=1;jettySize=auto;html=1;entryX=0;entryY=0.25;entryDx=0;entryDy=0;endArrow=none;endFill=0;labelBackgroundColor=none;fontColor=default;exitX=0.5;exitY=0;exitDx=0;exitDy=0;" parent="1" target="q3ETB64ECVbd5WmJ5TXc-2" edge="1">
          <mxGeometry relative="1" as="geometry">
            <mxPoint x="-802.875" y="245.5" as="sourcePoint" />
            <Array as="points">
              <mxPoint x="-768" y="244" />
            </Array>
          </mxGeometry>
        </mxCell>
        <mxCell id="q3ETB64ECVbd5WmJ5TXc-89" style="edgeStyle=none;rounded=0;orthogonalLoop=1;jettySize=auto;html=1;exitX=0.5;exitY=1;exitDx=0;exitDy=0;entryX=0.5;entryY=0;entryDx=0;entryDy=0;endArrow=none;endFill=0;labelBackgroundColor=none;fontColor=default;" parent="1" source="q3ETB64ECVbd5WmJ5TXc-90" target="q3ETB64ECVbd5WmJ5TXc-2" edge="1">
          <mxGeometry relative="1" as="geometry" />
        </mxCell>
        <mxCell id="q3ETB64ECVbd5WmJ5TXc-90" value="StPhoneNo" style="ellipse;whiteSpace=wrap;html=1;align=center;labelBackgroundColor=none;" parent="1" vertex="1">
          <mxGeometry x="-656" y="141" width="90" height="40" as="geometry" />
        </mxCell>
        <mxCell id="q3ETB64ECVbd5WmJ5TXc-91" style="edgeStyle=none;rounded=0;orthogonalLoop=1;jettySize=auto;html=1;exitX=1;exitY=1;exitDx=0;exitDy=0;entryX=0;entryY=0;entryDx=0;entryDy=0;endArrow=none;endFill=0;labelBackgroundColor=none;fontColor=default;" parent="1" source="q3ETB64ECVbd5WmJ5TXc-92" target="q3ETB64ECVbd5WmJ5TXc-2" edge="1">
          <mxGeometry relative="1" as="geometry" />
        </mxCell>
        <mxCell id="q3ETB64ECVbd5WmJ5TXc-92" value="StAge" style="ellipse;whiteSpace=wrap;html=1;align=center;labelBackgroundColor=none;" parent="1" vertex="1">
          <mxGeometry x="-752" y="191" width="90" height="40" as="geometry" />
        </mxCell>
        <mxCell id="q3ETB64ECVbd5WmJ5TXc-93" style="edgeStyle=none;rounded=0;orthogonalLoop=1;jettySize=auto;html=1;exitX=0.5;exitY=1;exitDx=0;exitDy=0;endArrow=none;endFill=0;labelBackgroundColor=none;fontColor=default;" parent="1" source="q3ETB64ECVbd5WmJ5TXc-94" target="q3ETB64ECVbd5WmJ5TXc-2" edge="1">
          <mxGeometry relative="1" as="geometry" />
        </mxCell>
        <mxCell id="q3ETB64ECVbd5WmJ5TXc-94" value="StEmail" style="ellipse;whiteSpace=wrap;html=1;align=center;labelBackgroundColor=none;" parent="1" vertex="1">
          <mxGeometry x="-759" y="134" width="90" height="40" as="geometry" />
        </mxCell>
        <mxCell id="q3ETB64ECVbd5WmJ5TXc-95" value="StAccountLink" style="ellipse;whiteSpace=wrap;html=1;align=center;labelBackgroundColor=none;" parent="1" vertex="1">
          <mxGeometry x="-603" y="284" width="90" height="40" as="geometry" />
        </mxCell>
        <mxCell id="q3ETB64ECVbd5WmJ5TXc-96" value="StZone" style="ellipse;whiteSpace=wrap;html=1;align=center;labelBackgroundColor=none;" parent="1" vertex="1">
          <mxGeometry x="-503" y="34" width="50" height="40" as="geometry" />
        </mxCell>
        <mxCell id="q3ETB64ECVbd5WmJ5TXc-97" value="StCity" style="ellipse;whiteSpace=wrap;html=1;align=center;labelBackgroundColor=none;" parent="1" vertex="1">
          <mxGeometry x="-503" y="80" width="50" height="40" as="geometry" />
        </mxCell>
        <mxCell id="q3ETB64ECVbd5WmJ5TXc-98" style="edgeStyle=none;rounded=0;orthogonalLoop=1;jettySize=auto;html=1;entryX=0.39;entryY=-0.07;entryDx=0;entryDy=0;endArrow=none;endFill=0;entryPerimeter=0;labelBackgroundColor=none;fontColor=default;" parent="1" source="q3ETB64ECVbd5WmJ5TXc-99" target="q3ETB64ECVbd5WmJ5TXc-10" edge="1">
          <mxGeometry relative="1" as="geometry" />
        </mxCell>
        <mxCell id="q3ETB64ECVbd5WmJ5TXc-99" value="BranName" style="ellipse;whiteSpace=wrap;html=1;align=center;labelBackgroundColor=none;" parent="1" vertex="1">
          <mxGeometry x="45" y="-40" width="90" height="40" as="geometry" />
        </mxCell>
        <mxCell id="q3ETB64ECVbd5WmJ5TXc-100" value="BranCity" style="ellipse;whiteSpace=wrap;html=1;align=center;labelBackgroundColor=none;" parent="1" vertex="1">
          <mxGeometry x="140" y="-20" width="90" height="40" as="geometry" />
        </mxCell>
        <mxCell id="q3ETB64ECVbd5WmJ5TXc-101" style="edgeStyle=none;rounded=0;orthogonalLoop=1;jettySize=auto;html=1;exitX=0.5;exitY=0;exitDx=0;exitDy=0;entryX=0.5;entryY=1;entryDx=0;entryDy=0;endArrow=none;endFill=0;labelBackgroundColor=none;fontColor=default;" parent="1" source="q3ETB64ECVbd5WmJ5TXc-102" target="q3ETB64ECVbd5WmJ5TXc-20" edge="1">
          <mxGeometry relative="1" as="geometry" />
        </mxCell>
        <mxCell id="q3ETB64ECVbd5WmJ5TXc-102" value="QuesType" style="ellipse;whiteSpace=wrap;html=1;align=center;labelBackgroundColor=none;" parent="1" vertex="1">
          <mxGeometry x="-310" y="713" width="90" height="40" as="geometry" />
        </mxCell>
        <mxCell id="q3ETB64ECVbd5WmJ5TXc-103" style="edgeStyle=none;rounded=0;orthogonalLoop=1;jettySize=auto;html=1;exitX=1;exitY=0.5;exitDx=0;exitDy=0;entryX=0;entryY=0.5;entryDx=0;entryDy=0;endArrow=none;endFill=0;labelBackgroundColor=none;fontColor=default;" parent="1" source="VLLdIYAE5bDO0L_M2dcK-12" target="q3ETB64ECVbd5WmJ5TXc-20" edge="1">
          <mxGeometry relative="1" as="geometry">
            <mxPoint x="-344" y="640" as="sourcePoint" />
          </mxGeometry>
        </mxCell>
        <mxCell id="q3ETB64ECVbd5WmJ5TXc-105" value="QuesAnswer" style="ellipse;whiteSpace=wrap;html=1;align=center;labelBackgroundColor=none;" parent="1" vertex="1">
          <mxGeometry x="-380" y="670" width="90" height="40" as="geometry" />
        </mxCell>
        <mxCell id="q3ETB64ECVbd5WmJ5TXc-106" value="QuesChoice" style="ellipse;shape=doubleEllipse;margin=3;whiteSpace=wrap;html=1;align=center;labelBackgroundColor=none;" parent="1" vertex="1">
          <mxGeometry x="-195" y="700" width="100" height="40" as="geometry" />
        </mxCell>
        <mxCell id="q3ETB64ECVbd5WmJ5TXc-107" style="edgeStyle=none;rounded=0;orthogonalLoop=1;jettySize=auto;html=1;exitX=0;exitY=0;exitDx=0;exitDy=0;entryX=1;entryY=1;entryDx=0;entryDy=0;endArrow=none;endFill=0;labelBackgroundColor=none;fontColor=default;" parent="1" source="q3ETB64ECVbd5WmJ5TXc-108" target="q3ETB64ECVbd5WmJ5TXc-17" edge="1">
          <mxGeometry relative="1" as="geometry" />
        </mxCell>
        <mxCell id="q3ETB64ECVbd5WmJ5TXc-108" value="ExStartTime" style="ellipse;whiteSpace=wrap;html=1;align=center;labelBackgroundColor=none;" parent="1" vertex="1">
          <mxGeometry x="290" y="660" width="90" height="40" as="geometry" />
        </mxCell>
        <mxCell id="q3ETB64ECVbd5WmJ5TXc-110" value="CrsName" style="ellipse;whiteSpace=wrap;html=1;align=center;labelBackgroundColor=none;" parent="1" vertex="1">
          <mxGeometry x="750" y="440" width="90" height="40" as="geometry" />
        </mxCell>
        <mxCell id="q3ETB64ECVbd5WmJ5TXc-111" value="CrsMaxDeg" style="ellipse;whiteSpace=wrap;html=1;align=center;labelBackgroundColor=none;" parent="1" vertex="1">
          <mxGeometry x="756" y="348" width="90" height="40" as="geometry" />
        </mxCell>
        <mxCell id="q3ETB64ECVbd5WmJ5TXc-112" value="InsFName" style="ellipse;whiteSpace=wrap;html=1;align=center;labelBackgroundColor=none;" parent="1" vertex="1">
          <mxGeometry x="800" y="241" width="90" height="40" as="geometry" />
        </mxCell>
        <mxCell id="q3ETB64ECVbd5WmJ5TXc-113" value="InsLName" style="ellipse;whiteSpace=wrap;html=1;align=center;labelBackgroundColor=none;" parent="1" vertex="1">
          <mxGeometry x="775" y="188" width="90" height="40" as="geometry" />
        </mxCell>
        <mxCell id="q3ETB64ECVbd5WmJ5TXc-114" style="edgeStyle=none;rounded=0;orthogonalLoop=1;jettySize=auto;html=1;exitX=0.5;exitY=1;exitDx=0;exitDy=0;entryX=0.5;entryY=0;entryDx=0;entryDy=0;endArrow=none;endFill=0;labelBackgroundColor=none;fontColor=default;" parent="1" source="q3ETB64ECVbd5WmJ5TXc-117" target="q3ETB64ECVbd5WmJ5TXc-7" edge="1">
          <mxGeometry relative="1" as="geometry" />
        </mxCell>
        <mxCell id="q3ETB64ECVbd5WmJ5TXc-115" style="edgeStyle=none;rounded=0;orthogonalLoop=1;jettySize=auto;html=1;exitX=0.5;exitY=0;exitDx=0;exitDy=0;endArrow=none;endFill=0;labelBackgroundColor=none;fontColor=default;" parent="1" source="q3ETB64ECVbd5WmJ5TXc-117" edge="1">
          <mxGeometry relative="1" as="geometry">
            <mxPoint x="702" y="11" as="targetPoint" />
          </mxGeometry>
        </mxCell>
        <mxCell id="q3ETB64ECVbd5WmJ5TXc-116" style="edgeStyle=none;rounded=0;orthogonalLoop=1;jettySize=auto;html=1;exitX=0.5;exitY=0;exitDx=0;exitDy=0;entryX=0.5;entryY=1;entryDx=0;entryDy=0;endArrow=none;endFill=0;labelBackgroundColor=none;fontColor=default;" parent="1" source="q3ETB64ECVbd5WmJ5TXc-117" target="q3ETB64ECVbd5WmJ5TXc-125" edge="1">
          <mxGeometry relative="1" as="geometry">
            <Array as="points">
              <mxPoint x="750" y="39" />
            </Array>
          </mxGeometry>
        </mxCell>
        <mxCell id="q3ETB64ECVbd5WmJ5TXc-117" value="InsAddress" style="ellipse;whiteSpace=wrap;html=1;align=center;labelBackgroundColor=none;" parent="1" vertex="1">
          <mxGeometry x="674" y="76" width="73" height="62" as="geometry" />
        </mxCell>
        <mxCell id="q3ETB64ECVbd5WmJ5TXc-118" style="edgeStyle=none;rounded=0;orthogonalLoop=1;jettySize=auto;html=1;exitX=0;exitY=0.5;exitDx=0;exitDy=0;entryX=1;entryY=0.25;entryDx=0;entryDy=0;endArrow=none;endFill=0;labelBackgroundColor=none;fontColor=default;" parent="1" source="q3ETB64ECVbd5WmJ5TXc-119" target="q3ETB64ECVbd5WmJ5TXc-7" edge="1">
          <mxGeometry relative="1" as="geometry" />
        </mxCell>
        <mxCell id="q3ETB64ECVbd5WmJ5TXc-119" value="InsGender" style="ellipse;whiteSpace=wrap;html=1;align=center;labelBackgroundColor=none;" parent="1" vertex="1">
          <mxGeometry x="828" y="148" width="90" height="40" as="geometry" />
        </mxCell>
        <mxCell id="q3ETB64ECVbd5WmJ5TXc-120" style="edgeStyle=none;rounded=0;orthogonalLoop=1;jettySize=auto;html=1;exitX=0.5;exitY=1;exitDx=0;exitDy=0;entryX=0.75;entryY=0;entryDx=0;entryDy=0;endArrow=none;endFill=0;labelBackgroundColor=none;fontColor=default;" parent="1" source="q3ETB64ECVbd5WmJ5TXc-121" target="q3ETB64ECVbd5WmJ5TXc-7" edge="1">
          <mxGeometry relative="1" as="geometry" />
        </mxCell>
        <mxCell id="q3ETB64ECVbd5WmJ5TXc-121" value="InsPhoneNo" style="ellipse;whiteSpace=wrap;html=1;align=center;labelBackgroundColor=none;" parent="1" vertex="1">
          <mxGeometry x="753" y="63" width="90" height="40" as="geometry" />
        </mxCell>
        <mxCell id="q3ETB64ECVbd5WmJ5TXc-122" style="edgeStyle=none;rounded=0;orthogonalLoop=1;jettySize=auto;html=1;exitX=0;exitY=1;exitDx=0;exitDy=0;entryX=1;entryY=0;entryDx=0;entryDy=0;endArrow=none;endFill=0;labelBackgroundColor=none;fontColor=default;" parent="1" source="q3ETB64ECVbd5WmJ5TXc-123" target="q3ETB64ECVbd5WmJ5TXc-7" edge="1">
          <mxGeometry relative="1" as="geometry" />
        </mxCell>
        <mxCell id="q3ETB64ECVbd5WmJ5TXc-123" value="InsEmail" style="ellipse;whiteSpace=wrap;html=1;align=center;labelBackgroundColor=none;" parent="1" vertex="1">
          <mxGeometry x="814" y="95" width="90" height="40" as="geometry" />
        </mxCell>
        <mxCell id="q3ETB64ECVbd5WmJ5TXc-124" value="InsZone" style="ellipse;whiteSpace=wrap;html=1;align=center;labelBackgroundColor=none;" parent="1" vertex="1">
          <mxGeometry x="674" y="-35" width="50" height="40" as="geometry" />
        </mxCell>
        <mxCell id="q3ETB64ECVbd5WmJ5TXc-125" value="InsCity" style="ellipse;whiteSpace=wrap;html=1;align=center;labelBackgroundColor=none;" parent="1" vertex="1">
          <mxGeometry x="750" y="-30" width="50" height="40" as="geometry" />
        </mxCell>
        <mxCell id="q3ETB64ECVbd5WmJ5TXc-126" value="InsDegree" style="ellipse;whiteSpace=wrap;html=1;align=center;labelBackgroundColor=none;" parent="1" vertex="1">
          <mxGeometry x="530" y="120" width="90" height="40" as="geometry" />
        </mxCell>
        <mxCell id="q3ETB64ECVbd5WmJ5TXc-127" style="edgeStyle=none;rounded=0;orthogonalLoop=1;jettySize=auto;html=1;exitX=0;exitY=1;exitDx=0;exitDy=0;entryX=1;entryY=0;entryDx=0;entryDy=0;endArrow=none;endFill=0;labelBackgroundColor=none;fontColor=default;" parent="1" source="q3ETB64ECVbd5WmJ5TXc-128" target="q3ETB64ECVbd5WmJ5TXc-26" edge="1">
          <mxGeometry relative="1" as="geometry" />
        </mxCell>
        <mxCell id="q3ETB64ECVbd5WmJ5TXc-128" value="Point" style="ellipse;whiteSpace=wrap;html=1;align=center;labelBackgroundColor=none;" parent="1" vertex="1">
          <mxGeometry x="-120" y="363" width="50" height="40" as="geometry" />
        </mxCell>
        <mxCell id="q3ETB64ECVbd5WmJ5TXc-129" value="Date" style="ellipse;whiteSpace=wrap;html=1;align=center;labelBackgroundColor=none;" parent="1" vertex="1">
          <mxGeometry x="-195" y="503" width="50" height="40" as="geometry" />
        </mxCell>
        <mxCell id="q3ETB64ECVbd5WmJ5TXc-130" style="edgeStyle=none;rounded=0;orthogonalLoop=1;jettySize=auto;html=1;exitX=1;exitY=0.5;exitDx=0;exitDy=0;entryX=0;entryY=0;entryDx=0;entryDy=0;endArrow=none;endFill=0;labelBackgroundColor=none;fontColor=default;" parent="1" source="q3ETB64ECVbd5WmJ5TXc-131" target="q3ETB64ECVbd5WmJ5TXc-26" edge="1">
          <mxGeometry relative="1" as="geometry" />
        </mxCell>
        <mxCell id="q3ETB64ECVbd5WmJ5TXc-131" value="Answer" style="ellipse;whiteSpace=wrap;html=1;align=center;labelBackgroundColor=none;" parent="1" vertex="1">
          <mxGeometry x="-290" y="383" width="50" height="40" as="geometry" />
        </mxCell>
        <mxCell id="q3ETB64ECVbd5WmJ5TXc-132" style="edgeStyle=none;rounded=0;orthogonalLoop=1;jettySize=auto;html=1;exitX=1;exitY=0.5;exitDx=0;exitDy=0;entryX=0;entryY=0;entryDx=0;entryDy=0;endArrow=none;endFill=0;labelBackgroundColor=none;fontColor=default;" parent="1" source="q3ETB64ECVbd5WmJ5TXc-133" target="q3ETB64ECVbd5WmJ5TXc-20" edge="1">
          <mxGeometry relative="1" as="geometry" />
        </mxCell>
        <mxCell id="q3ETB64ECVbd5WmJ5TXc-133" value="QuesID" style="ellipse;whiteSpace=wrap;html=1;align=center;fontStyle=4;labelBackgroundColor=none;" parent="1" vertex="1">
          <mxGeometry x="-370" y="570" width="50" height="40" as="geometry" />
        </mxCell>
        <mxCell id="q3ETB64ECVbd5WmJ5TXc-134" style="edgeStyle=none;rounded=0;orthogonalLoop=1;jettySize=auto;html=1;exitX=1;exitY=0;exitDx=0;exitDy=0;entryX=0;entryY=1;entryDx=0;entryDy=0;endArrow=none;endFill=0;labelBackgroundColor=none;fontColor=default;" parent="1" source="q3ETB64ECVbd5WmJ5TXc-135" target="q3ETB64ECVbd5WmJ5TXc-17" edge="1">
          <mxGeometry relative="1" as="geometry" />
        </mxCell>
        <mxCell id="q3ETB64ECVbd5WmJ5TXc-135" value="ExID" style="ellipse;whiteSpace=wrap;html=1;align=center;fontStyle=4;labelBackgroundColor=none;" parent="1" vertex="1">
          <mxGeometry x="85" y="660" width="50" height="40" as="geometry" />
        </mxCell>
        <mxCell id="q3ETB64ECVbd5WmJ5TXc-138" value="CrsID" style="ellipse;whiteSpace=wrap;html=1;align=center;fontStyle=4;labelBackgroundColor=none;" parent="1" vertex="1">
          <mxGeometry x="737" y="302" width="50" height="40" as="geometry" />
        </mxCell>
        <mxCell id="q3ETB64ECVbd5WmJ5TXc-139" value="InsID" style="ellipse;whiteSpace=wrap;html=1;align=center;fontStyle=4;labelBackgroundColor=none;" parent="1" vertex="1">
          <mxGeometry x="720" y="236" width="50" height="40" as="geometry" />
        </mxCell>
        <mxCell id="q3ETB64ECVbd5WmJ5TXc-140" style="edgeStyle=none;rounded=0;orthogonalLoop=1;jettySize=auto;html=1;exitX=1;exitY=1;exitDx=0;exitDy=0;entryX=0;entryY=0;entryDx=0;entryDy=0;endArrow=none;endFill=0;labelBackgroundColor=none;fontColor=default;" parent="1" source="q3ETB64ECVbd5WmJ5TXc-141" target="q3ETB64ECVbd5WmJ5TXc-8" edge="1">
          <mxGeometry relative="1" as="geometry" />
        </mxCell>
        <mxCell id="q3ETB64ECVbd5WmJ5TXc-141" value="DepID" style="ellipse;whiteSpace=wrap;html=1;align=center;fontStyle=4;labelBackgroundColor=none;" parent="1" vertex="1">
          <mxGeometry x="110" y="110" width="50" height="40" as="geometry" />
        </mxCell>
        <mxCell id="q3ETB64ECVbd5WmJ5TXc-142" style="edgeStyle=none;rounded=0;orthogonalLoop=1;jettySize=auto;html=1;entryX=0;entryY=1;entryDx=0;entryDy=0;endArrow=none;endFill=0;labelBackgroundColor=none;fontColor=default;" parent="1" source="q3ETB64ECVbd5WmJ5TXc-143" target="q3ETB64ECVbd5WmJ5TXc-2" edge="1">
          <mxGeometry relative="1" as="geometry">
            <Array as="points">
              <mxPoint x="-644" y="333" />
            </Array>
          </mxGeometry>
        </mxCell>
        <mxCell id="q3ETB64ECVbd5WmJ5TXc-143" value="StID" style="ellipse;whiteSpace=wrap;html=1;align=center;fontStyle=4;labelBackgroundColor=none;" parent="1" vertex="1">
          <mxGeometry x="-683" y="340" width="50" height="40" as="geometry" />
        </mxCell>
        <mxCell id="q3ETB64ECVbd5WmJ5TXc-144" style="edgeStyle=none;rounded=0;orthogonalLoop=1;jettySize=auto;html=1;exitX=0.5;exitY=1;exitDx=0;exitDy=0;entryX=0;entryY=0;entryDx=0;entryDy=0;endArrow=none;endFill=0;labelBackgroundColor=none;fontColor=default;" parent="1" source="q3ETB64ECVbd5WmJ5TXc-145" target="q3ETB64ECVbd5WmJ5TXc-10" edge="1">
          <mxGeometry relative="1" as="geometry">
            <Array as="points" />
          </mxGeometry>
        </mxCell>
        <mxCell id="q3ETB64ECVbd5WmJ5TXc-145" value="BranID" style="ellipse;whiteSpace=wrap;html=1;align=center;fontStyle=4;labelBackgroundColor=none;" parent="1" vertex="1">
          <mxGeometry x="-25" y="-30" width="50" height="40" as="geometry" />
        </mxCell>
        <mxCell id="q3ETB64ECVbd5WmJ5TXc-146" value="FinalResult" style="ellipse;whiteSpace=wrap;html=1;align=center;labelBackgroundColor=none;" parent="1" vertex="1">
          <mxGeometry x="172" y="224" width="96" height="32" as="geometry" />
        </mxCell>
        <mxCell id="q3ETB64ECVbd5WmJ5TXc-147" value="ExType" style="ellipse;whiteSpace=wrap;html=1;align=center;labelBackgroundColor=none;" parent="1" vertex="1">
          <mxGeometry x="105" y="753" width="90" height="40" as="geometry" />
        </mxCell>
        <mxCell id="q3ETB64ECVbd5WmJ5TXc-148" value="ExEndTime" style="ellipse;whiteSpace=wrap;html=1;align=center;labelBackgroundColor=none;" parent="1" vertex="1">
          <mxGeometry x="307" y="737" width="90" height="40" as="geometry" />
        </mxCell>
        <mxCell id="q3ETB64ECVbd5WmJ5TXc-149" value="has" style="shape=rhombus;perimeter=rhombusPerimeter;whiteSpace=wrap;html=1;align=center;labelBackgroundColor=none;" parent="1" vertex="1">
          <mxGeometry x="-10" y="150" width="80" height="60" as="geometry" />
        </mxCell>
        <mxCell id="q3ETB64ECVbd5WmJ5TXc-150" value="" style="shape=link;html=1;rounded=0;endArrow=ERmany;endFill=0;entryX=0.345;entryY=1.055;entryDx=0;entryDy=0;entryPerimeter=0;labelBackgroundColor=none;fontColor=default;" parent="1" source="q3ETB64ECVbd5WmJ5TXc-149" target="q3ETB64ECVbd5WmJ5TXc-10" edge="1">
          <mxGeometry relative="1" as="geometry">
            <mxPoint x="-220" y="280" as="sourcePoint" />
            <mxPoint x="-220" y="210" as="targetPoint" />
          </mxGeometry>
        </mxCell>
        <mxCell id="q3ETB64ECVbd5WmJ5TXc-151" value="M" style="resizable=0;html=1;align=right;verticalAlign=bottom;labelBackgroundColor=none;" parent="q3ETB64ECVbd5WmJ5TXc-150" connectable="0" vertex="1">
          <mxGeometry x="1" relative="1" as="geometry">
            <mxPoint x="15" y="17" as="offset" />
          </mxGeometry>
        </mxCell>
        <mxCell id="q3ETB64ECVbd5WmJ5TXc-152" value="" style="shape=link;html=1;rounded=0;endArrow=ERmany;endFill=0;entryX=0;entryY=0;entryDx=0;entryDy=0;exitX=1;exitY=0.5;exitDx=0;exitDy=0;labelBackgroundColor=none;fontColor=default;" parent="1" source="q3ETB64ECVbd5WmJ5TXc-26" target="q3ETB64ECVbd5WmJ5TXc-17" edge="1">
          <mxGeometry relative="1" as="geometry">
            <mxPoint x="10" y="450" as="sourcePoint" />
            <mxPoint x="-195" y="630" as="targetPoint" />
          </mxGeometry>
        </mxCell>
        <mxCell id="q3ETB64ECVbd5WmJ5TXc-153" value="M" style="resizable=0;html=1;align=right;verticalAlign=bottom;labelBackgroundColor=none;" parent="q3ETB64ECVbd5WmJ5TXc-152" connectable="0" vertex="1">
          <mxGeometry x="1" relative="1" as="geometry">
            <mxPoint x="12.990000000000002" y="-2.02" as="offset" />
          </mxGeometry>
        </mxCell>
        <mxCell id="q3ETB64ECVbd5WmJ5TXc-154" value="" style="shape=link;html=1;rounded=0;endArrow=ERmany;endFill=0;exitX=0.25;exitY=1;exitDx=0;exitDy=0;labelBackgroundColor=none;fontColor=default;entryX=1;entryY=0.5;entryDx=0;entryDy=0;" parent="1" source="q3ETB64ECVbd5WmJ5TXc-10" target="h14oSrX0KjaI8eYM9eCp-2" edge="1">
          <mxGeometry relative="1" as="geometry">
            <mxPoint x="-40" y="221.5" as="sourcePoint" />
            <mxPoint x="-130" y="151" as="targetPoint" />
          </mxGeometry>
        </mxCell>
        <mxCell id="q3ETB64ECVbd5WmJ5TXc-156" value="" style="shape=link;html=1;rounded=0;endArrow=ERmany;endFill=0;entryX=0;entryY=0.75;entryDx=0;entryDy=0;exitX=1;exitY=0.5;exitDx=0;exitDy=0;labelBackgroundColor=none;fontColor=default;" parent="1" source="q3ETB64ECVbd5WmJ5TXc-149" target="q3ETB64ECVbd5WmJ5TXc-8" edge="1">
          <mxGeometry relative="1" as="geometry">
            <mxPoint x="140" y="175" as="sourcePoint" />
            <mxPoint x="165" y="185" as="targetPoint" />
          </mxGeometry>
        </mxCell>
        <mxCell id="q3ETB64ECVbd5WmJ5TXc-157" value="M" style="resizable=0;html=1;align=right;verticalAlign=bottom;labelBackgroundColor=none;" parent="q3ETB64ECVbd5WmJ5TXc-156" connectable="0" vertex="1">
          <mxGeometry x="1" relative="1" as="geometry">
            <mxPoint x="-4.5" as="offset" />
          </mxGeometry>
        </mxCell>
        <mxCell id="MMAgnFhFXyajaIszjPfj-3" value="CrsDesc" style="ellipse;whiteSpace=wrap;html=1;align=center;labelBackgroundColor=none;" parent="1" vertex="1">
          <mxGeometry x="720" y="488" width="90" height="40" as="geometry" />
        </mxCell>
        <mxCell id="MMAgnFhFXyajaIszjPfj-5" style="edgeStyle=none;rounded=0;orthogonalLoop=1;jettySize=auto;html=1;exitX=1;exitY=1;exitDx=0;exitDy=0;entryX=0;entryY=0;entryDx=0;entryDy=0;endArrow=none;endFill=0;labelBackgroundColor=none;fontColor=default;" parent="1" source="q3ETB64ECVbd5WmJ5TXc-14" target="MMAgnFhFXyajaIszjPfj-3" edge="1">
          <mxGeometry relative="1" as="geometry">
            <mxPoint x="730" y="440" as="sourcePoint" />
            <mxPoint x="760" y="470" as="targetPoint" />
          </mxGeometry>
        </mxCell>
        <mxCell id="MMAgnFhFXyajaIszjPfj-6" value="CrsMinDeg" style="ellipse;whiteSpace=wrap;html=1;align=center;labelBackgroundColor=none;" parent="1" vertex="1">
          <mxGeometry x="765" y="394" width="90" height="40" as="geometry" />
        </mxCell>
        <mxCell id="MMAgnFhFXyajaIszjPfj-7" style="edgeStyle=none;rounded=0;orthogonalLoop=1;jettySize=auto;html=1;exitX=1;exitY=0.5;exitDx=0;exitDy=0;entryX=0;entryY=0.5;entryDx=0;entryDy=0;endArrow=none;endFill=0;labelBackgroundColor=none;fontColor=default;" parent="1" source="q3ETB64ECVbd5WmJ5TXc-14" target="MMAgnFhFXyajaIszjPfj-6" edge="1">
          <mxGeometry relative="1" as="geometry">
            <mxPoint x="730" y="440" as="sourcePoint" />
            <mxPoint x="760" y="470" as="targetPoint" />
          </mxGeometry>
        </mxCell>
        <mxCell id="VLLdIYAE5bDO0L_M2dcK-4" value="ExTotalTime" style="ellipse;whiteSpace=wrap;html=1;align=center;dashed=1;fontFamily=Helvetica;fontSize=12;labelBackgroundColor=none;verticalAlign=middle;" parent="1" vertex="1">
          <mxGeometry x="-24" y="747" width="100" height="40" as="geometry" />
        </mxCell>
        <mxCell id="VLLdIYAE5bDO0L_M2dcK-7" style="rounded=0;orthogonalLoop=1;jettySize=auto;html=1;endArrow=none;endFill=0;labelBackgroundColor=none;fontColor=default;entryX=1;entryY=0;entryDx=0;entryDy=0;" parent="1" source="q3ETB64ECVbd5WmJ5TXc-17" target="VLLdIYAE5bDO0L_M2dcK-4" edge="1">
          <mxGeometry relative="1" as="geometry">
            <mxPoint x="164" y="600" as="sourcePoint" />
            <mxPoint x="115" y="739" as="targetPoint" />
          </mxGeometry>
        </mxCell>
        <mxCell id="VLLdIYAE5bDO0L_M2dcK-8" style="rounded=0;orthogonalLoop=1;jettySize=auto;html=1;exitX=0.51;exitY=1.175;exitDx=0;exitDy=0;entryX=0.5;entryY=0;entryDx=0;entryDy=0;endArrow=none;endFill=0;labelBackgroundColor=none;fontColor=default;exitPerimeter=0;" parent="1" source="q3ETB64ECVbd5WmJ5TXc-17" target="VLLdIYAE5bDO0L_M2dcK-9" edge="1">
          <mxGeometry relative="1" as="geometry">
            <mxPoint x="230" y="720" as="sourcePoint" />
          </mxGeometry>
        </mxCell>
        <mxCell id="VLLdIYAE5bDO0L_M2dcK-9" value="ExYear" style="ellipse;whiteSpace=wrap;html=1;align=center;labelBackgroundColor=none;" parent="1" vertex="1">
          <mxGeometry x="140" y="813" width="90" height="40" as="geometry" />
        </mxCell>
        <mxCell id="VLLdIYAE5bDO0L_M2dcK-10" style="rounded=0;orthogonalLoop=1;jettySize=auto;html=1;exitX=0.5;exitY=1;exitDx=0;exitDy=0;entryX=0.5;entryY=0;entryDx=0;entryDy=0;endArrow=none;endFill=0;labelBackgroundColor=none;fontColor=default;" parent="1" source="q3ETB64ECVbd5WmJ5TXc-17" target="VLLdIYAE5bDO0L_M2dcK-13" edge="1">
          <mxGeometry relative="1" as="geometry">
            <mxPoint x="335" y="720" as="sourcePoint" />
            <mxPoint x="290" y="813" as="targetPoint" />
          </mxGeometry>
        </mxCell>
        <mxCell id="VLLdIYAE5bDO0L_M2dcK-12" value="&lt;span style=&quot;border-bottom: 1px dotted&quot;&gt;CrsId&lt;/span&gt;" style="ellipse;whiteSpace=wrap;html=1;align=center;" parent="1" vertex="1">
          <mxGeometry x="-453" y="620" width="100" height="40" as="geometry" />
        </mxCell>
        <mxCell id="VLLdIYAE5bDO0L_M2dcK-13" value="&lt;span style=&quot;border-bottom: 1px dotted&quot;&gt;InsId&lt;/span&gt;" style="ellipse;whiteSpace=wrap;html=1;align=center;" parent="1" vertex="1">
          <mxGeometry x="240" y="796" width="100" height="40" as="geometry" />
        </mxCell>
        <mxCell id="q3ETB64ECVbd5WmJ5TXc-81" style="edgeStyle=none;rounded=0;orthogonalLoop=1;jettySize=auto;html=1;entryX=0;entryY=0.5;entryDx=0;entryDy=0;endArrow=none;endFill=0;labelBackgroundColor=none;fontColor=default;" parent="1" source="q3ETB64ECVbd5WmJ5TXc-82" target="q3ETB64ECVbd5WmJ5TXc-2" edge="1">
          <mxGeometry relative="1" as="geometry">
            <Array as="points">
              <mxPoint x="-716" y="308" />
            </Array>
          </mxGeometry>
        </mxCell>
        <mxCell id="WtoOjSqFsYYeVvReh3D3-1" value="Track" style="whiteSpace=wrap;html=1;align=center;labelBackgroundColor=none;" parent="1" vertex="1">
          <mxGeometry x="-198" y="3" width="120" height="40" as="geometry" />
        </mxCell>
        <mxCell id="h14oSrX0KjaI8eYM9eCp-1" value="Intake" style="whiteSpace=wrap;html=1;align=center;labelBackgroundColor=none;" parent="1" vertex="1">
          <mxGeometry x="-390" y="3" width="120" height="40" as="geometry" />
        </mxCell>
        <mxCell id="h14oSrX0KjaI8eYM9eCp-2" value="has" style="shape=rhombus;perimeter=rhombusPerimeter;whiteSpace=wrap;html=1;align=center;labelBackgroundColor=none;" parent="1" vertex="1">
          <mxGeometry x="-156" y="121" width="80" height="60" as="geometry" />
        </mxCell>
        <mxCell id="h14oSrX0KjaI8eYM9eCp-3" value="" style="shape=link;html=1;rounded=0;endArrow=ERmany;endFill=0;exitX=0.5;exitY=1;exitDx=0;exitDy=0;labelBackgroundColor=none;fontColor=default;entryX=0.5;entryY=0;entryDx=0;entryDy=0;" parent="1" source="WtoOjSqFsYYeVvReh3D3-1" target="h14oSrX0KjaI8eYM9eCp-2" edge="1">
          <mxGeometry relative="1" as="geometry">
            <mxPoint x="10" y="30" as="sourcePoint" />
            <mxPoint x="-185" y="103" as="targetPoint" />
          </mxGeometry>
        </mxCell>
        <mxCell id="h14oSrX0KjaI8eYM9eCp-4" value="" style="shape=link;html=1;rounded=0;endArrow=ERmany;endFill=0;exitX=0.5;exitY=1;exitDx=0;exitDy=0;labelBackgroundColor=none;fontColor=default;entryX=1;entryY=0;entryDx=0;entryDy=0;" parent="1" edge="1">
          <mxGeometry relative="1" as="geometry">
            <mxPoint x="-330" y="43" as="sourcePoint" />
            <mxPoint x="-324" y="119" as="targetPoint" />
          </mxGeometry>
        </mxCell>
        <mxCell id="h14oSrX0KjaI8eYM9eCp-5" value="has" style="shape=rhombus;perimeter=rhombusPerimeter;whiteSpace=wrap;html=1;align=center;labelBackgroundColor=none;" parent="1" vertex="1">
          <mxGeometry x="-382" y="104" width="80" height="60" as="geometry" />
        </mxCell>
        <mxCell id="h14oSrX0KjaI8eYM9eCp-7" value="" style="shape=link;html=1;rounded=0;endArrow=ERmany;endFill=0;exitX=1;exitY=0.5;exitDx=0;exitDy=0;labelBackgroundColor=none;fontColor=default;entryX=0.175;entryY=0.733;entryDx=0;entryDy=0;entryPerimeter=0;" parent="1" source="q3ETB64ECVbd5WmJ5TXc-2" target="h14oSrX0KjaI8eYM9eCp-5" edge="1">
          <mxGeometry relative="1" as="geometry">
            <mxPoint x="-318" y="53" as="sourcePoint" />
            <mxPoint x="-312" y="129" as="targetPoint" />
          </mxGeometry>
        </mxCell>
        <mxCell id="h14oSrX0KjaI8eYM9eCp-8" value="M" style="resizable=0;html=1;align=right;verticalAlign=bottom;labelBackgroundColor=none;" parent="1" connectable="0" vertex="1">
          <mxGeometry x="-484.17463045050954" y="225.96482392765802" as="geometry" />
        </mxCell>
        <mxCell id="h14oSrX0KjaI8eYM9eCp-9" value="" style="shape=link;html=1;rounded=0;endArrow=ERmany;endFill=0;exitX=0.75;exitY=1;exitDx=0;exitDy=0;labelBackgroundColor=none;fontColor=default;entryX=0;entryY=0;entryDx=0;entryDy=0;" parent="1" source="h14oSrX0KjaI8eYM9eCp-1" target="AHH2nsyTc8WxwWbJ32Nr-5" edge="1">
          <mxGeometry relative="1" as="geometry">
            <mxPoint x="-318" y="53" as="sourcePoint" />
            <mxPoint x="-312" y="129" as="targetPoint" />
          </mxGeometry>
        </mxCell>
        <mxCell id="XOt-cGM-oOhUBQoG-JgU-1" value="TrackId" style="ellipse;whiteSpace=wrap;html=1;align=center;fontStyle=4;labelBackgroundColor=none;" parent="1" vertex="1">
          <mxGeometry x="-225" y="-74" width="74" height="48" as="geometry" />
        </mxCell>
        <mxCell id="XOt-cGM-oOhUBQoG-JgU-3" style="edgeStyle=none;rounded=0;orthogonalLoop=1;jettySize=auto;html=1;exitX=0.5;exitY=1;exitDx=0;exitDy=0;entryX=0.25;entryY=0;entryDx=0;entryDy=0;endArrow=none;endFill=0;labelBackgroundColor=none;fontColor=default;" parent="1" source="XOt-cGM-oOhUBQoG-JgU-1" target="WtoOjSqFsYYeVvReh3D3-1" edge="1">
          <mxGeometry relative="1" as="geometry">
            <Array as="points" />
            <mxPoint x="10" y="-51" as="sourcePoint" />
            <mxPoint x="35" y="-24" as="targetPoint" />
          </mxGeometry>
        </mxCell>
        <mxCell id="XOt-cGM-oOhUBQoG-JgU-5" value="TrackName" style="ellipse;whiteSpace=wrap;html=1;align=center;labelBackgroundColor=none;" parent="1" vertex="1">
          <mxGeometry x="-95" y="-119" width="90" height="40" as="geometry" />
        </mxCell>
        <mxCell id="XOt-cGM-oOhUBQoG-JgU-6" style="edgeStyle=none;rounded=0;orthogonalLoop=1;jettySize=auto;html=1;exitX=0.5;exitY=1;exitDx=0;exitDy=0;entryX=0.75;entryY=0;entryDx=0;entryDy=0;endArrow=none;endFill=0;labelBackgroundColor=none;fontColor=default;" parent="1" source="XOt-cGM-oOhUBQoG-JgU-5" target="WtoOjSqFsYYeVvReh3D3-1" edge="1">
          <mxGeometry relative="1" as="geometry">
            <Array as="points" />
            <mxPoint x="-178" y="-16" as="sourcePoint" />
            <mxPoint x="-158" y="13" as="targetPoint" />
          </mxGeometry>
        </mxCell>
        <mxCell id="PtgkLcLX1C7ZnrB83xxI-2" style="edgeStyle=none;rounded=0;orthogonalLoop=1;jettySize=auto;html=1;exitX=0.5;exitY=1;exitDx=0;exitDy=0;entryX=0.5;entryY=0;entryDx=0;entryDy=0;endArrow=none;endFill=0;labelBackgroundColor=none;fontColor=default;" parent="1" source="PtgkLcLX1C7ZnrB83xxI-3" target="WtoOjSqFsYYeVvReh3D3-1" edge="1">
          <mxGeometry relative="1" as="geometry">
            <Array as="points" />
            <mxPoint x="-148" y="-116" as="sourcePoint" />
            <mxPoint x="-98" y="13" as="targetPoint" />
          </mxGeometry>
        </mxCell>
        <mxCell id="PtgkLcLX1C7ZnrB83xxI-3" value="&lt;span style=&quot;border-bottom: 1px dotted&quot;&gt;BranIID&lt;/span&gt;" style="ellipse;whiteSpace=wrap;html=1;align=center;" parent="1" vertex="1">
          <mxGeometry x="-191" y="-136" width="100" height="40" as="geometry" />
        </mxCell>
        <mxCell id="PtgkLcLX1C7ZnrB83xxI-4" value="IntakeId" style="ellipse;whiteSpace=wrap;html=1;align=center;fontStyle=4;labelBackgroundColor=none;" parent="1" vertex="1">
          <mxGeometry x="-540" y="-60" width="74" height="48" as="geometry" />
        </mxCell>
        <mxCell id="PtgkLcLX1C7ZnrB83xxI-5" value="IntakeName" style="ellipse;whiteSpace=wrap;html=1;align=center;labelBackgroundColor=none;" parent="1" vertex="1">
          <mxGeometry x="-438" y="-176" width="90" height="40" as="geometry" />
        </mxCell>
        <mxCell id="PtgkLcLX1C7ZnrB83xxI-6" value="&lt;span style=&quot;border-bottom: 1px dotted&quot;&gt;TrackId&lt;/span&gt;" style="ellipse;whiteSpace=wrap;html=1;align=center;" parent="1" vertex="1">
          <mxGeometry x="-506" y="-122" width="100" height="40" as="geometry" />
        </mxCell>
        <mxCell id="PtgkLcLX1C7ZnrB83xxI-7" style="edgeStyle=none;rounded=0;orthogonalLoop=1;jettySize=auto;html=1;entryX=0.25;entryY=0;entryDx=0;entryDy=0;endArrow=none;endFill=0;labelBackgroundColor=none;fontColor=default;" parent="1" source="PtgkLcLX1C7ZnrB83xxI-4" target="h14oSrX0KjaI8eYM9eCp-1" edge="1">
          <mxGeometry relative="1" as="geometry">
            <Array as="points" />
            <mxPoint x="-178" y="-16" as="sourcePoint" />
            <mxPoint x="-158" y="13" as="targetPoint" />
          </mxGeometry>
        </mxCell>
        <mxCell id="PtgkLcLX1C7ZnrB83xxI-8" style="edgeStyle=none;rounded=0;orthogonalLoop=1;jettySize=auto;html=1;entryX=0.5;entryY=0;entryDx=0;entryDy=0;endArrow=none;endFill=0;labelBackgroundColor=none;fontColor=default;exitX=0.5;exitY=1;exitDx=0;exitDy=0;" parent="1" source="PtgkLcLX1C7ZnrB83xxI-6" target="h14oSrX0KjaI8eYM9eCp-1" edge="1">
          <mxGeometry relative="1" as="geometry">
            <Array as="points" />
            <mxPoint x="-401" y="-38" as="sourcePoint" />
            <mxPoint x="-348" y="13" as="targetPoint" />
          </mxGeometry>
        </mxCell>
        <mxCell id="PtgkLcLX1C7ZnrB83xxI-9" style="edgeStyle=none;rounded=0;orthogonalLoop=1;jettySize=auto;html=1;entryX=0.5;entryY=0;entryDx=0;entryDy=0;endArrow=none;endFill=0;labelBackgroundColor=none;fontColor=default;exitX=0.5;exitY=1;exitDx=0;exitDy=0;" parent="1" source="PtgkLcLX1C7ZnrB83xxI-5" target="h14oSrX0KjaI8eYM9eCp-1" edge="1">
          <mxGeometry relative="1" as="geometry">
            <Array as="points" />
            <mxPoint x="-375" y="-104" as="sourcePoint" />
            <mxPoint x="-318" y="13" as="targetPoint" />
          </mxGeometry>
        </mxCell>
        <mxCell id="AHH2nsyTc8WxwWbJ32Nr-1" value="StartDate" style="ellipse;whiteSpace=wrap;html=1;align=center;labelBackgroundColor=none;" parent="1" vertex="1">
          <mxGeometry x="-356" y="-216" width="90" height="40" as="geometry" />
        </mxCell>
        <mxCell id="AHH2nsyTc8WxwWbJ32Nr-2" style="edgeStyle=none;rounded=0;orthogonalLoop=1;jettySize=auto;html=1;entryX=0.75;entryY=0;entryDx=0;entryDy=0;endArrow=none;endFill=0;labelBackgroundColor=none;fontColor=default;exitX=0.5;exitY=1;exitDx=0;exitDy=0;" parent="1" source="AHH2nsyTc8WxwWbJ32Nr-1" target="h14oSrX0KjaI8eYM9eCp-1" edge="1">
          <mxGeometry relative="1" as="geometry">
            <Array as="points" />
            <mxPoint x="-265" y="-104" as="sourcePoint" />
            <mxPoint x="-218" y="3" as="targetPoint" />
          </mxGeometry>
        </mxCell>
        <mxCell id="AHH2nsyTc8WxwWbJ32Nr-3" value="EndtDate" style="ellipse;whiteSpace=wrap;html=1;align=center;labelBackgroundColor=none;" parent="1" vertex="1">
          <mxGeometry x="-295" y="-156" width="90" height="40" as="geometry" />
        </mxCell>
        <mxCell id="AHH2nsyTc8WxwWbJ32Nr-4" style="edgeStyle=none;rounded=0;orthogonalLoop=1;jettySize=auto;html=1;entryX=0.75;entryY=0;entryDx=0;entryDy=0;endArrow=none;endFill=0;labelBackgroundColor=none;fontColor=default;exitX=0.5;exitY=1;exitDx=0;exitDy=0;" parent="1" source="AHH2nsyTc8WxwWbJ32Nr-3" target="h14oSrX0KjaI8eYM9eCp-1" edge="1">
          <mxGeometry relative="1" as="geometry">
            <Array as="points" />
            <mxPoint x="-204" y="-44" as="sourcePoint" />
            <mxPoint x="-237" y="63" as="targetPoint" />
          </mxGeometry>
        </mxCell>
        <mxCell id="AHH2nsyTc8WxwWbJ32Nr-5" value="has" style="shape=rhombus;perimeter=rhombusPerimeter;whiteSpace=wrap;html=1;align=center;labelBackgroundColor=none;" parent="1" vertex="1">
          <mxGeometry x="-251" y="124" width="80" height="60" as="geometry" />
        </mxCell>
        <mxCell id="AHH2nsyTc8WxwWbJ32Nr-6" value="" style="shape=link;html=1;rounded=0;endArrow=ERmany;endFill=0;exitX=0.5;exitY=1;exitDx=0;exitDy=0;labelBackgroundColor=none;fontColor=default;entryX=1;entryY=0;entryDx=0;entryDy=0;" parent="1" source="WtoOjSqFsYYeVvReh3D3-1" target="AHH2nsyTc8WxwWbJ32Nr-5" edge="1">
          <mxGeometry relative="1" as="geometry">
            <mxPoint x="-288" y="53" as="sourcePoint" />
            <mxPoint x="-221" y="149" as="targetPoint" />
          </mxGeometry>
        </mxCell>
        <mxCell id="kCh7TwvfOf6KezShgKvh-2" value="StGender" style="ellipse;whiteSpace=wrap;html=1;align=center;" parent="1" vertex="1">
          <mxGeometry x="-900" y="226" width="100" height="40" as="geometry" />
        </mxCell>
        <mxCell id="ateeE2IGtqzsqF5pRBgF-1" value="" style="shape=link;html=1;rounded=0;entryX=0;entryY=0.5;entryDx=0;entryDy=0;" parent="1" target="q3ETB64ECVbd5WmJ5TXc-65" edge="1">
          <mxGeometry relative="1" as="geometry">
            <mxPoint x="-180" y="641" as="sourcePoint" />
            <mxPoint x="-40" y="643" as="targetPoint" />
          </mxGeometry>
        </mxCell>
        <mxCell id="ateeE2IGtqzsqF5pRBgF-2" value="M" style="resizable=0;html=1;whiteSpace=wrap;align=left;verticalAlign=bottom;" parent="ateeE2IGtqzsqF5pRBgF-1" connectable="0" vertex="1">
          <mxGeometry x="-1" relative="1" as="geometry" />
        </mxCell>
      </root>
    </mxGraphModel>
  </diagram>
</mxfile>
